<?xml version="1.0" encoding="utf-8"?>
<!-- Generator: Adobe Illustrator 26.0.0, SVG Export Plug-In . SVG Version: 6.00 Build 0)  -->
<svg version="1.1" id="Capa_1" xmlns="http://www.w3.org/2000/svg" xmlns:xlink="http://www.w3.org/1999/xlink" x="0px" y="0px"
	 viewBox="0 0 511.9 511.9" style="enable-background:new 0 0 511.9 511.9;" xml:space="preserve">
<style type="text/css">
	.st0{fill:none;}
	.st1{fill:#FEFEFE;}
	.st2{fill:#5F5F5F;}
</style>
<g>
	<path d="M509.08,218.56c-15.66-106.84-97.13-192.5-203.4-213.68c-10.13-2.02-20.31-3.54-30.63-4.03c-0.05-0.11-0.08-0.22-0.11-0.34
		h-0.54c-3.16-0.29-6.39,0.64-9.5-0.51h-28.99c-5.6,2.2-11.61,1.84-17.41,2.72C112.08,18.76,27.35,98.57,5.25,203.81
		c-1.95,9.28-3.24,18.68-4.21,28.12c-0.11,1.03,0.52,2.42-1.04,2.98v41.98c2.33,5.38,1.88,11.23,2.78,16.85
		c11.24,70.27,45.55,126.61,102.58,168.91c38.12,28.28,81.23,43.99,128.52,48.18c0.79,0.07,1.69-0.06,2.03,0.97h37.98
		c6.32-1.95,12.95-1.74,19.41-2.74c62.49-9.6,114.51-38.33,156.01-85.83c33.48-38.32,53.23-83.04,60.32-133.39
		c0.66-4.66,0.31-9.48,2.17-13.95v-39.98C509.59,230.34,509.92,224.35,509.08,218.56z M325.09,458.49
		c-10.01,3.42-16.26-1.1-16.25-11.83c0.02-19.33,0.16-38.65,0.09-57.97c-0.06-14.04-3.5-26.98-14.1-38.24
		c12.68-1.62,24.39-3.72,35.76-7.46c34.49-11.36,53.41-35.76,59.14-70.94c2.9-17.84,3.81-35.74-1.67-53.4
		c-3.25-10.47-8.3-19.94-15.44-28.21c-2.01-2.33-2.21-4.22-1.37-7.08c4.98-16.89,3.41-33.52-2.28-49.98c-1-2.88-2.77-3.38-5.28-3.33
		c-10.01,0.21-19.22,3.47-28.2,7.53c-8.04,3.63-15.73,7.94-22.95,13c-2.3,1.61-4.41,1.79-6.97,1.14
		c-33.07-8.48-66.16-8.47-99.23-0.03c-2.85,0.72-4.98,0.14-7.39-1.44c-12.28-8.02-24.91-15.6-39.46-18.53
		c-18.26-3.67-15.5-3.22-19.5,11.67c-3.7,13.76-3.47,27.67,0.97,41.35c0.56,1.72,0.58,2.96-0.74,4.46
		c-17.26,19.67-22.09,43.03-19.99,68.37c1.51,18.26,5.26,35.87,15.34,51.55c13.85,21.55,34.76,32.19,58.88,37.66
		c7.09,1.6,14.3,2.69,21.94,4.11c-7.17,7.65-11.06,16.48-12.52,26.39c-0.27,1.82-1.42,2.38-2.88,2.97
		c-22.21,9.07-44.91,5.56-58.92-17.66c-6.4-10.6-14.85-18.72-27.11-22.16c-3.76-1.06-7.57-1.25-11.37-0.5
		c-4.91,0.96-5.85,3.55-2.55,7.2c1.55,1.72,3.34,3.33,5.3,4.52c11.14,6.81,18.73,16.77,22.99,28.7
		c9.42,26.33,33.23,37.09,61.3,34.17c4-0.42,9.15-3.42,11.62-0.75c2.03,2.19,0.6,7.61,0.63,11.6c0.06,7.32,0.11,14.65,0.1,21.98
		c-0.03,9.84-6.62,14.52-16.01,11.22c-34.89-12.25-64.93-31.91-89.59-59.52c-29.77-33.33-48.25-72.23-52.96-116.6
		c-8.24-77.61,17.34-142.64,77.44-192.75c42.3-35.26,92.08-51.68,146.86-47.21c89.24,7.28,152.38,53.42,185.77,136.36
		C499.6,290.9,439.19,419.46,325.09,458.49z"/>
	<path class="st0" d="M511.9,507.81c0,3.42-0.67,4.1-4.1,4.09c-77.97-0.12-155.94-0.1-233.91-0.1c6.32-1.95,12.95-1.74,19.41-2.74
		c62.49-9.6,114.51-38.33,156.01-85.83c33.48-38.32,53.23-83.04,60.32-133.39c0.66-4.66,0.31-9.48,2.17-13.95
		C511.8,353.2,511.77,430.5,511.9,507.81z"/>
	<path class="st0" d="M235.91,511.8c-77.31,0-154.61-0.03-231.91,0.1c-3.43,0.01-4.1-0.67-4.1-4.09C0.03,430.83,0,353.86,0,276.89
		c2.33,5.38,1.88,11.23,2.78,16.85c11.24,70.27,45.55,126.61,102.58,168.91c38.12,28.28,81.23,43.99,128.52,48.18
		C234.67,510.9,235.57,510.77,235.91,511.8z"/>
	<path class="st0" d="M511.8,235.91c-2.21-5.57-1.88-11.56-2.72-17.35c-15.66-106.84-97.13-192.5-203.4-213.68
		c-10.13-2.02-20.31-3.54-30.63-4.03c-0.05-0.11-0.08-0.22-0.11-0.34c-0.05-0.16-0.06-0.34-0.05-0.51C352.45,0,430,0.03,507.56-0.1
		c3.6-0.01,4.35,0.74,4.34,4.34C511.77,81.46,511.8,158.69,511.8,235.91z"/>
	<path class="st1" d="M275.05,0.85c-0.3-0.09-0.46-0.2-0.49-0.34c-0.02-0.05-0.01-0.1,0.01-0.16c0.1-0.23,0.2-0.35,0.32-0.35
		c-0.01,0.17,0,0.35,0.05,0.51C274.97,0.63,275,0.74,275.05,0.85z"/>
	<path class="st0" d="M235.91,0c-5.6,2.2-11.61,1.84-17.41,2.72C112.08,18.76,27.35,98.57,5.25,203.81
		c-1.95,9.28-3.24,18.68-4.21,28.12c-0.11,1.03,0.52,2.42-1.04,2.98C0,158.02,0.03,81.13-0.1,4.24c-0.01-3.6,0.74-4.35,4.34-4.34
		C81.46,0.03,158.69,0,235.91,0z"/>
	<path class="st2" d="M275.05,0.85c-3.43,0.29-6.88,0.7-10.15-0.85h9.99c-0.01,0.17,0,0.35,0.05,0.51
		C274.97,0.63,275,0.74,275.05,0.85z"/>
	<path class="st0" d="M325.09,458.49c-10.01,3.42-16.26-1.1-16.25-11.83c0.02-19.33,0.16-38.65,0.09-57.97
		c-0.06-14.04-3.5-26.98-14.1-38.24c12.68-1.62,24.39-3.72,35.76-7.46c34.49-11.36,53.41-35.76,59.14-70.94
		c2.9-17.84,3.81-35.74-1.67-53.4c-3.25-10.47-8.3-19.94-15.44-28.21c-2.01-2.33-2.21-4.22-1.37-7.08
		c4.98-16.89,3.41-33.52-2.28-49.98c-1-2.88-2.77-3.38-5.28-3.33c-10.01,0.21-19.22,3.47-28.2,7.53c-8.04,3.63-15.73,7.94-22.95,13
		c-2.3,1.61-4.41,1.79-6.97,1.14c-33.07-8.48-66.16-8.47-99.23-0.03c-2.85,0.72-4.98,0.14-7.39-1.44
		c-12.28-8.02-24.91-15.6-39.46-18.53c-18.26-3.67-15.5-3.22-19.5,11.67c-3.7,13.76-3.47,27.67,0.97,41.35
		c0.56,1.72,0.58,2.96-0.74,4.46c-17.26,19.67-22.09,43.03-19.99,68.37c1.51,18.26,5.26,35.87,15.34,51.55
		c13.85,21.55,34.76,32.19,58.88,37.66c7.09,1.6,14.3,2.69,21.94,4.11c-7.17,7.65-11.06,16.48-12.52,26.39
		c-0.27,1.82-1.42,2.38-2.88,2.97c-22.21,9.07-44.91,5.56-58.92-17.66c-6.4-10.6-14.85-18.72-27.11-22.16
		c-3.76-1.06-7.57-1.25-11.37-0.5c-4.91,0.96-5.85,3.55-2.55,7.2c1.55,1.72,3.34,3.33,5.3,4.52c11.14,6.81,18.73,16.77,22.99,28.7
		c9.42,26.33,33.23,37.09,61.3,34.17c4-0.42,9.15-3.42,11.62-0.75c2.03,2.19,0.6,7.61,0.63,11.6c0.06,7.32,0.11,14.65,0.1,21.98
		c-0.03,9.84-6.62,14.52-16.01,11.22c-34.89-12.25-64.93-31.91-89.59-59.52c-29.77-33.33-48.25-72.23-52.96-116.6
		c-8.24-77.61,17.34-142.64,77.44-192.75c42.3-35.26,92.08-51.68,146.86-47.21c89.24,7.28,152.38,53.42,185.77,136.36
		C499.6,290.9,439.19,419.46,325.09,458.49z"/>
</g>
</svg>
