<?xml version="1.0" encoding="utf-8"?>
<!-- Generator: Adobe Illustrator 26.0.0, SVG Export Plug-In . SVG Version: 6.00 Build 0)  -->
<svg version="1.1" id="Capa_1" xmlns="http://www.w3.org/2000/svg" xmlns:xlink="http://www.w3.org/1999/xlink" x="0px" y="0px"
	 viewBox="0 0 142.87 224.15" style="enable-background:new 0 0 142.87 224.15;" xml:space="preserve">
<style type="text/css">
	.st0{fill:none;}
	.st1{fill:#EDEBE5;}
	.st2{fill:#F8A086;}
	.st3{fill:#5D475E;}
	.st4{fill:#EDEBE6;}
	.st5{fill:#674F65;}
	.st6{fill:#F8A186;}
	.st7{fill:#553327;}
	.st8{fill:#553326;}
	.st9{fill:#F8A085;}
	.st10{fill:#462A21;}
	.st11{fill:#2A2E3C;}
	.st12{fill:#462921;}
	.st13{fill:#5C475F;}
	.st14{fill:#5D475D;}
	.st15{fill:#EC8D74;}
	.st16{fill:#472923;}
	.st17{fill:#EC8C77;}
	.st18{fill:#F49B83;}
	.st19{fill:#EA8C77;}
	.st20{fill:#FCA88D;}
	.st21{fill:#EB8C7B;}
	.st22{fill:#6E4149;}
	.st23{fill:#646364;}
	.st24{fill:#EDEAE5;}
	.st25{fill:#ED8C77;}
	.st26{fill:#F9927B;}
	.st27{fill:#F98573;}
	.st28{fill:#7A2F28;}
	.st29{fill:#F59C86;}
	.st30{fill:#F3A18F;}
	.st31{fill:#F6F2F0;}
	.st32{fill:#EBA08A;}
	.st33{fill:#432925;}
	.st34{fill:#F59E83;}
	.st35{fill:#F59E84;}
	.st36{fill:#F8CEC1;}
	.st37{fill:#F7CFC2;}
	.st38{fill:#40292A;}
	.st39{fill:#F4B7A3;}
	.st40{fill:#E79C8F;}
	.st41{fill:#AE938B;}
	.st42{fill:#F3ECED;}
	.st43{fill:#BA342D;}
	.st44{fill:#FCBFAB;}
	.st45{fill:#52170B;}
	.st46{fill:#F5F3F0;}
	.st47{fill:#3B2523;}
	.st48{fill:#4C261D;}
	.st49{fill:#F1DED5;}
	.st50{fill:#A38B86;}
	.st51{fill:#A88D81;}
	.st52{fill:#AE867B;}
	.st53{fill:#4D1C17;}
</style>
<g>
	<path class="st0" d="M194.15-21.13c-0.06,80.62-0.06,161.22,0,241.84c0,1.74-0.4,2.03-2.07,2.03c-19.25-0.08-38.47-0.04-57.69-0.04
		c0.82-7.53,1.99-15.04,2.34-22.59c0.54-10.84,1.49-21.67,1.09-32.53c-0.06-2.03-0.29-4.06-0.44-6.09
		c-0.86-4.64-0.04-9.39-1.05-14.04c0.27-11.21-1.49-21.94-7.53-31.65c-4.56-7.8-10.54-13.66-20.1-14.64
		c-2.38-0.25-4.75-0.73-7.13-1.11c-0.25,0-0.48-0.02-0.71-0.06c-1.65-0.25-3.07-1.13-4.58-1.8c-1-1.21-2.15-2.41-2.36-4.02
		c-0.27-1.97-0.21-3.95-0.29-5.94c0.04-0.54,0.08-1.07,0.1-1.59c5.15-4.48,9.37-9.66,12.22-15.92c0.79-1.74,1.61-3.45,2.43-5.17
		c1.26,1.72,2.8,1.13,4.23,0.38c3.49-1.88,5.38-7.89,3.58-11.4c-0.79-1.57-1.8-3.07-3.93-2.99c-0.56,0.02-0.94-0.25-1.02-0.84
		c0-0.23,0.02-0.48,0.02-0.71c1.95-5.79,2.64-11.76,1.95-17.8c-0.88-7.47-4.48-13.3-10.96-17.26C96.31,6.84,88.24,3.45,78.41,4.1
		c-7.49,0.48-14.18,3.45-20.67,6.99c-2.18,1.19-4.06,2.57-5.25,4.79c-1.19,1.59-1.9,3.41-2.47,5.29c-2.3,7.53-1.78,15.12-0.31,22.72
		c-0.02,0.31-0.04,0.65-0.04,0.98c-1.09,0.56-2.97-0.67-3.37,1.11c-0.27,1.21-0.25,3.14,0.48,3.83c2.97,2.68,3.07,6.65,4.94,9.77
		c-0.13,0.65-0.25,1.32-0.4,1.95c-0.94,3.6-2.97,6.71-4.46,10.04c-1.86,4.18-1.53,8.07,1.11,11.78c1.3,2.55,3.66,3.95,5.98,5.36
		c3.45,2.07,7.34,2.97,11.17,4.1c-0.02,0.46-0.02,0.9-0.04,1.36c-1.28,2.74-2.8,5.19-6.28,5.33c-0.73,0.1-1.49,0.17-2.24,0.29
		c-7.8,1.23-15.29,3.35-21.57,8.47c-1.02,0.36-1.86,0.94-2.53,1.78c0,0.02-0.02,0.02-0.02,0.04c0-0.02,0-0.02,0-0.04
		c-0.19,0.06-0.4,0.13-0.61,0.17c-0.08-0.27-0.17-0.54-0.25-0.84c0.86-4.04,0.27-8.12,0.33-12.17c0.04-2.82,1.07-5.1,3.24-6.69
		c4.87-3.58,6.63-8.79,7.82-14.31c0.67-3.22-1.86-5.38-2.82-8.05c-0.23-0.63-1.02-0.29-1.57-0.04c-4.1-4.75-9.06-4.75-11.73-0.02
		c-0.56-0.04-0.8-0.4-0.86-0.92c0.08-0.15,0.13-0.29,0.17-0.46c0.02,0,0.02-0.02,0-0.04c0.65-1.99,0.17-4.04,0.23-6.05
		c-0.1-2.72,0.86-5.54-0.98-8.03c-1.59-1.07-2.87-0.77-2.84,1.23c0.08,4.48-1.07,8.83-1.19,13.26c-0.27,0-0.56,0-0.84,0.02
		c-0.54-1.74-1.09-3.47-1.61-5.21c-0.52-1.76-0.94-3.54-1.55-5.23c-0.33-0.98-1.05-1.78-2.26-1.53c-1.17,0.23-1.26,1.21-1.21,2.15
		c0.15,3.87,0.4,7.74,2.03,11.34c-0.08,0.67,0.17,1.42-0.42,1.99c-0.61-1.11-1.15-2.22-1.78-3.31c-0.82-1.42-1.19-3.16-2.72-4.1
		c-0.48-0.27-1-0.73-1.61-0.38c-0.65,0.33-0.59,1-0.48,1.55c0.92,4.46,2.87,8.56,4.5,12.76c0.94,3.97,2.05,7.95,4.16,11.44
		c2.05,3.39,2.11,6.84,1.53,10.54c-1.21,7.61-4.1,14.75-7.07,21.71c-2.61,6.07-4.66,12.2-6.09,18.6c-1.46,4.29-1.95,8.6-0.69,13.05
		c1.3,4.62,4.71,7.55,9.43,7.49c8.74-0.13,15.25-4.83,20.86-10.98c0.84-0.9,1.17-2.32,2.41-3.03c0,0,0.02,0.02,0.04,0.04
		c1.07,16.42,0.96,32.84,0.23,49.24c-0.36,7.99-1.13,15.96-1.72,23.95c-0.48,1.13-0.52,2.3-0.5,3.51c-28.6,0-57.19-0.02-85.79,0.04
		c-1.67,0-2.09-0.25-2.09-2.03c0.06-80.62,0.06-161.22,0-241.84c0-1.88,0.5-2.13,2.22-2.13c80.52,0.04,161.03,0.04,241.57,0
		C193.63-23.27,194.15-23.06,194.15-21.13z"/>
	<path class="st1" d="M39.52,174.64c-0.08,5,0.1,10.02-0.08,15.02c-0.36,9.69-0.94,19.39-2.15,29.01c0,0.06-0.02,0.1-0.02,0.17
		c-0.02,0.1-0.04,0.23-0.04,0.33c-0.19,1.23-0.29,2.51-1.19,3.51c-0.02-1.21,0.02-2.38,0.5-3.51c0.59-7.99,1.36-15.96,1.72-23.95
		c0.73-16.4,0.84-32.82-0.23-49.24c0.17,0.1,0.36,0.25,0.54,0.46c0.5,1.19,0.69,2.45,0.73,3.68
		C39.48,158.31,39.69,166.47,39.52,174.64z"/>
	<path class="st1" d="M136.73,200.1c-0.36,7.55-1.53,15.06-2.34,22.59c-0.98-1.76-0.48-3.64-0.27-5.4
		c1.21-10.96,1.9-21.96,2.49-32.97c0.4-7.61,0.29-15.19,0.13-22.78c-0.13-0.46-0.21-0.9-0.29-1.36c-0.08-0.44-0.15-0.86-0.19-1.3
		c-0.46-3.64-0.1-7.32-0.59-10.96c0-0.06-0.02-0.13-0.02-0.19v-0.29c-0.04-6.44-0.52-12.82-2.24-19.08
		c-1.13-4.18-3.07-8.01-5.12-11.8c-0.02-0.04-0.04-0.08-0.06-0.13c-0.08-0.13-0.15-0.27-0.23-0.4c-4.2-7.32-9.75-12.8-18.64-14.02
		c-2.57-0.33-5.1-0.84-7.66-1.26c-0.75-0.13-1.51-0.27-2.24-0.46c-0.27-0.06-0.52-0.15-0.77-0.23c-0.88-0.27-1.72-0.67-2.49-1.26
		c-0.1-0.06-0.21-0.15-0.31-0.25c-0.02-0.02-0.06-0.04-0.08-0.06c-2.18-1.8-2.95-4.16-2.8-6.88v-0.23c0.08-0.96,0.02-1.95,0-2.93
		v-0.06c-0.02-0.27,0-0.56,0.02-0.86c0.02-0.19,0.04-0.38,0.08-0.54c0-0.06,0.02-0.13,0.02-0.19c0.25-0.92,0.9-1.57,1.61-2.18
		c5.12-4.43,8.74-9.96,11.42-16.15c0.5-1.17,0.63-2.66,2.13-3.18c0.04,0,0.08,0.02,0.13,0.02s0.06,0.02,0.08,0.02
		c3.72,0.65,5.77-0.75,7.09-4.83c1.23-3.81,0.1-6.78-3.22-8.26c-0.59-0.27-1.11-0.54-1.42-1.05c-0.08-0.13-0.17-0.29-0.21-0.46
		c-0.02-0.04-0.02-0.1-0.04-0.17c-0.04-0.21-0.06-0.44-0.04-0.67v-0.1c0.08-0.31,0.15-0.63,0.23-0.94
		c1.44-5.94,2.26-11.94,1.21-18.12c-1.05-6.07-4.1-10.84-9.2-14.31c-0.19-0.15-0.4-0.29-0.59-0.46c-0.17-0.15-0.33-0.31-0.48-0.5
		c-0.02-0.02-0.02-0.02-0.04-0.04C94.72,6.31,85.42,3.34,74.27,5.43c-6.32,1.17-11.97,4.06-17.57,7.09
		c-1.57,0.86-2.61,2.3-3.58,3.79c-0.04,0.06-0.08,0.15-0.13,0.21c-0.1,0.19-0.21,0.4-0.31,0.59c-3.49,6.63-3.68,13.79-3.05,21.04
		c0.13,1.34,0.29,2.66,0.44,3.97c0.04,0.27,0.06,0.52,0.08,0.79c0.04,0.31,0.08,0.61,0.1,0.92c-0.02,0.36-0.13,0.71-0.29,1
		c-0.02,0.04-0.04,0.08-0.06,0.13c-0.04,0.02-0.08,0.04-0.13,0.06c-3.43,1.95-3.28,2.09-1,5.82c1.63,2.68,2.53,5.73,3.49,8.72v0.23
		c0,0.04,0,0.06-0.02,0.1v0.02c0.02,0.06,0.02,0.1,0,0.15c-0.02,0.5-0.08,1-0.21,1.49v0.06c-0.4,1.78-1.26,3.41-1.95,5.06
		c-0.73,1.78-1.69,3.45-2.47,5.19c-1.69,3.77-1.42,7.36,0.79,10.81c0,0.04,0.04,0.08,0.06,0.13c0.13,0.19,0.27,0.38,0.42,0.54
		c3.43,4.5,8.49,6.34,13.7,7.91c1.02,0.31,2.18,0.36,2.84,1.4c0.02,0.06,0.04,0.1,0.06,0.17c0.04,0.1,0.06,0.21,0.1,0.31v0.02
		c0.06,0.33,0.06,0.67,0,1.02v0.02c-0.06,0.21-0.13,0.42-0.21,0.61c-0.82,2.43-2.3,4.08-4.5,4.92c-0.17,0.06-0.36,0.13-0.54,0.17
		c-0.54,0.19-1.13,0.31-1.76,0.38c-8.22,1.07-16.04,3.22-22.86,8.2c-0.04,0.02-0.08,0.06-0.13,0.08c-0.21,0.13-0.4,0.25-0.61,0.4
		c-0.82,0.56-1.59,1.21-2.51,1.59c-0.02,0-0.02,0-0.04,0c-0.08,0.02-0.19,0.04-0.27,0.02h-0.02c-0.1,0-0.21-0.02-0.31-0.06
		c-0.04,0-0.06,0-0.1-0.02c-0.48-0.27-0.65-0.73-0.65-1.23v-0.19c0.02-0.17,0.04-0.31,0.04-0.48c0.31-3.1,0.23-6.19,0.15-9.29
		c-0.02-0.54-0.02-1.09-0.04-1.63c-0.04-3.37,1.17-5.98,3.77-8.03c4.46-3.56,6.51-8.45,7.07-13.87c0.31-2.89-1.09-5.48-3.56-7.26
		c-0.25-0.13-0.46-0.27-0.69-0.46c-0.65-0.46-1.21-1.07-1.9-1.55c-0.52-0.38-1.13-0.71-1.88-0.86c-1.76-0.36-3.26-0.33-4.54,0.38
		c-0.02,0-0.04,0-0.06,0.02c-0.61,0.38-1.19,0.9-1.69,1.63c-0.1,0.13-0.21,0.25-0.31,0.33c-0.19,0.19-0.4,0.31-0.67,0.38
		c-0.88,0-1.15-0.56-1.19-1.34c0.13-0.69,0.17-1.36,0.19-2.05c0.04-1.36-0.04-2.7-0.02-4.06v-0.19c-0.19-1.46-0.02-2.93,0.02-4.39
		c0.02-1.05-0.06-2.05-0.82-2.84l-0.08-0.08c-0.23-0.06-0.42-0.1-0.59-0.1c-1.15-0.06-0.92,1.17-0.92,1.86c0,3.24-0.65,6.4-1.05,9.6
		c-0.08,0.77-0.08,1.61-0.59,2.28c-0.02,0.02-0.02,0.04-0.04,0.06l-0.02,0.02c-0.34,0.25-0.71,0.31-1.11,0.21
		c-0.1-0.06-0.19-0.13-0.27-0.21c-0.13-0.08-0.23-0.19-0.33-0.29c-1.07-1.11-1.19-2.66-1.61-4.06c-0.52-1.76-0.75-3.6-1.49-5.27
		c-0.25-0.59-0.59-1.32-1.42-1.11c-0.69,0.19-0.65,0.94-0.65,1.49c0.06,3.33,0.5,6.61,1.51,9.81c0.1,0.29,0.15,0.56,0.21,0.88
		c0,0.02,0.02,0.06,0.02,0.08c0.02,0.1,0.02,0.23,0.02,0.36c0.02,0.67-0.08,1.3-0.75,1.72c-0.15-0.02-0.27-0.06-0.4-0.1
		c-0.21-0.06-0.38-0.15-0.54-0.25c-1.07-0.71-1.23-2.13-1.88-3.14c-0.77-1.19-1.09-2.78-3.1-3.49c0.27,4.18,2.26,7.57,3.54,11.13
		c0.17,0.48,0.33,0.96,0.48,1.42c0.08,0.31,0.17,0.61,0.23,0.92c1.42,4.46,2.99,8.85,5.19,13.01c1.42,2.68,1.23,5.71,0.69,8.62
		c-1.02,5.5-2.64,10.88-4.79,16.07c-1.86,4.48-3.45,9.06-5.52,13.43c-1.67,3.54-1.53,7.53-2.95,11.11
		c-0.17,0.54-0.33,1.07-0.48,1.61c-0.21,0.71-0.38,1.44-0.52,2.18c0,0.02,0,0.02,0,0.04c-0.48,2.61-0.52,5.25,0.08,7.99
		c0.75,3.31,2.24,5.61,4.56,6.82c0.1,0.06,0.23,0.13,0.36,0.17c0,0.02,0.02,0.02,0.04,0.02c1.32,0.63,2.89,0.9,4.73,0.86
		c6.34-0.17,11.42-3.39,16.13-7.24c1.55-1.26,2.87-2.76,3.91-4.54c0.52-0.88,1.23-2.18,2.45-1.42c-1.23,0.71-1.57,2.13-2.41,3.03
		c-5.61,6.15-12.11,10.86-20.86,10.98c-4.73,0.06-8.14-2.87-9.43-7.49c-1.26-4.46-0.77-8.76,0.69-13.05
		c1.42-6.4,3.47-12.53,6.09-18.6c2.97-6.97,5.86-14.1,7.07-21.71c0.59-3.7,0.52-7.15-1.53-10.54c-2.11-3.49-3.22-7.47-4.16-11.44
		c-1.63-4.2-3.58-8.3-4.5-12.76c-0.1-0.54-0.17-1.21,0.48-1.55c0.61-0.36,1.13,0.1,1.61,0.38c1.53,0.94,1.9,2.68,2.72,4.1
		c0.63,1.09,1.17,2.2,1.78,3.31c0.59-0.56,0.33-1.32,0.42-1.99c-1.63-3.6-1.88-7.47-2.03-11.34c-0.04-0.94,0.04-1.92,1.21-2.15
		c1.21-0.25,1.92,0.54,2.26,1.53c0.61,1.69,1.02,3.47,1.55,5.23c0.52,1.74,1.07,3.47,1.61,5.21c0.27-0.02,0.56-0.02,0.84-0.02
		c0.13-4.43,1.28-8.79,1.19-13.26c-0.02-2.01,1.26-2.3,2.84-1.23c1.84,2.49,0.88,5.31,0.98,8.03c-0.06,2.01,0.42,4.06-0.23,6.05
		c0.02,0.02,0.02,0.04,0,0.04c-0.04,0.15-0.1,0.31-0.17,0.46c0.06,0.52,0.29,0.88,0.86,0.92c2.68-4.73,7.64-4.73,11.73,0.02
		c0.54-0.25,1.34-0.59,1.57,0.04c0.96,2.68,3.49,4.83,2.82,8.05c-1.19,5.52-2.95,10.73-7.82,14.31c-2.18,1.59-3.2,3.87-3.24,6.69
		c-0.06,4.06,0.52,8.14-0.33,12.17c0.08,0.29,0.17,0.56,0.25,0.84c0.21-0.04,0.42-0.1,0.61-0.17c0,0.02,0,0.02,0,0.04
		c0-0.02,0.02-0.02,0.02-0.04c0.67-0.84,1.51-1.42,2.53-1.78c6.28-5.13,13.76-7.24,21.57-8.47c0.75-0.13,1.51-0.19,2.24-0.29
		c3.47-0.15,5-2.59,6.28-5.33c0.02-0.46,0.02-0.9,0.04-1.36c-3.83-1.13-7.72-2.03-11.17-4.1c-2.32-1.4-4.69-2.8-5.98-5.36
		c-2.64-3.7-2.97-7.59-1.11-11.78c1.49-3.33,3.51-6.44,4.46-10.04c0.15-0.63,0.27-1.3,0.4-1.95c-1.86-3.12-1.97-7.09-4.94-9.77
		c-0.73-0.69-0.75-2.61-0.48-3.83c0.4-1.78,2.28-0.54,3.37-1.11c0-0.33,0.02-0.67,0.04-0.98c-1.46-7.59-1.99-15.19,0.31-22.72
		c0.56-1.88,1.28-3.7,2.47-5.29c1.19-2.22,3.07-3.6,5.25-4.79c6.48-3.54,13.18-6.51,20.67-6.99c9.83-0.65,17.91,2.74,23.81,10.84
		c6.48,3.95,10.08,9.79,10.96,17.26c0.69,6.05,0,12.01-1.95,17.8c0,0.23-0.02,0.48-0.02,0.71c0.08,0.59,0.46,0.86,1.02,0.84
		c2.13-0.08,3.14,1.42,3.93,2.99c1.8,3.51-0.08,9.52-3.58,11.4c-1.42,0.75-2.97,1.34-4.23-0.38c-0.82,1.72-1.63,3.43-2.43,5.17
		c-2.84,6.25-7.07,11.44-12.22,15.92c-0.02,0.52-0.06,1.05-0.1,1.59c0.08,1.99,0.02,3.97,0.29,5.94c0.21,1.61,1.36,2.8,2.36,4.02
		c1.51,0.67,2.93,1.55,4.58,1.8c0.23,0.04,0.46,0.06,0.71,0.06c2.38,0.38,4.75,0.86,7.13,1.11c9.56,0.98,15.54,6.84,20.1,14.64
		c6.05,9.71,7.8,20.44,7.53,31.65c1,4.64,0.19,9.39,1.05,14.04c0.15,2.03,0.38,4.06,0.44,6.09
		C138.21,178.43,137.27,189.27,136.73,200.1z"/>
	<path class="st2" d="M136.73,200.1c-0.36,7.55-1.53,15.06-2.34,22.59h-17.57c0-1.84,0.04-3.68-0.04-5.52
		c-0.29-6.19,1.34-12.24,1.53-18.41c0.48-16.36-3.43-32.24-5.42-48.32c-0.02-0.04-0.04-0.06-0.06-0.1c0.02-0.04,0.04-0.04,0.08-0.04
		c0.04-0.02,0.08-0.04,0.13-0.04c5.4-0.13,10.81-0.59,15.92,1.92c3.2,1.57,5.67,3.74,7.3,6.71c0.44,0.79,0.82,1.67,1.13,2.59
		c0.15,2.03,0.38,4.06,0.44,6.09C138.21,178.43,137.27,189.27,136.73,200.1z"/>
	<path class="st3" d="M113.3,222.69H36.03c-0.02-1.21,0.02-2.38,0.5-3.51c0.23-0.21,0.48-0.38,0.75-0.5
		c1.02-0.52,2.2-0.36,3.31-0.29c10.84,0.54,21.38-1.07,31.57-4.6c14.02-4.87,25.35-13.26,33.03-26.19c1.02-1.74,2.15-3.39,3.18-5.13
		c1.23-2.07,1.67-4.31,1.67-6.71c0-0.86-0.04-2.2,1.13-2.13c0.04,0,0.08,0,0.13,0.02c0.21,2.32,0.38,4.64,0.31,6.99
		c-0.15,4.81-0.27,9.64,0.13,14.45C112.15,204.29,112.17,213.51,113.3,222.69z"/>
	<path class="st4" d="M112.9,150.3c0,0.04-0.02,0.08-0.02,0.15c-0.02-0.04-0.04-0.06-0.06-0.1c-0.15-0.29-0.29-0.56-0.44-0.86
		C112.94,149.29,112.97,149.73,112.9,150.3z"/>
	<path class="st0" d="M116.77,217.17c0.08,1.84,0.04,3.68,0.04,5.52h-3.51c-1.13-9.18-1.15-18.41-1.57-27.61
		c-0.4-4.81-0.27-9.64-0.13-14.45c0.06-2.34-0.1-4.66-0.31-6.99c0.21,0.04,0.36,0.17,0.46,0.36c0.04-8.18,0.19-16.36,0.61-24.52
		c0,0,0,0,0.02,0c0.15,0.29,0.29,0.56,0.44,0.86c0.02,0.04,0.04,0.06,0.06,0.1c1.99,16.09,5.9,31.96,5.42,48.32
		C118.11,204.93,116.48,210.98,116.77,217.17z"/>
	<path class="st4" d="M112.36,149.48c-0.42,8.16-0.56,16.34-0.61,24.52c-0.1-0.19-0.25-0.31-0.46-0.36
		c-0.27-3.03-0.61-6.07-0.52-9.14c0.13-4.25,0.67-8.45,0.63-12.7c0-0.75,0.15-1.49,0.59-2.13
		C112.13,149.58,112.25,149.52,112.36,149.48z"/>
	<path class="st5" d="M129.93,131.97c-0.96,4.83-4.18,7.64-8.35,9.56c-1.82,0.84-3.77,1.36-5.77,1.57
		c-3.05,0.33-3.03,0.33-3.01,3.41c0,0.4,0.06,0.77,0.1,1.17c0,0.1,0.02,0.23,0.02,0.33c0,0.04,0,0.1-0.02,0.15
		c-0.02,0.5-0.13,0.96-0.54,1.28c0,0.02,0,0.02,0,0.04c-0.42,8.16-0.56,16.34-0.61,24.52c-0.1-0.19-0.25-0.31-0.46-0.36
		c0.21,2.32,0.38,4.64,0.31,6.99c-0.15,4.81-0.27,9.64,0.13,14.45c-0.69-0.79-0.42-1.76-0.42-2.66c-0.02-6.09-0.02-12.15-0.17-18.24
		c-0.86,2.11,0.08,4.39-1.09,6.59c-3.51,6.61-7.2,13.03-12.68,18.3c-3.85,3.7-7.87,7.3-12.47,9.89c-5.02,2.82-10.29,5.42-16.02,6.67
		c-2.93,0.65-5.82,1.44-8.72,2.13c-7.15,1.69-14.39,1.34-21.63,1.4h-2.01c0.59-7.99,1.36-15.96,1.72-23.95
		c0.73-16.4,0.84-32.82-0.23-49.24v-0.06c-0.52-0.67-0.79-1.44-1-2.26c-1.28-5.29-2.64-10.54-2.34-16.07
		c0.13-2.41-0.25-4.79-0.61-7.2c-0.46-3.2-0.04-6.48,0.59-9.69c0.1-0.59,0.29-1.15,0.36-1.76c0.02-0.23,0.02-0.48,0-0.71
		c6.28-5.13,13.76-7.24,21.57-8.47c0.75-0.13,1.51-0.19,2.24-0.29c0.75-0.08,1.44,0,2.09,0.25c0.63,0.21,1.21,0.54,1.78,0.98
		c1.99,1.49,4.12,2.7,6.42,3.58c0.08,0.02,0.19,0.06,0.27,0.08c4.64,1.53,9.27,1.51,13.89,0.65c0.19-0.02,0.33-0.06,0.5-0.1
		c1.09-0.21,2.2-0.48,3.28-0.77c2.89-0.82,5.75-1.74,8.47-3.05c1.05-0.5,2.09-0.84,3.16-1c0.71-0.1,1.44-0.15,2.18-0.1
		c0.23,0.04,0.46,0.06,0.71,0.06c2.38,0.38,4.75,0.86,7.13,1.11c9.56,0.98,15.54,6.84,20.1,14.64c-0.25,0.25-0.42,0.5-0.52,0.77
		c-0.44,0.92-0.19,1.88,0.15,2.93C129.72,123.56,130.81,127.62,129.93,131.97z"/>
	<path class="st6" d="M40.17,68.13c-0.23-0.63-1.02-0.29-1.57-0.04c-0.9-0.61-1.78-1.15-2.68-1.59c-2.13-1.07-4.27-1.51-6.42-0.48
		c-0.02,0-0.04,0-0.06,0.02c-0.86,0.42-1.72,1.07-2.57,2.03c-0.56-0.04-0.8-0.4-0.86-0.92c0.06-0.15,0.13-0.31,0.17-0.46
		c0.02,0,0.02-0.02,0-0.04c0.15-0.63-0.08-1.28-0.1-1.92c-0.06-1.38-0.44-2.8,0.33-4.12c-0.1-2.72,0.86-5.54-0.98-8.03
		c-0.77-0.52-1.19,0-1.15,0.63v0.13c0.13,3.45-1.02,6.84-0.29,10.33c0.69,3.26,0.59,3.41-2.26,3.41h-0.33c-0.27,0-0.56,0-0.84,0.02
		c-0.19-0.15-0.42-0.23-0.61-0.23c-0.31-0.04-0.59,0.08-0.69,0.38c-0.56,1.36-1.67,1.32-2.76,1.36c-0.19,0-0.36,0-0.54,0.02
		c-0.08,0.67,0.17,1.42-0.42,1.99c-0.23-0.15-0.46-0.21-0.69-0.21c-0.38,0-0.67,0.21-0.69,0.61c-0.02,1.32-0.52,2.59-0.75,3.89
		c-0.13,0.73-0.17,1.46,0.04,2.24c0.94,3.97,2.05,7.95,4.16,11.44c2.05,3.39,2.11,6.84,1.53,10.54c-1.21,7.61-4.1,14.75-7.07,21.71
		c-2.61,6.07-4.66,12.2-6.09,18.6c0.04,0.13,0.06,0.27,0.06,0.4c0.1,1-0.23,1.99-0.29,3.01c0,0.15-0.02,0.27-0.02,0.42
		c0,0.02,0,0.02,0,0.04c-0.1,3.08,0.25,6.07,2.05,8.74c0.1,0.04,0.21,0.08,0.31,0.1c0.13,0.06,0.23,0.1,0.36,0.13
		c0.73,0.23,1.49,0.36,2.2,0.67c3.47,1.55,6.69,1.05,9.54-1.49c1.19-1.05,2.38-2.09,3.66-3.05c4.37-3.33,6.48-7.8,6.46-13.22
		c-0.02-8.64,0.52-17.28,0.8-25.92v-0.19c0-0.19,0.02-0.4,0.02-0.59c0,0.04,0,0.08,0.02,0.1c0.1,0.27,0.25,0.52,0.46,0.77
		c0.86-4.04,0.27-8.12,0.33-12.17c0.04-2.82,1.07-5.1,3.24-6.69c4.87-3.58,6.63-8.79,7.82-14.31C43.66,72.96,41.13,70.8,40.17,68.13
		z M31.03,76.64l-0.02-0.02c-0.75-1.26-0.44-2.64-0.48-3.97c0.73-1.02,1-2.43,2.68-2.61c2.8-0.29,3.95,1.03,3.72,4.62
		c-0.04,0.82-0.29,1.61-0.44,2.43C34.6,77.6,32.74,77.92,31.03,76.64z"/>
	<path class="st7" d="M101.9,17.27c-1.72,1.82-1.97,4.1-1.88,6.48c0.04,0.94,0.08,1.97-0.61,2.76l-0.1,0.1l-0.13,0.13
		c-0.52,0.33-1.11,0.44-1.69,0.38c-6.99-0.98-13.58,0.92-20.14,2.91c-3.74,1.13-7.43,2.66-11.48,2.09c-0.27-0.06-0.52-0.1-0.79-0.17
		c-0.52-0.1-0.98-0.23-1.49-0.36h-0.13c-1.15-0.27-2.26-0.61-3.37-1c-3.79-1.42-7.11-5.94-7.3-9.98c-0.04-1.17,0.02-2.34-0.1-3.51
		c-0.02-0.4-0.08-0.82-0.19-1.23c1.19-2.22,3.07-3.6,5.25-4.79c6.48-3.54,13.18-6.51,20.67-6.99c9.83-0.65,17.91,2.74,23.81,10.84
		c0,0.36,0.06,0.71,0.08,1.07C102.34,16.44,102.28,16.88,101.9,17.27z"/>
	<path class="st8" d="M110.64,55.14c-0.08,0.08-0.17,0.06-0.25,0c-0.02,0-0.02-0.02-0.04-0.02c-0.13-0.13-0.21-0.27-0.29-0.08
		c-2.47,6.19-5.06,12.3-8.7,17.97c-4.31,6.71-9.96,12.07-17.47,14.37c-8.76,2.66-17.91,4.33-27.03,0.69
		c-2.07-0.82-3.77-2.13-5.48-3.45c-0.8-0.61-1.57-1.11-2.49-1.26c-0.29-0.04-0.59-0.06-0.92-0.02c-2.64-3.7-2.97-7.59-1.11-11.78
		c1.49-3.33,3.51-6.44,4.46-10.04c0.15-0.63,0.27-1.3,0.4-1.95c0.23,0,0.4,0.08,0.54,0.23c0.06,0.06,0.13,0.13,0.19,0.21
		c0,0.02,0.02,0.02,0.02,0.04c0.04,0.08,0.08,0.17,0.13,0.23c0.04,0.15,0.06,0.31,0.08,0.46c0.36,2.03,0.15,4.14,0.71,6.17
		c0.71,2.57,1.17,2.91,3.64,1.97c2.78-1.05,5.56-2.09,8.43-2.89c1.19-0.33,2.36-0.67,3.62-0.48c0.13,0,0.25,0.02,0.4,0.06
		c0.04,0,0.1,0,0.15,0.02c2.34,1.11,4.71,0.56,7.05,0.02h0.02c0.1,0,0.21,0.02,0.31,0.02c0.02,0,0.02,0,0.04,0
		c3.26,0.19,6.38,1.15,9.18,2.7c4.64,2.53,8.66,1.69,12.4-1.69c0.08-0.06,0.15-0.15,0.23-0.21c0.9-0.82,1.69-1.67,2.36-2.59
		c0,0,0-0.02,0.02-0.02c1.82-2.45,2.84-5.21,3.18-8.26c0.08-0.82,0.13-1.65,0.13-2.51c0,0,0,0,0-0.02c0-0.5-0.02-0.96-0.06-1.46
		c0.38-1.15,1.42-1.42,2.38-1.78h0.02c0.06,0,0.13,0.02,0.19,0.02c1.3,0.13,2.51,0.42,3.45,1.3c0.1,0.08,0.21,0.19,0.29,0.29
		c0.1,0.1,0.21,0.23,0.29,0.36C111.67,52.98,111.81,54.15,110.64,55.14z"/>
	<path class="st9" d="M105,44.76c0,0.08-0.04,0.17-0.1,0.25c-0.02,0.08-0.06,0.15-0.13,0.21c-2.93,0.73-5.82,0.33-8.6-0.56
		c-3.14-1-6.28-1.17-9.35-0.06c-5.56,2.03-11.17,2.57-16.94,1.05c-0.5-0.15-0.9-0.46-1.36-0.63l-0.02-0.02
		c-0.06-0.04-0.13-0.06-0.19-0.08c-0.19-0.06-0.31-0.19-0.38-0.36c-0.27-0.63,0.27-1.78-1.05-1.74c-1.9,0.06-3.81-0.13-5.63,0.69
		c-0.29,0.13-0.56,0.27-0.82,0.42c-0.21,0.15-0.42,0.27-0.63,0.4c-0.02,0-0.02,0-0.02,0c-0.23,0.15-0.44,0.29-0.67,0.44
		c-2.7,0.88-5.5,0.56-8.26,0.79c-0.42,0.04-0.86-0.15-1.09-0.52c-0.04-0.04-0.08-0.1-0.1-0.17c0-0.33,0.02-0.67,0.04-0.98
		c0.15-0.59,0.15-1.21,0.36-1.76c0.1-0.25,0.25-0.48,0.48-0.69c0.08-0.08,0.15-0.17,0.23-0.23c0.29-0.33,0.61-0.65,0.92-0.94
		c2.68-2.49,5.88-4.18,9.29-5.54c6.74-2.68,13.85-3.58,21.02-4.04c2.57-0.17,5.13-0.48,7.72-0.54c5.54-0.15,9.39,2.59,11.88,8.24
		c0.75,1.69,1.09,3.64,2.45,4.96c0.15,0.15,0.31,0.29,0.5,0.44c0.13,0.08,0.25,0.17,0.38,0.25C105.04,44.28,105.06,44.53,105,44.76z
		"/>
	<path class="st2" d="M96.27,98.19c0.02,0.25-0.02,0.46-0.08,0.65c-0.17,0.59-0.65,0.98-1.19,1.32c-3.58,2.18-7.32,3.83-11.23,4.77
		c-0.17,0.04-0.31,0.08-0.5,0.1c-2.8,0.63-5.73,0.88-8.79,0.69c-1.97-0.13-3.81-1.19-5.84-0.96c-2.78-0.75-5.08-2.32-7.2-4.16
		c-0.36-0.31-0.71-0.54-1.09-0.69c-0.48-0.23-0.98-0.36-1.55-0.42c3.47-0.15,5-2.59,6.28-5.33c0.17,0.02,0.36,0.02,0.52,0.04
		c4.64,0.31,9.25,0.69,13.83-0.69c0.04-0.02,0.08-0.02,0.13-0.04c1.07-0.33,2.09-0.75,3.16-1.02c0.82-0.23,1.63-0.42,2.45-0.56h0.06
		c1.59-0.31,3.18-0.38,4.85,0.06c1.49,0.4,2.36-0.06,2.41-1.8c0.02-0.59,0-1.3,0.5-1.65c0.17-0.13,0.36-0.21,0.63-0.25
		c0.08,1.99,0.02,3.97,0.29,5.94C94.12,95.78,95.27,96.97,96.27,98.19z"/>
	<path class="st10" d="M108.49,65.37c-0.04,0.06-0.08,0.13-0.13,0.19c-0.82,1.72-1.63,3.43-2.43,5.17
		c-2.84,6.25-7.07,11.44-12.22,15.92c-0.23,0.33-0.46,0.63-0.71,0.92c-2.05,2.34-4.98,3.31-7.78,4.31h-0.06
		c-0.15,0.06-0.29,0.13-0.44,0.17c-1.69,0.61-3.43,1.09-5.17,1.42c-3.26,0.65-6.61,0.84-10,0.59c-1.38-0.1-2.78-0.13-3.95-0.88
		v-0.02c-0.17-0.1-0.34-0.23-0.48-0.36c-3.83-1.13-7.72-2.03-11.17-4.1c-2.32-1.4-4.69-2.8-5.98-5.36c0.13-0.25,0.27-0.48,0.44-0.65
		c0.52-0.59,1.15-0.71,1.92,0.04c6.07,6.07,13.74,7.3,21.67,6.34c8.6-1.02,17.09-3.05,23.41-9.85c5.5-5.92,9.5-12.8,12.2-20.35
		c0.67-1.84,2.13-3.22,2.47-5.65c0.15,0.9,0.21,1.42,0.27,1.9c0.02,0.04,0.02,0.06,0.02,0.1C111.54,58.94,110.58,62.27,108.49,65.37
		z"/>
	<path class="st11" d="M107.09,49.8c-0.08,0.06-0.17,0.15-0.27,0.21c0.04,1.34-1.67,0.69-1.9,1.72c0.02,1.28-0.13,2.57-0.48,3.83
		c-0.59,2.2-1.8,4.2-3.81,5.56c-0.52,0.38-1.11,0.71-1.76,0.96c-0.02,0.02-0.04,0.02-0.04,0.02c-0.56,0.23-1.13,0.44-1.78,0.59
		c-3.28,0.67-6.55,1-9.89,0.29c-2.82-0.59-5.15-1.82-6.8-4.2c-0.13-0.27-0.25-0.54-0.36-0.82v-0.02c-0.06-0.13-0.1-0.25-0.15-0.38
		c-0.31-0.75-0.61-1.51-0.86-2.28c-1.07-3.43-1.36-3.56-4.39-2.01c-0.06,0-0.1,0-0.15-0.02c-0.06,0-0.1,0-0.17-0.02h-0.02
		c-0.29-0.06-0.52-0.21-0.71-0.4l-0.02-0.02c-0.04-0.02-0.04-0.04-0.06-0.06c-0.02,0-0.02-0.02-0.02-0.02
		c-0.04-0.04-0.06-0.08-0.1-0.13c-0.13-0.21-0.23-0.44-0.31-0.67c-1.57-4.6-2.36-5.08-7.51-4.66h-0.38c-0.5-0.02-1,0-1.51-0.02
		h-0.02c-0.4,0.02-0.75,0.04-1.15-0.02c-0.06-0.02-0.1-0.02-0.17-0.04h-0.02c-0.1-0.02-0.21-0.04-0.31-0.04
		c-1.84-0.33-3.72-0.44-5.61-0.23c-1.57,0.17-3.1,0.52-4.06,1.97c-0.17,0.4-0.29,0.77-0.36,1.15c0,0.02,0,0.02,0,0.02
		c-0.23,1.51,0.21,2.97,0.54,4.43c0,0,0,0,0,0.02c0.08,0.42,0.17,0.82,0.23,1.23c0.94,3.07,3.1,4.08,5.9,4.12h0.02
		c0.08,0.02,0.15,0.02,0.23,0.02c0.19,0,0.4-0.02,0.61-0.02c1.61,0.25,3.22,0.38,4.85,0.46c0.98,0.25,2.11-0.15,3.07,0.08
		c0,0.02,0.02,0,0.02,0c0.02,0,0.04,0.02,0.06,0.02c0.23,0.06,0.44,0.15,0.65,0.29l0.02,0.02c0.23,0.17,0.42,0.38,0.61,0.69v0.04
		c-0.02,0.02-0.02,0.02-0.02,0.04l-0.02,0.02v0.02c-0.61,1.55-2.15,1.38-3.31,1.57c-3.66,0.56-7.28,0.1-10.81-1.09
		c-0.8-0.25-1.44-0.69-1.92-1.3c-0.19-0.21-0.33-0.42-0.44-0.67c-0.08-0.08-0.13-0.15-0.15-0.23c0-0.02-0.02-0.02-0.02-0.02V59.8
		c-0.1-0.1-0.21-0.19-0.36-0.23c-1.86-3.12-1.97-7.09-4.94-9.77c-0.73-0.69-0.75-2.61-0.48-3.83c0.4-1.78,2.28-0.54,3.37-1.11
		c0.1-0.02,0.19-0.02,0.29-0.02c3.05-0.38,6.15,0.02,9.14-0.82c0.02,0,0.02,0,0.04,0c0.44-0.04,0.88-0.08,1.3-0.1
		c2.53-0.08,5.02,0.15,7.49,0.63c0.56,0.1,1.11,0.21,1.67,0.33c0.08,0.02,0.15,0.04,0.21,0.06c0.04,0,0.08,0,0.1,0.02
		c4.18,0.44,8.35,1.4,12.57,0.04c1.23-0.4,2.53-0.59,3.77-1.13c2.66-1.17,5.63-1.51,8.3-0.5c3.28,1.26,6.67,1.13,10.04,1.57
		c0.15-0.08,0.27-0.15,0.4-0.19c0.94-0.38,1.78-0.13,2.53,0.67c0.02,0.04,0.02,0.06,0.04,0.1c0.04,0.08,0.06,0.17,0.1,0.25
		C108.24,47.25,108.47,48.65,107.09,49.8z"/>
	<path class="st12" d="M111.23,49.99c-0.25,0.08-0.44,0.04-0.59-0.06c-0.17-0.1-0.27-0.29-0.29-0.5c-0.31-1.67-1.38-2.74-2.68-3.64
		c-0.13-0.08-0.27-0.17-0.4-0.25c-0.79-0.17-1.61-0.36-2.38-0.52c-0.1-0.02-0.19-0.04-0.29-0.06v-0.92
		c-0.19-0.23-0.4-0.46-0.54-0.69c-0.21-0.31-0.38-0.63-0.44-1c-1.05-5.33-2.72-10.5-4.31-15.71c-0.02-0.06-0.04-0.1-0.06-0.17v-0.02
		c-0.52-4,0.21-7.68,2.57-10.94c0.1-0.19,0.25-0.38,0.4-0.56c6.48,3.95,10.08,9.79,10.96,17.26
		C113.86,38.23,113.17,44.2,111.23,49.99z"/>
	<path class="st13" d="M136.33,147.45c-0.21,0.21-0.44,0.38-0.67,0.48c-0.56,0.29-1.21,0.38-1.88,0.38
		c-6.59,0.08-13.2,0.04-19.81,0.04c-0.36,0-0.73-0.06-1.07-0.19c-0.21-0.06-0.42-0.17-0.61-0.27c-0.17-1.28-0.44-2.57-0.46-3.85
		c-0.02-1.72,1.3-1.65,2.49-1.65c3.24,0,6.13-1.05,8.97-2.61c5.79-3.22,6.92-8.87,5.84-14.73c-0.4-2.2-0.86-4.41-1.88-6.44
		c-0.69-1.36-0.29-2.13,0.73-2.55c0.25-0.1,0.52-0.19,0.82-0.25C134.85,125.51,136.6,136.24,136.33,147.45z"/>
	<path class="st14" d="M38.01,145.92c-0.02,0-0.02,0.02-0.04,0.02c-1.23,0.71-1.57,2.13-2.41,3.03
		c-5.61,6.15-12.11,10.86-20.86,10.98c-4.73,0.06-8.14-2.87-9.43-7.49c-1.26-4.46-0.77-8.76,0.69-13.05
		c0.04,0.13,0.06,0.27,0.06,0.4c0.1,0.42,0.17,0.84,0.21,1.26c0.33,2.82,0.02,5.75,1.13,8.47c0.29,0.75,0.46,1.57,0.67,2.34
		c0.15,0.1,0.29,0.23,0.4,0.38c0.65,0.77,0.65,1.86,1,2.76c0.46,1.17,0.92,2.51,2.49,2.38c6.13-0.5,11.74-2.03,14.98-7.95
		c1.23-2.28,2.2-4.69,3.51-6.92c0.23-0.31,0.42-0.63,0.59-0.96v-0.02c0.65-1.28,0.82-2.68,0.79-4.18
		c-0.04-4.08-0.04-8.16-0.04-12.24c0-3.83,0.02-7.66,0.02-11.51c0-0.71-0.02-1.44,0.1-2.15v-0.02c0.06-0.29,0.15-0.59,0.27-0.88
		h0.02v-0.02c0.06-0.17,0.15-0.31,0.27-0.48c0-0.02,0.02-0.02,0.02-0.04c0.67-0.84,1.51-1.42,2.53-1.78
		c0.23,0.08,0.5,0.15,0.73,0.23c0.59,0.21,1,0.5,0.19,1.42c-0.96,1.13-0.84,2.45-0.92,3.77c-0.4,6.53,0.69,12.99,0.67,19.5
		c-0.02,3.45,1.38,6.9,2.18,10.35C38.01,144.31,38.47,145.09,38.01,145.92z"/>
	<path class="st15" d="M32.24,112.29c0.21,8.7-0.38,17.38-0.23,26.06c0.02,1.78-0.63,3.39-1.3,5c-1.9,3.97-3.49,8.1-6.99,11.11
		c-3.62,3.1-8.14,3.05-12.43,3.85c-0.19,0.04-0.38,0.02-0.54-0.02c-0.02,0-0.04,0-0.04-0.02c-0.13-0.04-0.25-0.1-0.36-0.17
		c-0.52-0.33-0.92-1-1.21-1.63c-0.65-1.36-0.88-2.84-1.07-4.33c-0.02-0.08-0.02-0.17-0.04-0.25c0.59-0.9,1.15-0.71,2.03-0.25
		c4.54,2.38,6.76,1.9,10.56-1.84c1.23-1.23,2.74-2.18,4.08-3.28c3.58-2.99,4.79-7.01,4.73-11.32c-0.15-9.98,0.75-19.91,1.15-29.85
		c0.06-1.92,0.25-3.85,0.65-5.79c0-0.08,0.02-0.17,0.04-0.25c0.08-0.46,0.19-0.92,0.31-1.38v11.44c0.08,0.29,0.17,0.56,0.25,0.84
		c0.15,0.1,0.25,0.23,0.33,0.36v0.02C32.47,111.09,32.22,111.74,32.24,112.29z"/>
	<path class="st16" d="M65.63,31.52c-0.17,0.21-0.36,0.36-0.56,0.44c-0.38,0.19-0.82,0.23-1.26,0.25c-5.52,0.15-9.56,2.57-11.9,7.68
		c-0.06,0.13-0.13,0.25-0.21,0.38c-0.29,0.61-0.67,1.19-1.11,1.74v0.02c-0.15,0.31-0.29,0.59-0.44,0.9
		c-0.15,0.31-0.29,0.65-0.44,0.96c-1.46-7.59-1.99-15.19,0.31-22.72c0.56-1.88,1.28-3.7,2.47-5.29c0.27,0.13,0.48,0.27,0.63,0.44
		c0.48,0.54,0.44,1.34,0.48,2.09c0.17,7.61,3.6,11.44,11.19,12.63C65.1,31.08,65.35,31.35,65.63,31.52z"/>
	<path class="st17" d="M137.38,161.49c-0.92,0.08-0.65-0.82-0.88-1.21c-0.02-0.02-0.04-0.06-0.06-0.08
		c-4.62-7.72-11.8-9.81-20.19-9.2c-1.21,0.08-2.3,0.04-3.37-0.54c-0.02-0.04-0.04-0.06-0.06-0.1c-0.15-0.29-0.29-0.56-0.44-0.86
		c0-0.02-0.02-0.02-0.02-0.04c-0.02-0.5-0.04-1.02-0.06-1.55c0.21-0.08,0.4-0.17,0.61-0.21c1.26-0.36,2.55-0.15,3.81-0.15
		c6.32-0.04,12.61-0.06,18.93-0.08h0.69C137.34,152.09,136.52,156.84,137.38,161.49z"/>
	<path class="st18" d="M112.59,65.93c-1.42,0.75-2.97,1.34-4.23-0.38c0.02-0.06,0.02-0.15,0.04-0.21c0.77-3.35,2.03-6.61,1.97-10.12
		c0.02-0.02,0.02-0.06,0.02-0.08c0.5-1.13,0.44-2.3,0.31-3.49c-0.08-0.21-0.17-0.38-0.17-0.54c0-0.15,0.04-0.27,0.19-0.33
		c0.1-0.04,0.25-0.08,0.48-0.06c0.08,0.59,0.46,0.86,1.02,0.84c2.13-0.08,3.14,1.42,3.93,2.99
		C117.96,58.04,116.08,64.05,112.59,65.93z"/>
	<path class="st19" d="M93.72,86.64c-0.02,0.52-0.06,1.05-0.1,1.59c-0.13,0.38-0.36,0.75-0.38,1.15c-0.08,0.98-0.15,1.72-0.25,2.26
		c-0.31,1.57-1,1.57-3.6,0.98C85,91.64,81.32,93.9,77.36,94.8c-3.97,0.9-7.89,0.31-11.82,0.17c-0.06,0-0.1-0.06-0.15-0.15
		c-0.1-0.17-0.21-0.48-0.31-0.67c0.02-0.46,0.02-0.9,0.04-1.36c0.13,0.02,0.25,0.02,0.38,0.04c6.05,0.63,12.03,0.75,17.95-1.11
		c3.49-1.09,6.55-2.89,9.64-4.71C93.3,86.89,93.51,86.77,93.72,86.64z"/>
	<path class="st20" d="M20.55,67.08c-0.08,0.02-0.17,0.04-0.27,0.06c-0.31,0.06-0.63,0.19-0.69,0.52c-0.52,2.47-1.67,2.28-3.05,1.36
		c-0.19-0.13-0.38-0.27-0.59-0.42c-1.63-3.6-1.88-7.47-2.03-11.34c-0.04-0.94,0.04-1.92,1.21-2.15c1.21-0.25,1.92,0.54,2.26,1.53
		c0.61,1.69,1.02,3.47,1.55,5.23C19.46,63.61,20,65.35,20.55,67.08z"/>
	<path class="st21" d="M101.56,100.05c-0.75-0.06-1.46,0.06-2.11,0.27c-0.98,0.31-1.88,0.82-2.82,1.23
		c-6.78,3.01-13.74,5.1-21.27,4.73c-2.34-0.13-4.58-0.54-6.71-1.53c0.23-0.17,0.48-0.29,0.73-0.38c1.07-0.38,2.15,0.04,3.28,0.29
		c5.92,1.32,11.57-0.04,16.8-2.61c2.15-1.05,4.69-1.67,6.42-3.47c0.17-0.13,0.27-0.25,0.4-0.4c1.51,0.67,2.93,1.55,4.58,1.8
		C101.08,100.03,101.31,100.05,101.56,100.05z"/>
	<path class="st20" d="M14.59,71.22c0.5,1.86,0.08,3.51-0.71,5.08c-0.15,0.27-0.29,0.54-0.44,0.82c-1.63-4.2-3.58-8.3-4.5-12.76
		c-0.1-0.54-0.17-1.21,0.48-1.55c0.61-0.36,1.13,0.1,1.61,0.38c1.53,0.94,1.9,2.68,2.72,4.1c0.63,1.09,1.17,2.2,1.78,3.31
		c-0.04,0.02-0.1,0.02-0.15,0.04C14.98,70.72,14.5,70.91,14.59,71.22z"/>
	<path class="st20" d="M24.94,64.65c0.36,1.19,0.86,2.64-0.54,3.64c-1.49,1.09-1.8-0.84-2.72-1.17c-0.1-0.04-0.19-0.06-0.29-0.06
		c0.13-4.43,1.28-8.79,1.19-13.26c-0.02-2.01,1.26-2.3,2.84-1.23c-0.19,0.13-0.54,0.27-0.54,0.38c0.02,0.19,0.04,0.38,0.06,0.56
		C25.28,57.21,23.77,60.93,24.94,64.65z"/>
	<path class="st22" d="M32.51,139.27c0,1.63-0.73,2.93-1.8,4.08c0.1-0.59,0.21-1.19,0.29-1.78v-0.02c0.29-1.78,0.5-3.56,0.5-5.38
		c0.02-3.68,0.15-7.36,0.25-11.05c0.15-4.54,0.27-9.1,0.13-13.66v-0.02c0-0.31-0.02-0.63-0.04-0.94v-0.31
		c0.21-0.04,0.42-0.1,0.61-0.17c0,0.02,0,0.02,0,0.04v0.48C32.47,120.13,32.49,129.69,32.51,139.27z"/>
	<path class="st23" d="M111.23,49.99c0,0.23-0.02,0.48-0.02,0.71c-0.08,0.17-0.19,0.36-0.27,0.52c-0.04,0.06-0.06,0.1-0.1,0.17
		c-0.04,0.08-0.08,0.17-0.13,0.25c-1.3-0.54-2.59-1.09-3.89-1.63c0.04-0.08,0.06-0.15,0.08-0.23c0.61-1.36,0.31-2.82,0.38-4.25h0.29
		c2.38-0.02,2.82,1.67,3.31,3.35C110.98,49.26,111.08,49.64,111.23,49.99z"/>
	<path class="st20" d="M38.6,68.09c-0.27,0.02-0.52,0-0.77-0.04c-0.52-0.1-1-0.31-1.55-0.56c-2.66-1.32-5.42-2.51-8.01,0.29
		c-0.17,0.17-0.48,0.21-0.84,0.23c-0.19,0.02-0.4,0.02-0.56,0.06C29.54,63.34,34.5,63.34,38.6,68.09z"/>
	<path class="st20" d="M26.17,66.64c0.02,0.02,0.02,0.04,0,0.04c-0.04,0.15-0.1,0.31-0.17,0.46c-0.08-0.71-0.17-1.42-0.25-2.15
		c-0.1-0.79-0.19-1.61-0.25-2.43c-0.04-0.56-0.17-1.21,0.23-1.63c0.15-0.15,0.36-0.27,0.67-0.33C26.34,62.6,26.82,64.65,26.17,66.64
		z"/>
	<path class="st20" d="M31.55,86.26c-4.58,3.58-10.33,2.03-12.68-3.28c-0.31-0.67-0.71-1.32-1.05-1.97c-0.98-1.92-0.31-4.1,1.61-5.1
		c3.39-1.76,6.84-2.72,10.17,0.04c0.75-1.19-0.08-2.47,0.92-3.31c0.04,1.34-0.27,2.72,0.48,3.97c-0.54,0.08-0.88,0.36-1.05,0.92
		c-0.46,1.65-1.65,2.18-3.24,2.13c-1.13-0.04-2.51,0.1-2.38,1.49c0.1,1.13,1.53,1.05,2.51,0.98c0.9-0.04,1.8-0.25,2.7-0.4
		c1.57-0.25,2.95,0.23,3.66,1.57C34.02,84.86,32.45,85.57,31.55,86.26z"/>
	<path class="st0" d="M36.93,74.65c-0.04,0.82-0.29,1.61-0.44,2.43c-1.88,0.52-3.74,0.84-5.46-0.44l-0.02-0.02
		c-0.75-1.26-0.44-2.64-0.48-3.97c0.73-1.02,1-2.43,2.68-2.61C36.01,69.74,37.16,71.06,36.93,74.65z"/>
	<path class="st24" d="M36.49,77.08c-1.92,1.11-3.79,1.51-5.46-0.44C32.74,77.92,34.6,77.6,36.49,77.08z"/>
	<path class="st20" d="M36.49,77.08c-1.51,1.78-4.37,1.55-5.46-0.44C32.74,77.92,34.6,77.6,36.49,77.08z"/>
	<path class="st25" d="M50.59,42.02c1.15-6.08,5.74-10.02,12.08-10.38c0.99-0.06,1.98-0.08,2.97-0.12c4.02,0.38,7.67-1.16,11.38-2.3
		c5.65-1.74,11.31-3.33,17.29-3.18c1.65,0.04,3.3,0.27,4.95,0.41c0.65,0.27,1.11,0.72,1.32,1.4c1.58,5.34,3.32,10.63,4.03,16.19
		c-3.32,0.05-2.56-3.05-3.36-4.71c-1.76-3.66-3.68-6.89-7.88-8.04c-0.4-0.11-0.81-0.29-1.21-0.28c-11.38,0.27-22.74,0.71-33.35,5.53
		C55.78,37.91,53.16,39.94,50.59,42.02z"/>
	<path class="st26" d="M80.59,58.07c3.4,4.72,8.35,4.68,13.39,4.34c1.07-0.07,2.13-0.22,3.2-0.33c0.37-0.26,0.83-0.31,1.2-0.21
		c0.96,0.24,2.05-1.64,2.53-0.33c0.46,1.23,0.83,3.08-0.98,4.12c-0.47,0.27-0.88,0.78-0.8,1.45c-3.48,3.79-7.68,4.65-12.06,2.4
		c-3.28-1.69-6.77-2.71-10.39-3.31c-0.24-1.78,1.62-2.04,2.34-3.15c0.81-1.25,2-2.25,0.58-3.82c-0.39-0.43-0.45-1.1,0.08-1.55
		C80.13,57.31,80.39,57.68,80.59,58.07z"/>
	<path class="st27" d="M80.59,58.07c-0.62-0.25-1.08-0.14-0.73,0.6c1.56,3.24,1.11,4.67-2.17,6.5c-0.46,0.26-0.82,0.54-1.01,1.03
		c-2.36,0.9-4.71,1.63-7.05-0.05c-0.66-0.45-0.86-1.14-0.22-1.59c1.55-1.09,0.47-2-0.05-2.98c-0.01-0.53,0.19-1.03,0.58-1.33
		c1.88-1.42,2.88-3.35,3.45-5.57c0.17-0.65,0.53-1.22,1.11-1.61c0.75-0.84,1.27-2.21,2.68-1.83c1.31,0.35,1.86,1.54,2.2,2.82
		C79.73,55.4,80.18,56.73,80.59,58.07z"/>
	<path class="st28" d="M62.55,72.17c0.86,0.11,1.71,0.22,2.57,0.33c0.18,1.02,1.11,1.18,1.84,1.44c3.76,1.38,7.59,1.2,11.44,0.42
		c0.75-0.15,1.26-0.45,0.82-1.33c1.54-1.06,3.57,0.75,5.01-0.86c0.37,2.81-1.99,6.69-4.71,7.75c-4.84-1.96-9.25-0.49-13.58,1.68
		C62.31,80.36,60.75,76,62.55,72.17z"/>
	<path class="st29" d="M69.62,61.39c1.86,1.04,3.25,2.09,0.19,3.44c-0.62,0.27-0.33,0.85-0.18,1.32c-4.62,0.32-8.81,2.06-13.01,3.8
		c-2.43,1.01-3.19,0.62-3.84-1.98c-0.67-2.67-0.82-5.4-0.7-8.15c5.26,3.23,10.83,3.4,16.6,1.73C68.95,61.26,69.27,61.24,69.62,61.39
		z"/>
	<path class="st30" d="M62.55,72.17c-0.29,3.59-0.21,7.04,3.49,9.1c0.8,0.13,1.61,0.02,2.43,0.24c3.99,1.1,7.62-0.05,11.11-1.93
		c2.67-1.77,3.5-4.69,4.66-7.41c1.79-0.58,2.35-0.29,1.64,1.76c-3.51,10.19-11.51,12.18-20.16,9.53c-4.27-1.31-6.56-6.57-5.14-10.88
		C61.04,71.12,61.85,72.12,62.55,72.17z"/>
	<path class="st31" d="M79.21,73.03c0.52,0.26,1.45-0.43,1.6,0.56c0.1,0.63-0.52,1.05-1.08,1.22c-4.69,1.42-9.36,1.21-13.97-0.32
		c-0.7-0.23-1.75-0.9-0.65-1.99C69.79,73.45,74.49,73.54,79.21,73.03z"/>
	<path class="st32" d="M99.13,67.1c-0.52-0.74-0.28-1.68,0.32-1.88c1.27-0.42,1.26-0.45,0.27-1.4c-0.83-0.79,1.91-0.7,0.73-2.12
		c-0.91,0.55-2.1,0.4-3.27,0.37c5.23-1.46,6.54-5.85,7.73-10.34c1.21,2.56,0.24,5.02-0.44,7.45
		C103.57,62.38,101.75,65.03,99.13,67.1z"/>
	<path class="st33" d="M69.91,44.99c-3.62-0.08-7.31,0.66-10.8-0.94c2.32-2.25,5.22-2.28,8.17-2.16c0.65,0.03,1.24,0.22,0.98,1.02
		C67.74,44.5,68.97,44.61,69.91,44.99z"/>
	<path class="st34" d="M94.25,46.66c1.48,0.06,2.84,0.7,4.47-0.21c1.49-0.83,3.95,1.18,4.02,3c0.06,1.41,0.07,2.86-0.16,4.24
		c-0.85,5.16-2.26,6.44-7.5,6.9c-2.13,0.19-4.28,0.72-6.43,0.05c0.05-0.11,0.1-0.22,0.14-0.33c1.11-0.88,1.41-2.17,1.78-3.45
		c0.45-1.57,0.61-3.28,1.95-4.47c1.14-0.68,2.2-0.08,3.4,0.22c-0.95-0.84-2.23-1.08-2.82-2.18C92.95,49.03,93.19,47.72,94.25,46.66z
		"/>
	<path class="st35" d="M62.66,46.7c0.3,0.01,0.61,0.01,0.91,0.02c0.69,0.65,1.38,0.21,2.07,0c1.39,0.31,2.61-0.93,4.08-0.31
		c2.76,1.16,3.86,3.26,3.83,6.11c0.35,4.33-2.73,8.66-7.14,8.34c-0.82-0.06-1.67-0.15-2.48,0.19c-1.58-0.34-3.25,0.08-4.78-0.59
		c-1.46-1.51-1.38-2.11,0.46-3.75c1.23-0.07,2.49,0.53,3.7-0.14c0.68-0.17,1.37-0.2,2.06-0.24c1.93,0.15,2.25-1.12,2.3-2.62
		c-0.58-3-1.09-3.48-3.49-3.3c-0.6,0.11-1.17,0.01-1.7-0.29c-0.2-0.13-0.37-0.29-0.52-0.48C61.68,48.54,61.08,47.36,62.66,46.7z"/>
	<path class="st36" d="M60.13,57.04c-1.46,0.81-1.81,1.95-0.98,3.42c-4.19,0.2-5.76-0.78-6.99-4.36c0.16-2.53-0.8-4.97-0.56-7.51
		c0.12-1.38,1.25-1.73,2.26-1.96c2.92-0.66,5.88-0.82,8.8,0.07c-0.87,0.72-0.12,1.79-0.56,2.6c-1.34,1.2-3.42,1.87-3.1,4.28
		C58.61,54.98,60.12,55.77,60.13,57.04z"/>
	<path class="st37" d="M86.13,60.19c-3.2-1.15-5.4-4.52-5.5-8.43c-0.07-2.67,1.06-4.2,3.97-5.36c2.17,0.34,4.37,0.07,6.54,0.41
		c0.74,1.01,0.36,2.04,0.05,3.07c-0.16,0.35-0.41,0.65-0.71,0.89c-0.71,0.55-1.73,0.6-2.38,1.46c0.51,0.62,1.7,0.17,1.95,1.16
		c-0.07,1.94-0.87,3.71-1.36,5.54C88.36,60.16,87.39,60.62,86.13,60.19z"/>
	<path class="st38" d="M63.93,61.05c0.48-0.1,0.96-0.28,1.44-0.3c3.89-0.18,6.29-2.21,7.39-5.89c0.23-0.79,0.52-1.56,0.79-2.33
		c0.32,0.18,0.64,0.36,0.96,0.55c-0.53,3.42-1.89,6.36-4.89,8.33c-0.32,0.05-0.63,0.11-0.95,0.16
		C67.17,60.63,65.49,61.37,63.93,61.05z"/>
	<path class="st39" d="M90.69,50c0.03-0.98-0.06-1.99,0.5-2.88c0.15-0.21,0.34-0.27,0.58-0.16c0.89,0.45,1.5-1.47,2.48-0.29
		c0.07,1.39-0.43,2.63-1.02,3.85c-0.09,0.09-0.17,0.17-0.26,0.26C92.03,51.02,91.25,50.83,90.69,50z"/>
	<path class="st40" d="M86.13,60.19c1.19,0.03,1.73-0.64,2.02-1.72c0.48-1.8,1.03-3.59,1.56-5.38c0.05-0.37,0.26-0.63,0.59-0.79
		c0.36-0.1,0.7-0.05,1.01,0.18c0.12,0.21,0.19,0.44,0.2,0.68c-0.75,2.48-0.71,5.25-2.6,7.33c-0.08,0.06-0.17,0.12-0.25,0.17
		C87.78,60.64,86.87,60.84,86.13,60.19z"/>
	<path class="st41" d="M91.77,46.96c-0.19,0.05-0.39,0.11-0.58,0.16c-2.2-0.16-4.56,1.04-6.59-0.71
		C87.02,46.13,89.51,45.12,91.77,46.96z"/>
	<path class="st42" d="M51.59,48.59c0.57,2.47,1.46,4.92,0.56,7.51C51.27,53.65,51.03,51.15,51.59,48.59z"/>
	<path class="st36" d="M65.63,46.71c-0.64,0.42-0.68,1.67-1.64,1.5c-0.6-0.1-0.24-0.99-0.43-1.5
		C64.25,46.46,64.94,46.51,65.63,46.71z"/>
	<path class="st43" d="M79.57,79.59c-2.93,3.51-9.19,4.29-13.53,1.68C69.25,78.03,76.47,77.13,79.57,79.59z"/>
	<path class="st27" d="M56.61,63.41c4.35,0,8.2,0,12.05,0c0.08,0.28,0.16,0.55,0.23,0.83c-3.01-1.28-4.01,1.6-6.09,2.37
		c-1.6,0.6-2.67,0.38-3.45-0.75C58.7,64.91,58.01,64.1,56.61,63.41z"/>
	<path class="st44" d="M88.9,60.49c0.78-2.6,1.56-5.21,2.34-7.81c0.3-0.54,0.76-0.54,1.27-0.38c0.09,0.08,0.19,0.16,0.28,0.24
		c-0.7,2.12-1.39,4.25-2.1,6.37C90.4,59.76,90.2,60.76,88.9,60.49z"/>
	<path class="st45" d="M93.22,50.51c1.91,0.44,3.41,1.4,4.44,3.53c-1.93-0.25-3.18-1.67-4.87-1.5c0,0,0.02-0.06,0.02-0.06
		c-0.82-0.85-0.37-1.42,0.42-1.92L93.22,50.51z"/>
	<path class="st46" d="M60.13,57.04c-1.23-0.89-2.63-1.7-1.59-3.59c0.22-2.68,2.24-3.33,4.36-3.87c0.26,0.49,0.66,0.55,1.14,0.39
		c0.35,0.23,0.4,0.55,0.32,0.93c-0.29,0.15-0.51,0.84-0.47,1.16c0.25,1.77-0.64,3.38-0.77,5.1C62.09,57.95,61.09,58,60.13,57.04z"/>
	<path class="st47" d="M63.12,57.16c-0.45-0.33-1.34-0.9-0.93-1.2c1.5-1.11,0.45-2.75,1.29-4.04c-0.91,0.22-0.55,1.43-1.59,1.33
		c-0.03-0.04-0.19-0.15-0.2-0.27c-0.03-1.62,1.2-1.74,2.35-1.96c1.35-0.78,2.32-0.29,3.07,0.93c0.34,1.95,0.93,3.99-1.54,5.09
		C64.75,57.09,63.93,57.12,63.12,57.16z"/>
	<path class="st48" d="M66.66,52.11c-0.67-0.87-1.62-1.05-2.63-1.08c0.02-0.35,0.64-0.7,0-1.05c0.43-0.95,1.07-1.2,1.94-0.55
		c1.41,1.05,2.6,2.23,2.3,4.21C66.94,53.96,67.24,52.57,66.66,52.11z"/>
	<path class="st49" d="M66.66,52.11c0.94,0.07,0.84,1.26,1.61,1.52c0.46,2.21-0.44,3.36-2.7,3.42
		C67.12,55.66,66.8,53.87,66.66,52.11z"/>
	<path class="st50" d="M62.89,49.58c-1.34,1.41-3.69,1.69-4.36,3.87c-0.33-2.39,1.08-4.03,3.56-4.16
		C62.36,49.39,62.62,49.49,62.89,49.58z"/>
	<path class="st51" d="M90.26,52.67c-0.19,0.14-0.38,0.28-0.57,0.43c-0.95-0.54-2.53,1.46-2.91-0.38c-0.31-1.49,1.52-1.64,2.61-2.11
		c0.22-0.1,0.49-0.09,0.73-0.13c0.09,0.07,0.18,0.14,0.28,0.2C90.82,51.38,90.4,52.01,90.26,52.67z"/>
	<path class="st52" d="M93.22,50.56c-0.37,0.59-0.56,1.22-0.42,1.92c-0.52,0.07-1.05,0.13-1.57,0.2c0,0-0.06-0.22-0.06-0.22
		c-0.36-0.57-0.21-1.39-0.88-1.82c0,0-0.17-0.16-0.17-0.16c0.18-0.16,0.37-0.32,0.55-0.48C91.53,50.19,92.38,50.37,93.22,50.56z"/>
	<path class="st53" d="M90.3,50.64c2.3-0.36,1.24,0.9,0.88,1.82c-0.31,0.07-0.61,0.14-0.92,0.21C89.35,51.97,90.34,51.32,90.3,50.64
		z"/>
</g>
<line class="st0" x1="267.6" y1="145.99" x2="257.53" y2="139.39"/>
</svg>
