<?xml version="1.0" encoding="utf-8"?>
<!-- Generator: Adobe Illustrator 26.0.0, SVG Export Plug-In . SVG Version: 6.00 Build 0)  -->
<svg version="1.1" id="Capa_1" xmlns="http://www.w3.org/2000/svg" xmlns:xlink="http://www.w3.org/1999/xlink" x="0px" y="0px"
	 viewBox="0 0 543.74 542.29" style="enable-background:new 0 0 543.74 542.29;" xml:space="preserve">
<style type="text/css">
	.st0{fill:#0172BD;}
	.st1{fill:#FEFEFE;}
	.st2{fill:#F1F1F1;}
	.st3{fill:#2B6586;}
	.st4{fill:#156E8E;}
	.st5{fill:none;}
	.st6{fill:#2D697A;}
</style>
<g>
	<path class="st0" d="M527.77,249.15v43.98c-0.31,0.03-0.62,0.06-0.92,0.09c0,0.01-0.01,0.03-0.01,0.04v-0.04
		c-2.16,3.16-0.66,6.7-1.04,10.05c0.03,8.27-2.28,16.14-3.93,24.16c-5.9,28.58-17.1,54.95-32.49,79.65
		c-13.87,22.25-31.04,41.57-50.78,58.8c-14.9,13-31.16,23.91-48.57,33.07c-15.91,8.37-32.62,14.95-50.03,19.54
		c-11.85,3.12-23.78,5.97-36.09,6.66c-3.25,0.25-6.64-1.07-9.73,0.9c-0.11,0.33-0.21,0.66-0.32,0.99h-43.98
		c-0.12-0.33-0.25-0.66-0.37-1c-3.08-1.89-6.44-0.7-9.67-0.87c-4.96-0.01-9.74-1.25-14.6-2.01c-23.07-3.63-44.9-11.14-65.78-21.29
		c-34.48-16.78-63.5-40.48-87.67-70.29c-19.58-24.15-34.06-50.98-43.74-80.42c-3.24-9.85-5.53-20.03-8.26-30.05
		c0.48-3.54-0.48-6.79-1.78-10c-0.06-6.06-0.7-12.06-2.04-17.98v-43.98c2.05-3.1,0.59-6.55,0.96-9.81
		c2.07-8.01,3.05-16.22,4.75-24.31c6.16-29.29,17.7-56.25,33.52-81.49c14.49-23.1,32.68-43.06,53.51-60.48
		c20.58-17.22,43.52-30.84,68.6-40.52c20.15-7.79,40.83-13.78,62.53-15.44c3.24-0.16,6.59,1.03,9.67-0.86
		c0.12-0.33,0.25-0.67,0.37-1h43.98c0.11,0.33,0.22,0.66,0.32,0.99c3.09,1.94,6.47,0.68,9.71,0.89c2.49,0.1,5.06-0.19,7.45,0.36
		c10.94,2.53,22,4.44,32.83,7.59c22.42,6.52,43.46,15.92,63.23,28.23c22.39,13.93,41.89,31.2,59.21,51.08
		c12.98,14.91,23.88,31.16,33.05,48.56c8.45,16.04,15.16,32.88,19.66,50.45c2.99,11.68,6.27,23.38,6.46,35.6
		c0.52,0.71,0.83,1.45,1,2.2c0,0.01,0,0.01,0,0.01c-0.01,1.65-0.06,3.29,0.02,4.94c0,0,0,0,0,0.01c0.03,0.6,0.08,1.19,0.16,1.79
		C527.17,248.38,527.43,248.79,527.77,249.15z"/>
	<path class="st1" d="M527.77,249.15c-0.32-0.1-0.65-0.19-0.98-0.29c-1.42-3.18,0.37-6.69-1.01-9.87c0.52,0.71,0.83,1.45,1,2.2
		c0,0.01,0,0.01,0,0.01c0.38,1.61,0.15,3.28,0.02,4.94c0,0,0,0,0,0.01c0.03,0.6,0.08,1.19,0.16,1.79
		C527.17,248.38,527.43,248.79,527.77,249.15z"/>
	<path class="st2" d="M424.84,396.69c-9.13,0.98-18.29,0.29-27.43,0.41c-9.83,0.13-19.66-0.15-29.48,0.11
		c-3.63,0.09-4.33-1.11-4.31-4.5c0.13-30.31,0.09-60.63,0.08-90.94c0-8.01-0.67-15.94-2.97-23.68c-7.41-25-36.21-25.56-50-12.51
		c-6.78,6.42-10.95,14.11-11.21,23.67c-0.88,31.81-0.18,63.62-0.37,95.42c-0.07,12.45,0.02,12.45-12.37,12.45
		c-14.82,0-29.65-0.11-44.47,0.08c-3.54,0.04-4.4-1.02-4.39-4.5c0.11-58.29,0.11-116.59-0.01-174.88c-0.01-3.65,0.78-4.8,4.63-4.75
		c17.32,0.22,34.64,0.22,51.96,0c3.88-0.05,4.8,1.2,4.64,4.84c-0.28,6.43-0.08,12.89-0.08,19c1.37,0.85,1.76,0.15,2.09-0.34
		c16.6-24.27,40.27-30.81,67.81-26.22c27.51,4.59,47.21,25.15,52.9,53.59c1.44,7.21,1.89,14.5,2.91,21.73
		c0.89,1.19,0.53,2.57,0.53,3.86c0.02,34.42,0.02,68.83,0,103.25C425.3,394.1,425.61,395.47,424.84,396.69z"/>
	<path class="st2" d="M142.9,213.58c15.45-0.85,30.91-0.15,46.37-0.37c3.66-0.05,7.33,0.19,10.97-0.08c3.21-0.24,3.85,1.1,3.85,4.01
		c-0.07,58.72-0.05,117.44-0.03,176.15c0,2.06,0.25,3.89-2.91,3.87c-18.96-0.14-37.92-0.11-56.88-0.16c-0.47,0-0.93-0.31-1.4-0.47
		c-0.8-1.58-0.43-3.27-0.43-4.91c-0.02-57.72-0.02-115.43,0-173.15C142.44,216.84,142.03,215.14,142.9,213.58z"/>
	<path class="st2" d="M173.69,124.77c21.4-0.23,35.5,13.96,34.08,34.97c-0.76,11.27-6.78,19.5-17.01,24.51
		c-15.34,7.51-34.76,4.02-44.53-8.35c-7.82-9.89-8.7-21.14-3.98-32.43c4.61-11.02,13.87-16.54,25.48-18.26
		C169.69,124.9,171.7,124.9,173.69,124.77z"/>
	<path class="st3" d="M142.9,213.58c0.05,18.78,0.13,37.55,0.14,56.33c0.02,40.55,0.01,81.11,0,121.66c0,1.66-0.11,3.31-0.17,4.96
		c-1.48-1.52-0.97-3.45-0.97-5.22c-0.01-57.35-0.01-114.69,0.03-172.04C141.93,217.36,141.28,215.26,142.9,213.58z"/>
	<path class="st4" d="M424.84,396.69c-0.02-37.01-0.05-74.01-0.07-111.01c1.45,1.32,1.02,3.08,1.02,4.69
		c0.03,33.87,0.03,67.73,0,101.6C425.79,393.58,426.17,395.32,424.84,396.69z"/>
	<path class="st5" d="M249.88,15.24c-0.12,0.33-0.25,0.67-0.37,1c-3.08,1.89-6.43,0.7-9.67,0.86c-21.7,1.66-42.38,7.65-62.53,15.44
		c-25.08,9.68-48.02,23.3-68.6,40.52c-20.83,17.42-39.02,37.38-53.51,60.48c-15.82,25.24-27.36,52.2-33.52,81.49
		c-1.7,8.09-2.68,16.3-4.75,24.31c-0.37,3.26,1.09,6.71-0.96,9.81v-10c0-73.22,0.03-146.45-0.1-219.67
		c-0.01-3.62,0.76-4.35,4.35-4.34C96.77,15.27,173.33,15.24,249.88,15.24z"/>
	<path class="st5" d="M527.77,249.15c-0.34-0.36-0.6-0.77-0.81-1.21c-0.08-0.6-0.13-1.19-0.16-1.79c0-0.01,0-0.01,0-0.01
		c0.13-1.66,0.36-3.33-0.02-4.94c0,0,0,0,0-0.01c-0.17-0.75-0.48-1.49-1-2.2c-0.19-12.22-3.47-23.92-6.46-35.6
		c-4.5-17.57-11.21-34.41-19.66-50.45c-9.17-17.4-20.07-33.65-33.05-48.56C449.29,84.5,429.79,67.23,407.4,53.3
		c-19.77-12.31-40.81-21.71-63.23-28.23c-10.83-3.15-21.89-5.06-32.83-7.59c-2.39-0.55-4.96-0.26-7.45-0.36
		c-3.24-0.21-6.62,1.05-9.71-0.89c-0.1-0.33-0.21-0.66-0.32-0.99c76.64,0,153.28,0.03,229.92-0.1c3.42,0,4.1,0.67,4.09,4.1
		C527.74,95.87,527.77,172.51,527.77,249.15z"/>
	<path class="st6" d="M526.8,246.14c0,0,0,0,0,0.01c-0.07,0.91-0.12,1.82-0.01,2.71c-2.17-3.11-0.54-6.59-1.01-9.87
		c0.52,0.71,0.83,1.45,1,2.2c0,0.01,0,0.01,0,0.01C527.16,242.81,526.93,244.48,526.8,246.14z"/>
	<path class="st5" d="M527.87,523.05c0.01,3.42-0.67,4.1-4.09,4.09c-76.64-0.13-153.28-0.1-229.92-0.1
		c0.11-0.33,0.21-0.66,0.32-0.99c3.09-1.97,6.48-0.65,9.73-0.9c12.31-0.69,24.24-3.54,36.09-6.66
		c17.41-4.59,34.12-11.17,50.03-19.54c17.41-9.16,33.67-20.07,48.57-33.07c19.74-17.23,36.91-36.55,50.78-58.8
		c15.39-24.7,26.59-51.07,32.49-79.65c1.65-8.02,3.96-15.89,3.93-24.16c0.38-3.35-1.12-6.89,1.04-10.05v0.04
		c0-0.01,0.01-0.03,0.01-0.04c0.3-0.03,0.61-0.06,0.92-0.09v10C527.77,376.43,527.74,449.74,527.87,523.05z"/>
	<path class="st5" d="M249.88,527.04c-76.64,0-153.27-0.03-229.91,0.1c-3.42,0.01-4.1-0.67-4.1-4.09
		c0.13-70.98,0.1-141.95,0.1-212.92v-17c1.34,5.92,1.98,11.92,2.04,17.98c1.3,3.21,2.26,6.46,1.78,10
		c2.73,10.02,5.02,20.2,8.26,30.05c9.68,29.44,24.16,56.27,43.74,80.42c24.17,29.81,53.19,53.51,87.67,70.29
		c20.88,10.15,42.71,17.66,65.78,21.29c4.86,0.76,9.64,2,14.6,2.01c3.23,0.17,6.59-1.02,9.67,0.87
		C249.63,526.38,249.76,526.71,249.88,527.04z"/>
</g>
</svg>
