<?xml version="1.0" encoding="utf-8"?>
<!-- Generator: Adobe Illustrator 26.0.0, SVG Export Plug-In . SVG Version: 6.00 Build 0)  -->
<svg version="1.1" id="Capa_1" xmlns="http://www.w3.org/2000/svg" xmlns:xlink="http://www.w3.org/1999/xlink" x="0px" y="0px"
	 viewBox="0 0 93.92 85.01" style="enable-background:new 0 0 93.92 85.01;" xml:space="preserve">
<style type="text/css">
	.st0{opacity:0.85;}
	.st1{fill:url(#SVGID_1_);}
	.st2{fill:#FFFFFF;}
	.st3{fill:url(#SVGID_00000054232263196953418800000008645931707723564429_);}
	.st4{fill:url(#SVGID_00000087410602007466149340000010831944368946991535_);}
	.st5{fill:url(#SVGID_00000038401577264975340090000015987155371834642101_);}
	.st6{fill:url(#SVGID_00000069363509089615036160000011803412962043097782_);}
</style>
<g class="st0">
	<g>
		<g id="XMLID_00000139283631669923832970000005169479208117583028_">
			<g>
				<g>
					
						<radialGradient id="SVGID_1_" cx="70.7903" cy="23.1107" r="21.966" gradientTransform="matrix(1 0 0 -1 0 84.7116)" gradientUnits="userSpaceOnUse">
						<stop  offset="0" style="stop-color:#FFFFFF"/>
						<stop  offset="1" style="stop-color:#000000"/>
					</radialGradient>
					<path class="st1" d="M92.94,50.91c0,3-1.6,5-4.6,5c-5.2,0-5.2-7.1-8.2-7.1c-2.3,0-2.1,3.2-2.1,3.7v18.4c0,7.1,5.5,3.7,5.5,7.9
						c0,1.9-1.1,4.5-12.4,4.5c-3.1,0-14.3,0.1-14.3-4.5c0-3.2,3.7-1.9,4.9-4.2c0.6-1.3,0.8-4.9,0.9-6.4l0.5-13.2
						c0.2-6.3-1-6.2-1.9-6.2c-2.7,0-4,7.1-8.9,7.1c-2.3,0-3.7-2.2-3.7-4.3c0-1.9,0.6-4,1.5-5.8c1.8,1,4.1,1.7,6.7,1.7
						c4.3,0,10.3-2.4,11.2-6.7h10.5c2.6,0,3.8-0.2,4.7-0.4c0.8-0.2,1.3-0.4,2.5-0.4C88.04,39.81,92.94,44.41,92.94,50.91z"/>
					<path class="st2" d="M70.71,83.81c-1.78,0-5.15-0.02-8.16-0.57c-4.12-0.74-6.21-2.24-6.21-4.43c0-2.17,1.53-2.66,2.76-3.05
						c0.91-0.29,1.76-0.56,2.19-1.38c0.51-1.11,0.72-4.35,0.83-5.9l0.02-0.3l0.5-13.19c0.12-3.84-0.3-5.11-0.67-5.5
						c-0.17-0.18-0.35-0.18-0.68-0.18c-0.93,0-1.75,1.18-2.71,2.55c-1.41,2.03-3.16,4.55-6.24,4.55c-2.63,0-4.2-2.44-4.2-4.8
						c0-1.88,0.55-4.02,1.55-6.02l0.23-0.47l0.46,0.25c1.34,0.75,3.56,1.64,6.46,1.64c3.94,0,9.85-2.19,10.71-6.3l0.08-0.4h10.91
						c2.5,0,3.69-0.19,4.59-0.39l0.37-0.1c0.61-0.16,1.18-0.31,2.24-0.31c0.98-0.09,2.27,0.54,3.55,1.71
						c0.97,0.89,4.15,4.23,4.15,9.69c0,3.39-1.95,5.5-5.1,5.5c-3.25,0-4.65-2.51-5.77-4.53c-0.77-1.38-1.43-2.57-2.43-2.57
						c-0.4,0-0.71,0.12-0.95,0.36c-0.46,0.47-0.68,1.38-0.66,2.71l0,0.12v18.4c0,3.67,1.5,4.23,2.96,4.78
						c1.19,0.45,2.54,0.95,2.54,3.12c0,2.33-1.47,5-12.9,5h-0.19C70.87,83.81,70.79,83.81,70.71,83.81z M61.29,48.31
						c0.41,0,0.94,0.02,1.4,0.49c0.52,0.54,1.1,1.73,0.96,6.23l-0.52,13.51c-0.11,1.74-0.32,4.97-0.93,6.28
						c-0.63,1.21-1.78,1.57-2.79,1.89c-1.36,0.43-2.07,0.72-2.07,2.1c0,1.64,1.81,2.8,5.39,3.45c3.06,0.55,6.56,0.55,8.22,0.55h0.2
						c11.9,0,11.9-2.91,11.9-4c0-1.48-0.75-1.76-1.89-2.19c-1.61-0.6-3.61-1.35-3.61-5.71l0-18.51c-0.01-0.6-0.04-2.43,0.94-3.43
						c0.43-0.44,0.99-0.66,1.66-0.66c1.59,0,2.42,1.5,3.3,3.08c1.1,1.97,2.23,4.02,4.9,4.02c2.61,0,4.1-1.64,4.1-4.5
						c0-4.02-1.98-7.26-3.83-8.96c-1.04-0.95-2.12-1.5-2.83-1.45c-0.97,0-1.43,0.13-2.02,0.28l-0.4,0.1
						c-0.97,0.22-2.22,0.41-4.82,0.41H68.43c-1.28,4.57-7.59,6.7-11.59,6.7c-2.8,0-5-0.77-6.47-1.51c-0.78,1.71-1.23,3.55-1.23,5.11
						c0,1.87,1.2,3.8,3.2,3.8c2.55,0,4.07-2.19,5.41-4.12C58.88,49.67,59.86,48.29,61.29,48.31z"/>
				</g>
				<g>
					
						<radialGradient id="SVGID_00000104704964311649553370000004029330794957314197_" cx="56.5253" cy="49.7708" r="9.4575" gradientTransform="matrix(1 0 0 -1 0 84.7116)" gradientUnits="userSpaceOnUse">
						<stop  offset="0" style="stop-color:#FFFFFF"/>
						<stop  offset="1" style="stop-color:#000000"/>
					</radialGradient>
					<path style="fill:url(#SVGID_00000104704964311649553370000004029330794957314197_);" d="M65.94,32.91c0,2.4-1.1,2.7-2.2,2.7
						h-7.8c-0.4,0-1-0.1-1,0.5c0,0.3,0.1,0.6,0.2,0.9c0.6,1.4,2.4,2.5,3.8,2.5c2.7,0,4-1.6,4.8-1.6s1.4,1.1,1.4,1.8
						c0,0.4-0.1,0.7-0.2,1.1c-1.1,2.2-5.2,3.7-8.1,3.7c-2,0-3.7-0.5-5.1-1.2c-0.9-0.5-1.7-1.1-2.4-1.9c-1.5-1.7-2.2-3.8-2.3-5.9l0,0
						c0-0.1,0-0.2,0-0.3c0-1.2,0.2-2.3,0.6-3.3c1.4-3.8,5.3-6.2,9.5-6.2C63.34,25.51,65.94,30.21,65.94,32.91z M59.04,31.11
						c0-1.3-0.8-2.3-2.1-2.3c-1.2,0-2.2,1.2-2.2,2.4c0,1.3,1.2,1,2.2,1C57.94,32.11,59.04,32.41,59.04,31.11z"/>
					<path class="st2" d="M56.84,45.01c-1.87,0-3.66-0.42-5.32-1.25c-1.04-0.58-1.86-1.23-2.55-2.02c-1.47-1.67-2.31-3.81-2.42-6.21
						l0-0.32c0-1.26,0.21-2.43,0.64-3.49c1.43-3.89,5.44-6.51,9.96-6.51c3.46-0.12,5.65,1.27,6.86,2.44
						c1.8,1.74,2.44,3.92,2.44,5.26c0,2.87-1.54,3.2-2.7,3.2l-7.97,0c-0.11,0-0.32-0.01-0.38,0.02c0.05,0.2,0.13,0.45,0.22,0.72
						c0.48,1.12,2.07,2.17,3.33,2.17c1.61,0,2.69-0.62,3.48-1.08c0.51-0.29,0.91-0.52,1.32-0.52c1.14,0,1.9,1.38,1.9,2.3
						c0,0.4-0.08,0.71-0.17,1.03l-0.09,0.29C64.2,43.41,60.01,45.01,56.84,45.01z M57.52,26.2c-0.12,0-0.24,0-0.36,0.01
						c-4.12,0-7.75,2.36-9.05,5.87c-0.38,0.95-0.57,2-0.57,3.13v0.3c0.1,2.14,0.85,4.07,2.18,5.57c0.62,0.71,1.34,1.28,2.27,1.79
						c1.5,0.75,3.14,1.14,4.86,1.14c2.78,0,6.61-1.44,7.63-3.38l0.04-0.14c0.08-0.3,0.13-0.51,0.13-0.78c0-0.53-0.47-1.3-0.9-1.3
						c-0.15,0-0.49,0.2-0.82,0.39c-0.83,0.48-2.1,1.21-3.98,1.21c-1.66,0-3.61-1.28-4.26-2.8c-0.12-0.36-0.24-0.72-0.24-1.1
						c0-0.37,0.15-0.59,0.28-0.72c0.32-0.31,0.76-0.29,1.08-0.29l0.14,0h7.8c0.93,0,1.7-0.17,1.7-2.2c0-1.14-0.56-3.01-2.13-4.54
						C62.28,27.37,60.44,26.2,57.52,26.2z M55.99,32.74c-0.49,0-0.98-0.07-1.33-0.4c-0.28-0.26-0.41-0.64-0.41-1.13
						c0-1.54,1.26-2.9,2.7-2.9c1.53,0,2.6,1.15,2.6,2.8c0,1.53-1.25,1.56-1.99,1.57c-0.18,0-0.37,0.01-0.56,0.03
						c-0.2,0-0.36,0.01-0.51,0.02C56.32,32.73,56.15,32.74,55.99,32.74z M56.94,29.31c-0.87,0-1.7,0.92-1.7,1.9
						c0,0.14,0.02,0.32,0.1,0.4c0.16,0.16,0.68,0.13,1.09,0.11c0.17-0.01,0.34-0.02,0.51-0.02c0.16-0.02,0.38-0.02,0.59-0.03
						c0.95-0.02,1.01-0.09,1.01-0.57C58.54,30.02,57.91,29.31,56.94,29.31z"/>
				</g>
				<g>
					
						<radialGradient id="SVGID_00000168807482990724526380000016056185765308422785_" cx="46.0503" cy="10.9508" r="7.9883" gradientTransform="matrix(1 0 0 -1 0 84.7116)" gradientUnits="userSpaceOnUse">
						<stop  offset="0" style="stop-color:#FFFFFF"/>
						<stop  offset="1" style="stop-color:#000000"/>
					</radialGradient>
					<path style="fill:url(#SVGID_00000168807482990724526380000016056185765308422785_);" d="M50.34,76.11c0,4.2,2.1,2.7,2.1,4.6
						c0,2.4-4.6,2.4-6.2,2.4c-6.2,0-6.4-1.4-6.4-2.3c0-1.3,1.5-1.4,1.9-2.5c0.5-1.3,0.5-6.5,0.2-7.8s-2.2-0.9-2.2-2.5
						c0-2.6,9.1-3.6,9.5-3.6c1.1,0,1.1,0.8,1.1,1.6C50.34,66.01,50.34,76.11,50.34,76.11z"/>
					<path class="st2" d="M46.24,83.61c-6.06,0-6.9-1.35-6.9-2.8c0-0.98,0.64-1.46,1.16-1.84c0.35-0.26,0.65-0.49,0.77-0.83
						c0.47-1.21,0.47-6.27,0.18-7.52c-0.08-0.35-0.35-0.5-0.82-0.74c-0.59-0.3-1.39-0.7-1.39-1.87c0-3.28,9.9-4.1,10-4.1
						c1.6,0,1.6,1.37,1.6,2.1v10.1c0,2.24,0.6,2.61,1.12,2.94c0.44,0.27,0.98,0.62,0.98,1.66C52.94,83.61,48.07,83.61,46.24,83.61z
						 M49.24,64.91c-1.41,0.04-9,1.26-9,3.1c0,0.53,0.27,0.7,0.84,0.98c0.52,0.26,1.16,0.58,1.35,1.41c0.32,1.4,0.31,6.71-0.22,8.09
						c-0.22,0.62-0.7,0.97-1.11,1.28c-0.5,0.37-0.75,0.58-0.75,1.04c0,0.54,0,1.8,5.9,1.8c3.78,0,5.7-0.64,5.7-1.9
						c0-0.49-0.14-0.58-0.51-0.81c-0.84-0.53-1.59-1.22-1.59-3.79v-10.1C49.84,65.04,49.77,64.91,49.24,64.91z"/>
				</g>
				<g>
					
						<radialGradient id="SVGID_00000180327638553725111190000001197693060455571110_" cx="45.0903" cy="24.3258" r="4.1038" gradientTransform="matrix(1 0 0 -1 0 84.7116)" gradientUnits="userSpaceOnUse">
						<stop  offset="0" style="stop-color:#FFFFFF"/>
						<stop  offset="1" style="stop-color:#000000"/>
					</radialGradient>
					<path style="fill:url(#SVGID_00000180327638553725111190000001197693060455571110_);" d="M46.64,57.51c1.4,0,3.5,0.5,3.5,2.3
						c0,2.8-4.9,3.5-7,3.5c-1.5,0-3.1-0.7-3.1-2.5C40.04,58.41,44.84,57.51,46.64,57.51z"/>
					<path class="st2" d="M43.14,63.81c-1.79,0-3.6-0.93-3.6-3c0-2.9,5.2-3.8,7.1-3.8c1.85,0,4,0.73,4,2.8
						C50.64,63.09,45.23,63.81,43.14,63.81z M46.64,58.01c-1.68,0-6.1,0.86-6.1,2.8c0,1.9,2.17,2,2.6,2c2.12,0,6.5-0.73,6.5-3
						C49.64,58.06,46.95,58.01,46.64,58.01z"/>
				</g>
				<g>
					
						<radialGradient id="SVGID_00000016041734364877358750000004348359076996641185_" cx="22.9203" cy="61.9008" r="21.5909" gradientTransform="matrix(1 0 0 -1 0 84.7116)" gradientUnits="userSpaceOnUse">
						<stop  offset="0" style="stop-color:#FFFFFF"/>
						<stop  offset="1" style="stop-color:#000000"/>
					</radialGradient>
					<path style="fill:url(#SVGID_00000016041734364877358750000004348359076996641185_);" d="M37.94,21.61c2.5,1,6.7,4.1,6.7,9.2
						c0,6-4,13.4-16.1,13.4c-2,0-3.9-0.1-5.7-0.2c-1.8-0.1-3.6-0.1-5.5-0.1c-2,0-4.1,0.1-6.2,0.1c-2,0.1-4.1,0.2-6.2,0.2
						c-1.9,0-4-1.1-4-3.2c0-3.7,3.9,0.1,4.3-9.9l0.7-17.3c0.4-9.1-4.8-4.9-4.8-9.1c0.1-2.2,2.6-3.3,4.4-3.3c2.2,0,4.4,0.1,6.7,0.2
						c2.2,0.1,4.4,0.2,6.7,0.2c1.4,0,2.8-0.1,4.2-0.2c1.3-0.1,2.8-0.2,4.2-0.2c10.9,0,13.8,5.2,13.8,9.8c0,2.8-1.1,5.7-3.3,7.4
						c-0.5,0.5-1.1,0.8-1.1,1.6C36.74,21.11,37.34,21.31,37.94,21.61z M23.34,37.81c3.4,0,4.6-2.3,4.6-5.5c0-3.7-1.1-6.9-5.3-6.9
						c-1.9,0-2.3,1-2.3,2.2v3C20.34,37.61,21.44,37.81,23.34,37.81z M26.54,13.71c0-2.7-0.9-6.1-4.2-6.1c-2.2,0-2,1.8-2,3.5v4.9
						c0,2.3-0.1,3.5,1.7,3.5C25.64,19.51,26.54,17.01,26.54,13.71z"/>
					<path class="st2" d="M28.54,44.71c-1.94,0-3.74-0.09-5.73-0.2c-2.71-0.15-5.5-0.12-8.48-0.05c-1.05,0.03-2.12,0.05-3.19,0.05
						c-2.18,0.11-4.17,0.2-6.2,0.2c-2.18,0-4.5-1.3-4.5-3.7c0-1.7,0.78-2.15,1.54-2.58c1.06-0.6,2.52-1.43,2.76-7.34l0.7-17.3
						c0.22-5.08-1.31-5.68-2.66-6.21c-1-0.39-2.14-0.84-2.14-2.87c0.12-2.6,2.99-3.8,4.9-3.8c2.12,0,4.21,0.09,6.43,0.19l0.29,0.01
						c2.15,0.1,4.38,0.2,6.68,0.2c1.39,0,2.8-0.1,4.16-0.2c1.29-0.1,2.81-0.2,4.24-0.2c12.91,0,14.3,7.2,14.3,10.3
						c0,3.19-1.31,6.1-3.49,7.8c-0.07,0.08-0.19,0.18-0.31,0.29c-0.4,0.35-0.59,0.54-0.59,0.92c0,0.48,0.19,0.6,0.75,0.87l0.15,0.07
						c2.61,1.05,7,4.26,7,9.66C45.14,37.22,40.79,44.71,28.54,44.71z M17.34,43.41c1.91,0,3.71,0,5.53,0.1
						c1.97,0.11,3.76,0.2,5.67,0.2c11.51,0,15.6-6.95,15.6-12.9c0-4.88-4.01-7.79-6.39-8.74l-0.2-0.1
						c-0.56-0.27-1.32-0.64-1.32-1.77c0-0.85,0.52-1.31,0.94-1.67c0.1-0.09,0.21-0.18,0.31-0.28c1.99-1.54,3.15-4.16,3.15-7.05
						c0-3.47-1.73-9.3-13.3-9.3c-1.39,0-2.89,0.1-4.16,0.2c-1.38,0.1-2.81,0.2-4.24,0.2c-2.32,0-4.56-0.1-6.72-0.2L11.93,2.1
						C9.72,2,7.64,1.91,5.54,1.91c-1.52,0-3.81,0.9-3.9,2.82c0,1.33,0.54,1.54,1.51,1.92c1.5,0.59,3.55,1.39,3.29,7.18l-0.7,17.3
						c-0.26,6.47-2,7.45-3.26,8.17c-0.69,0.39-1.04,0.59-1.04,1.71c0,1.75,1.8,2.7,3.5,2.7c2.17,0,4.39-0.11,6.18-0.2
						c1.08,0,2.14-0.03,3.19-0.05C15.33,43.44,16.35,43.41,17.34,43.41z M23.34,38.31c-2.43,0-3.5-0.73-3.5-7.7v-3
						c0-1.79,0.94-2.7,2.8-2.7c3.85,0,5.8,2.49,5.8,7.4C28.44,37.27,25.67,38.31,23.34,38.31z M22.64,25.91c-1.5,0-1.8,0.65-1.8,1.7
						v3c0,6.7,0.94,6.7,2.5,6.7c2.76,0,4.1-1.64,4.1-5C27.44,27.94,25.91,25.91,22.64,25.91z M22.04,20.01
						c-0.71,0-1.23-0.17-1.58-0.53c-0.63-0.63-0.62-1.68-0.62-3.13l0-5.24l0-0.39c-0.01-1.11-0.02-2.26,0.7-2.98
						c0.42-0.42,1.01-0.63,1.81-0.63c2.94,0,4.7,2.47,4.7,6.6C27.04,16.42,26.52,20.01,22.04,20.01z M22.34,8.11
						c-0.52,0-0.87,0.11-1.1,0.33c-0.42,0.43-0.42,1.36-0.41,2.27l0,5.3l0,0.35c0,1.17,0,2.08,0.33,2.42
						c0.16,0.16,0.44,0.23,0.87,0.23c2.8,0,4-1.58,4-5.3C26.04,12.4,25.77,8.11,22.34,8.11z"/>
				</g>
			</g>
		</g>
	</g>
</g>
</svg>
