<?xml version="1.0" encoding="utf-8"?>
<!-- Generator: Adobe Illustrator 26.0.0, SVG Export Plug-In . SVG Version: 6.00 Build 0)  -->
<svg version="1.1" id="Capa_1" xmlns="http://www.w3.org/2000/svg" xmlns:xlink="http://www.w3.org/1999/xlink" x="0px" y="0px"
	 viewBox="0 0 91.8 81.97" style="enable-background:new 0 0 91.8 81.97;" xml:space="preserve">
<style type="text/css">
	.st0{fill:#BFC6C0;}
</style>
<g>
	<g id="XMLID_00000132077562563031394220000006729487854941253035_">
		<g>
			<path class="st0" d="M91.8,49.51c0,3-1.56,4.98-4.62,4.98c-5.22,0-5.16-7.08-8.22-7.08c-2.34,0-2.1,3.24-2.1,3.72v18.42
				c0,7.14,5.52,3.72,5.52,7.92c0,1.86-1.14,4.5-12.36,4.5c-3.06,0-14.28,0.12-14.28-4.5c0-3.18,3.72-1.92,4.92-4.2
				c0.6-1.26,0.84-4.86,0.9-6.36l0.48-13.26c0.24-6.3-1.02-6.24-1.86-6.24c-2.7,0-4.02,7.08-8.88,7.08c-2.34,0-3.72-2.16-3.72-4.32
				c0-1.88,0.58-3.96,1.5-5.85c1.83,1.04,4.06,1.66,6.67,1.66c4.28,0,10.35-2.38,11.2-6.73h10.51c2.58,0,3.78-0.24,4.68-0.42
				c0.84-0.24,1.32-0.42,2.46-0.42C86.94,38.41,91.8,43.03,91.8,49.51z"/>
			<path class="st0" d="M64.85,31.5c0,2.37-1.08,2.7-2.23,2.7h-7.81c-0.4,0-0.97-0.11-0.97,0.5c0,0.3,0.06,0.59,0.18,0.86
				c0.58,1.4,2.44,2.45,3.85,2.45c2.7,0,4.03-1.62,4.79-1.62c0.75,0,1.4,1.12,1.4,1.8c0,0.37-0.09,0.72-0.25,1.06
				c-1.06,2.21-5.25,3.73-8.06,3.73c-2.02,0-3.74-0.45-5.14-1.23c-0.93-0.5-1.72-1.14-2.37-1.88c-1.47-1.65-2.25-3.78-2.31-5.93
				v-0.01c-0.01-0.09-0.01-0.18-0.01-0.27c0-1.19,0.22-2.31,0.61-3.34c1.44-3.75,5.26-6.24,9.5-6.24
				C62.15,24.08,64.85,28.8,64.85,31.5z M57.94,29.66c0-1.29-0.79-2.3-2.12-2.3c-1.19,0-2.16,1.22-2.16,2.37
				c0,1.3,1.22,1.01,2.16,1.01C56.79,30.74,57.94,30.96,57.94,29.66z"/>
			<path class="st0" d="M49.16,74.65c0,4.25,2.12,2.7,2.12,4.61c0,2.44-4.57,2.44-6.19,2.44c-6.19,0-6.44-1.4-6.44-2.26
				c0-1.3,1.47-1.37,1.9-2.49c0.47-1.26,0.54-6.48,0.15-7.81c-0.33-1.26-2.16-0.86-2.16-2.48c0-2.56,9.14-3.64,9.5-3.64
				c1.08,0,1.12,0.83,1.12,1.59V74.65z"/>
			<path class="st0" d="M45.49,56.08c1.44,0,3.49,0.46,3.49,2.26c0,2.81-4.9,3.53-6.95,3.53c-1.51,0-3.13-0.68-3.13-2.45
				C38.9,57.05,43.65,56.08,45.49,56.08z"/>
			<path class="st0" d="M36.84,20.22c2.46,0.96,6.72,4.14,6.72,9.18c0,6-4.02,13.38-16.08,13.38c-2.04,0-3.9-0.06-5.7-0.18
				c-1.8-0.06-3.6-0.12-5.46-0.12c-2.04,0-4.14,0.06-6.18,0.12c-2.04,0.12-4.08,0.18-6.18,0.18C2.1,42.78,0,41.7,0,39.6
				c0-3.72,3.9,0.06,4.26-9.9l0.66-17.28c0.36-9.06-4.8-4.92-4.8-9.06C0.12,1.08,2.58,0,4.44,0c2.22,0,4.44,0.12,6.66,0.18
				c2.22,0.12,4.44,0.24,6.66,0.24c1.44,0,2.82-0.12,4.2-0.24C23.34,0.12,24.78,0,26.16,0c10.98,0,13.8,5.22,13.8,9.84
				c0,2.76-1.14,5.7-3.3,7.44c-0.54,0.48-1.08,0.84-1.08,1.62C35.58,19.68,36.24,19.92,36.84,20.22z M22.2,36.42
				c3.42,0,4.62-2.34,4.62-5.46c0-3.66-1.08-6.9-5.28-6.9c-1.86,0-2.28,0.96-2.34,2.22v3C19.2,36.24,20.34,36.42,22.2,36.42z
				 M25.38,12.3c0-2.7-0.9-6.06-4.2-6.06c-2.22,0-1.98,1.8-1.98,3.54v4.86c0,2.34-0.12,3.48,1.74,3.48
				C24.54,18.12,25.38,15.6,25.38,12.3z"/>
		</g>
		<g>
		</g>
	</g>
</g>
</svg>
