<?xml version="1.0" encoding="utf-8"?>
<!-- Generator: Adobe Illustrator 26.0.0, SVG Export Plug-In . SVG Version: 6.00 Build 0)  -->
<svg version="1.1" id="Capa_1" xmlns="http://www.w3.org/2000/svg" xmlns:xlink="http://www.w3.org/1999/xlink" x="0px" y="0px"
	 viewBox="0 0 91.8 82" style="enable-background:new 0 0 91.8 82;" xml:space="preserve">
<style type="text/css">
	.st0{fill:url(#SVGID_1_);stroke:url(#SVGID_00000174561030317980380430000013009703207065054109_);stroke-miterlimit:10;}
	
		.st1{fill:url(#SVGID_00000088845801176538628650000008460415750210056590_);stroke:url(#SVGID_00000131351384167810291960000015228837090720251326_);stroke-miterlimit:10;}
	
		.st2{fill:url(#SVGID_00000014604236443385175560000009887422209158003099_);stroke:url(#SVGID_00000008109615863713496290000006610547404377796271_);stroke-miterlimit:10;}
	
		.st3{fill:url(#SVGID_00000123404146938944503230000016346540068202723472_);stroke:url(#SVGID_00000172429592333218386150000014568113533713303994_);stroke-miterlimit:10;}
	
		.st4{fill:url(#SVGID_00000000213910565776780320000005683958065473071781_);stroke:url(#SVGID_00000080183855140268880640000001479103126851030705_);stroke-miterlimit:10;}
</style>
<g>
	<g id="XMLID_00000132077562563031394220000006729487854941253035_">
		<g>
			<radialGradient id="SVGID_1_" cx="69.69" cy="60.1901" r="21.9457" gradientUnits="userSpaceOnUse">
				<stop  offset="0" style="stop-color:#FFFFFF"/>
				<stop  offset="1" style="stop-color:#000000"/>
			</radialGradient>
			
				<linearGradient id="SVGID_00000170249381327528533730000014381667786402921093_" gradientUnits="userSpaceOnUse" x1="47.08" y1="60.1901" x2="92.3" y2="60.1901">
				<stop  offset="0" style="stop-color:#FFFFFF"/>
				<stop  offset="1" style="stop-color:#000000"/>
			</linearGradient>
			
				<path style="fill:url(#SVGID_1_);stroke:url(#SVGID_00000170249381327528533730000014381667786402921093_);stroke-miterlimit:10;" d="
				M91.8,49.5c0,3-1.6,5-4.6,5c-5.2,0-5.2-7.1-8.2-7.1c-2.3,0-2.1,3.2-2.1,3.7v18.4c0,7.1,5.5,3.7,5.5,7.9c0,1.9-1.1,4.5-12.4,4.5
				c-3.1,0-14.3,0.1-14.3-4.5c0-3.2,3.7-1.9,4.9-4.2c0.6-1.3,0.8-4.9,0.9-6.4L62,53.6c0.2-6.3-1-6.2-1.9-6.2c-2.7,0-4,7.1-8.9,7.1
				c-2.3,0-3.7-2.2-3.7-4.3c0-1.9,0.6-4,1.5-5.8c1.8,1,4.1,1.7,6.7,1.7c4.3,0,10.3-2.4,11.2-6.7h10.5c2.6,0,3.8-0.2,4.7-0.4
				c0.8-0.2,1.3-0.4,2.5-0.4C86.9,38.4,91.8,43,91.8,49.5z"/>
			
				<radialGradient id="SVGID_00000002350013917773556900000004823352433214287023_" cx="55.385" cy="33.53" r="9.4575" gradientUnits="userSpaceOnUse">
				<stop  offset="0" style="stop-color:#FFFFFF"/>
				<stop  offset="1" style="stop-color:#000000"/>
			</radialGradient>
			
				<linearGradient id="SVGID_00000183237696432749329820000004513434481831734919_" gradientUnits="userSpaceOnUse" x1="45.42" y1="33.53" x2="65.35" y2="33.53">
				<stop  offset="0" style="stop-color:#FFFFFF"/>
				<stop  offset="1" style="stop-color:#000000"/>
			</linearGradient>
			
				<path style="fill:url(#SVGID_00000002350013917773556900000004823352433214287023_);stroke:url(#SVGID_00000183237696432749329820000004513434481831734919_);stroke-miterlimit:10;" d="
				M64.8,31.5c0,2.4-1.1,2.7-2.2,2.7h-7.8c-0.4,0-1-0.1-1,0.5c0,0.3,0.1,0.6,0.2,0.9c0.6,1.4,2.4,2.5,3.8,2.5c2.7,0,4-1.6,4.8-1.6
				c0.8,0,1.4,1.1,1.4,1.8c0,0.4-0.1,0.7-0.2,1.1c-1.1,2.2-5.2,3.7-8.1,3.7c-2,0-3.7-0.5-5.1-1.2c-0.9-0.5-1.7-1.1-2.4-1.9
				c-1.5-1.7-2.2-3.8-2.3-5.9v0c0-0.1,0-0.2,0-0.3c0-1.2,0.2-2.3,0.6-3.3c1.4-3.8,5.3-6.2,9.5-6.2C62.2,24.1,64.8,28.8,64.8,31.5z
				 M57.9,29.7c0-1.3-0.8-2.3-2.1-2.3c-1.2,0-2.2,1.2-2.2,2.4c0,1.3,1.2,1,2.2,1C56.8,30.7,57.9,31,57.9,29.7z"/>
			
				<radialGradient id="SVGID_00000182515630017906347640000018259304893125428385_" cx="44.91" cy="72.36" r="7.9941" gradientUnits="userSpaceOnUse">
				<stop  offset="0" style="stop-color:#FFFFFF"/>
				<stop  offset="1" style="stop-color:#000000"/>
			</radialGradient>
			
				<linearGradient id="SVGID_00000094583431822834679370000005404625221957081533_" gradientUnits="userSpaceOnUse" x1="38.04" y1="72.36" x2="51.78" y2="72.36">
				<stop  offset="0" style="stop-color:#FFFFFF"/>
				<stop  offset="1" style="stop-color:#000000"/>
			</linearGradient>
			
				<path style="fill:url(#SVGID_00000182515630017906347640000018259304893125428385_);stroke:url(#SVGID_00000094583431822834679370000005404625221957081533_);stroke-miterlimit:10;" d="
				M49.2,74.7c0,4.2,2.1,2.7,2.1,4.6c0,2.4-4.6,2.4-6.2,2.4c-6.2,0-6.4-1.4-6.4-2.3c0-1.3,1.5-1.4,1.9-2.5c0.5-1.3,0.5-6.5,0.2-7.8
				c-0.3-1.3-2.2-0.9-2.2-2.5c0-2.6,9.1-3.6,9.5-3.6c1.1,0,1.1,0.8,1.1,1.6C49.2,64.6,49.2,74.7,49.2,74.7z"/>
			
				<radialGradient id="SVGID_00000120557303095914240560000005226388025889731210_" cx="43.94" cy="58.975" r="4.1099" gradientUnits="userSpaceOnUse">
				<stop  offset="0" style="stop-color:#FFFFFF"/>
				<stop  offset="1" style="stop-color:#000000"/>
			</radialGradient>
			
				<linearGradient id="SVGID_00000119096213418467115010000016058311133588140176_" gradientUnits="userSpaceOnUse" x1="38.4" y1="58.975" x2="49.48" y2="58.975">
				<stop  offset="0" style="stop-color:#FFFFFF"/>
				<stop  offset="1" style="stop-color:#000000"/>
			</linearGradient>
			
				<path style="fill:url(#SVGID_00000120557303095914240560000005226388025889731210_);stroke:url(#SVGID_00000119096213418467115010000016058311133588140176_);stroke-miterlimit:10;" d="
				M45.5,56.1c1.4,0,3.5,0.5,3.5,2.3c0,2.8-4.9,3.5-7,3.5c-1.5,0-3.1-0.7-3.1-2.5C38.9,57,43.7,56.1,45.5,56.1z"/>
			
				<radialGradient id="SVGID_00000037662823728936212640000002644288725226578607_" cx="21.78" cy="21.39" r="21.5859" gradientUnits="userSpaceOnUse">
				<stop  offset="0" style="stop-color:#FFFFFF"/>
				<stop  offset="1" style="stop-color:#000000"/>
			</radialGradient>
			
				<linearGradient id="SVGID_00000117665256946277083400000009862005445802026136_" gradientUnits="userSpaceOnUse" x1="-0.5" y1="21.39" x2="44.06" y2="21.39">
				<stop  offset="0" style="stop-color:#FFFFFF"/>
				<stop  offset="1" style="stop-color:#000000"/>
			</linearGradient>
			
				<path style="fill:url(#SVGID_00000037662823728936212640000002644288725226578607_);stroke:url(#SVGID_00000117665256946277083400000009862005445802026136_);stroke-miterlimit:10;" d="
				M36.8,20.2c2.5,1,6.7,4.1,6.7,9.2c0,6-4,13.4-16.1,13.4c-2,0-3.9-0.1-5.7-0.2c-1.8-0.1-3.6-0.1-5.5-0.1c-2,0-4.1,0.1-6.2,0.1
				c-2,0.1-4.1,0.2-6.2,0.2c-1.9,0-4-1.1-4-3.2c0-3.7,3.9,0.1,4.3-9.9l0.7-17.3c0.4-9.1-4.8-4.9-4.8-9.1C0.1,1.1,2.6,0,4.4,0
				c2.2,0,4.4,0.1,6.7,0.2c2.2,0.1,4.4,0.2,6.7,0.2c1.4,0,2.8-0.1,4.2-0.2C23.3,0.1,24.8,0,26.2,0C37.1,0,40,5.2,40,9.8
				c0,2.8-1.1,5.7-3.3,7.4c-0.5,0.5-1.1,0.8-1.1,1.6C35.6,19.7,36.2,19.9,36.8,20.2z M22.2,36.4c3.4,0,4.6-2.3,4.6-5.5
				c0-3.7-1.1-6.9-5.3-6.9c-1.9,0-2.3,1-2.3,2.2v3C19.2,36.2,20.3,36.4,22.2,36.4z M25.4,12.3c0-2.7-0.9-6.1-4.2-6.1
				c-2.2,0-2,1.8-2,3.5v4.9c0,2.3-0.1,3.5,1.7,3.5C24.5,18.1,25.4,15.6,25.4,12.3z"/>
		</g>
	</g>
</g>
</svg>
