<?xml version="1.0" encoding="utf-8"?>
<!-- Generator: Adobe Illustrator 26.0.0, SVG Export Plug-In . SVG Version: 6.00 Build 0)  -->
<svg version="1.1" id="Capa_1" xmlns="http://www.w3.org/2000/svg" xmlns:xlink="http://www.w3.org/1999/xlink" x="0px" y="0px"
	 viewBox="0 0 598.35 678.51" style="enable-background:new 0 0 598.35 678.51;" xml:space="preserve">
<style type="text/css">
	.st0{fill:none;}
	.st1{fill:#FEFEFE;}
	.st2{fill:#37516C;}
	.st3{fill:#34AFAF;}
	.st4{fill:#FEAE97;}
	.st5{fill:#C44100;}
	.st6{fill:#FDAE98;}
	.st7{fill:#C24204;}
	.st8{fill:#CF4F03;}
	.st9{fill:#BF4305;}
	.st10{fill:#29455C;}
	.st11{fill:#2B445D;}
	.st12{fill:#42928D;}
	.st13{fill:#AF3B01;}
	.st14{fill:#FDE79C;}
	.st15{fill:#D3C688;}
	.st16{fill:#749283;}
	.st17{fill:#31A6A7;}
	.st18{fill:#F9AE91;}
	.st19{fill:#FCF6DA;}
	.st20{fill:#AF3B00;}
	.st21{fill:#C7C8B0;}
	.st22{fill:#ED9B85;}
	.st23{fill:#ED9A83;}
	.st24{fill:#EB9B81;}
	.st25{fill:#F27876;}
	.st26{fill:#821E1B;}
	.st27{fill:#542C23;}
	.st28{fill:#DE5F63;}
	.st29{fill:#EE9B84;}
	.st30{fill:#EF9A85;}
	.st31{fill:#85300D;}
	.st32{fill:#502C22;}
	.st33{fill:#87300D;}
	.st34{fill:#5A6F70;}
	.st35{fill:#F3F4F2;}
	.st36{fill:#5D7070;}
	.st37{fill:#EEEFEC;}
	.st38{fill:#F7F4F1;}
	.st39{fill:#F4EEEC;}
	.st40{fill:#3DA9A6;}
	.st41{fill:#E3B09E;}
	.st42{fill:#FBEAEA;}
	.st43{fill:#283B43;}
	.st44{fill:#2C3B46;}
</style>
<g>
	<path class="st0" d="M623.68,664.59c0,4.18-0.93,4.9-4.96,4.88c-47.61-0.18-95.22-0.11-142.83-0.11
		c1.54-33.95,2.71-67.95,5.91-101.79c2.98-31.64-6.1-59.96-21.41-86.91c-0.77-2.59-2.02-4.95-3.67-7.11
		c-0.05-1.78,1.3-2.63,2.4-3.64c5.16,0.21,10.01-0.48,15.15-1.81c17.01-4.39,32.21-12.06,46.22-22.42c4.4-0.74,7.14-4.13,10.36-6.69
		c18.32-14.61,35.42-30.43,48.38-50.19c14.61-22.26,14.59-36.75-0.4-58.44c-17.82-25.75-40.5-47.15-62.79-68.86
		c-13.85-13.5-28.59-26.15-40.61-41.45c7.65-8.82,6.66-13.1-4.1-17.71c-1.46-0.62-3.01-1.06-4.45-1.73
		c-5.85-2.74-6.65-5.32-2.95-10.62c4.4-6.31,4.85-12.94,1.99-19.84c-2.47-5.89-5.72-11.34-10.46-15.77c-1.17-2.05-2.79-3.68-4.74-5
		c-2.56-3.09-5.78-5.67-7.27-9.56c0.11-0.58,0.08-1.27,0.38-1.73c6.81-10.47,11.4-21.06,2.4-32.75c-0.72-0.93-0.35-2.69-0.5-4.07
		c2.31-17.66,0.85-34.88-6.07-51.45c-2.19-7.43-5.99-13.9-11.55-19.33c-4.2-6.01-9.86-10.47-16.24-13.77
		c-26.9-13.88-52.5-8.01-77.4,5.8c-1.46,0.82-3.44,2.56-3.43,3.86c0.06,5.8-4.45,8.07-7.78,11.31c-3.57,3.49-6.66,7.37-9.34,11.61
		c-9.38,14.93-10.84,31.37-9.54,48.4c0.03,0.16,0.06,0.34,0.1,0.5c0.88,5.2-3.25,8.6-4.87,12.91c-3.67,9.72,0.29,18.62,3.6,27.53
		c-1.06,8.57-6.93,14.56-11.48,21.25c-3.28,4.82-4.63,9.56-0.69,14.77c6.01,7.9,6.07,8.12-2.29,13.87
		c-6.6,4.55-9.35,10.46-8.33,18.37c0.74,5.61,2.29,10.86,5.7,15.45c-12.73,6.76-20.91,17.73-27.32,30.12
		c-13.31,25.74-28.23,50.51-42.93,75.44c-2.4,4.08-3.72,3.94-6.76,0.74c-14.59-15.37-28.41-31.34-39.96-49.18
		c-1.02-1.59-1.75-3.73-4.16-3.92c-0.4-3.28-2.35-5.93-3.86-8.7c-6.04-11.26-11.55-22.8-15.13-35.04
		c-5.22-17.79-18.45-25.05-35.07-28.12c-8.28-1.54-16.35-3.09-22.76-9.19c-3.2-3.06-5.73-1.71-7.46,1.84
		c-1.51,3.14-1.3,5.94,1.02,8.87c2.67,3.41,6.2,5.33,10.92,7.17c0,0,0.02,0,0.02,0.02c0,0.02-0.02,0.03-0.02,0.03
		c-10.14,3.32-19.35,1.19-28.39-0.03c-15.01-2.02-29.9-4.84-45.16-4.29c-3.3,0.11-6.39,0.45-8.79,2.98
		c-1.52,1.62-2.34,4.52-0.34,5.03c3.28,0.82,5.4,4.53,8.39,4.1c10.22-1.47,19.03,4.63,28.87,4.68c3.41,0.02,6.68,0.34,9.66,2.48
		c14.99,10.78,32.21,14.91,50.21,17.22c10.19,1.31,18.06,5.97,21.27,17.15c2.45,8.54,6.76,16.54,10.25,24.77
		c0.19,1.38,0.19,2.82,0.62,4.1c8.04,23.91,17.52,47.18,30.99,68.61c8.01,12.73,16.88,24.81,30.51,32.3
		c10.19,5.61,19.76,5.83,29.5-1.71c10.99-8.5,20.4-18.45,29.45-28.84c7.56-8.7,14.17-18.14,21.35-28.81
		c0.34,0.03,0.64,0.08,0.91,0.19c3.11,11.8,5.81,22.23,8.58,32.64c3.23,12.25,3.12,24.41-0.37,36.64
		c-6.34,22.28-16.54,42.74-28.47,62.44c-1.54,2.56-4.29,5.08-1.38,8.42c-0.85,2.4-2.93,4.28-3.04,7
		c-16.59,31.84-25.13,65.07-19.95,101.37c4.28,29.87,10.41,59.29,17.66,88.51c-91.62,0-183.25-0.03-274.87,0.11
		c-3.97,0-5-0.61-5-4.85c0.14-236.89,0.14-473.77,0-710.66c0-4.5,1.14-5.14,5.28-5.14c212.66,0.11,425.31,0.11,637.97,0.02
		c4.07-0.02,5.33,0.51,5.33,5.09C623.54,190.82,623.55,427.71,623.68,664.59z"/>
	<path class="st1" d="M281.04,332.15c-7.17,10.67-13.79,20.11-21.35,28.81c-9.05,10.39-18.46,20.34-29.45,28.84
		c-9.74,7.54-19.31,7.32-29.5,1.71c-13.63-7.49-22.5-19.57-30.51-32.3c-13.47-21.43-22.95-44.7-30.99-68.61
		c-0.43-1.28-0.43-2.72-0.62-4.1c-3.49-8.23-7.8-16.24-10.25-24.77c-3.2-11.18-11.08-15.84-21.27-17.15
		c-18-2.31-35.22-6.44-50.21-17.22c-2.98-2.15-6.25-2.47-9.66-2.48c-9.85-0.05-18.66-6.15-28.87-4.68c-2.99,0.43-5.11-3.28-8.39-4.1
		c-2-0.51-1.19-3.41,0.34-5.03c2.4-2.53,5.49-2.87,8.79-2.98c15.26-0.54,30.16,2.27,45.16,4.29c9.05,1.22,18.26,3.35,28.39,0.03
		c0,0.08-0.02,0.16-0.03,0.26c-0.37,2-2.71,2.23-4.4,2.53c-8.82,1.6-17.49-0.4-26.15-1.54c-13.85-1.81-27.59-4.6-41.67-3.75
		c-3.25,0.19-8.17-0.59-8.23,3.64c-0.06,3.23,4.71,5.01,7.98,4.84c11.19-0.59,21.16,5.43,32.21,5.51c3.62,0.02,6.79,2.5,9.66,4.56
		c12.81,9.24,27.79,11.93,42.81,14.11c12.51,1.79,21.75,6.58,25.43,19.86c2.24,8.02,6.47,15.45,9.43,23.3
		c0.02,0.05,0.03,0.11,0.05,0.16c0.03,0.1,0.06,0.21,0.1,0.3c9.83,31.74,22.47,62.07,43.4,88.35c5.17,6.5,11.37,11.82,18.67,15.76
		c9.46,5.14,18.35,5.08,27.35-1.81c18.03-13.79,32.06-31.08,45.13-49.34C276.28,336.47,277.47,331.83,281.04,332.15z"/>
	<path class="st1" d="M292.57,397.93c-4.64,20.93-14.38,39.73-24.47,58.42c-2.79,5.14-7.57,9.53-7.05,16.17
		c-0.02,0.13-0.02,0.26-0.05,0.37c-0.02,0.21-0.05,0.4-0.08,0.59c-0.38,2.18-1.39,4.13-2.29,6.12c-0.13,0.26-0.24,0.5-0.35,0.75
		c-0.05,0.1-0.08,0.21-0.13,0.3c-9.4,20.16-17.5,40.74-20.08,63.06c-1.79,15.42,0.32,30.67,2.37,45.91
		c3.27,24.18,8.5,47.96,14.25,71.65c0.64,2.63,2.11,5.32,0.29,8.07c-7.25-29.23-13.39-58.64-17.66-88.51
		c-5.17-36.3,3.36-69.53,19.95-101.37c0.11-2.72,2.19-4.6,3.04-7c-2.91-3.35-0.16-5.86,1.38-8.42
		c11.93-19.7,22.13-40.16,28.47-62.44c3.49-12.24,3.6-24.39,0.37-36.64c-2.77-10.41-5.48-20.83-8.58-32.64
		c2.98,0.96,2.79,5.32,3.65,8.14c3.97,13,7.61,26.1,9.02,39.68C295.24,386.21,293.87,392.11,292.57,397.93z"/>
	<path class="st1" d="M579.23,388.81c-12.96,19.76-30.06,35.58-48.38,50.19c-3.22,2.56-5.96,5.96-10.36,6.69
		c-14.01,10.36-29.21,18.03-46.22,22.42c-5.14,1.33-9.99,2.02-15.15,1.81c-1.1,1.01-2.45,1.86-2.4,3.64
		c1.65,2.16,2.9,4.52,3.67,7.11c15.31,26.95,24.39,55.27,21.41,86.91c-3.2,33.84-4.37,67.84-5.91,101.79
		c-2.03-2.35-2.11-5.28-1.65-7.99c1.89-11.1,1.38-22.36,1.81-33.5c0.98-25.35,3.81-50.61,4.16-75.99
		c0.27-20.63-6.34-39.3-14.64-57.64c-1.81-4.02-3.96-7.86-5.8-11.85c-0.27-0.66-0.56-1.31-0.86-1.95c-0.13-0.26-0.26-0.53-0.38-0.78
		c-0.96-1.99-1.95-3.94-2.56-6.09c-0.02-0.05-0.03-0.1-0.05-0.14c-0.02-0.11-0.02-0.21-0.02-0.32c-0.03-1.75,0.77-2.91,2.15-3.68
		c0.14-0.1,0.29-0.16,0.45-0.24c0.13-0.06,0.29-0.13,0.43-0.19c21.14-1.52,39.52-10.27,56.84-21.76c1.15-0.78,2.32-1.54,3.56-2.15
		c0.02,0,0.02-0.02,0.03-0.02c0.14-0.08,0.29-0.14,0.42-0.22c10.54-5.7,19.04-14.04,27.75-21.97c13.63-12.43,26.09-25.88,34.8-42.45
		c7.58-14.38,8.55-28.3-0.45-42.6c-7.17-11.39-15.52-21.83-24.36-31.88c-12.28-13.98-25.17-27.42-38.88-39.96
		c-11.82-10.81-22.96-22.26-34.34-33.5c-3.65-3.6-7.49-7.21-9.13-12.38c0.03-0.06,0.05-0.14,0.08-0.21
		c0.06-0.16,0.13-0.32,0.18-0.48c4.37-11.31,4.15-11.42-7.53-16.83c-8.42-3.92-9.35-6.65-4.64-14.7c3.51-6.02,3.65-12.03,0.66-18.24
		c-2.43-5.06-5.48-9.72-8.87-14.16c-0.43-0.53-0.88-1.04-1.33-1.54h-0.02c-0.96-1.09-2-2.11-3.09-3.09c-0.3-0.3-0.62-0.58-0.94-0.86
		c-2.96-2.59-5.89-5.2-6.89-9.1c-0.06-0.24-0.11-0.5-0.16-0.75c-0.06-0.35-0.11-0.72-0.14-1.11c0.45-3.27,2.64-5.73,3.97-8.58
		c3.59-7.64,4.29-15.18-0.4-22.64c-0.77-1.22-1.23-2.51-1.51-3.86c-0.13-0.61-0.21-1.23-0.27-1.87c-0.03-0.35-0.05-0.7-0.06-1.07
		c1.7-13.1,0.94-26.04-2.24-38.88c-0.86-3.46-2.03-6.77-3.12-10.14c-0.08-0.21-0.14-0.42-0.21-0.62c-0.03-0.16-0.08-0.3-0.13-0.46
		c-1.89-7.27-5.97-13.26-10.84-18.75c-0.35-0.4-0.7-0.78-1.06-1.17c-0.11-0.11-0.21-0.22-0.32-0.34
		c-18.45-19.97-41.11-23.88-66.46-16.98c-6.92,1.89-13.8,4.04-20.15,7.59c-2.27,1.28-5.12,2.43-5.88,4.87
		c-1.95,6.31-6.98,9.9-11.1,14.45c-11.26,12.48-17.14,27.22-16.9,44.22c0.06,4.39,0,8.79,0.06,13.18c-0.02,0.43-0.02,0.85-0.03,1.27
		c-0.03,0.96-0.06,1.91-0.19,2.83v0.02c-0.18,1.59-0.61,3.11-1.57,4.53c-5.32,7.83-5.2,16.08-1.79,24.55
		c0.88,2.23,1.78,4.45,2.07,6.87c0,0.3,0,0.62-0.02,0.93c0,0.34-0.03,0.67-0.06,1.01c-0.42,4.61-2.51,8.62-5.16,12.4
		c-1.6,2.29-3.36,4.45-4.96,6.74c-4.87,6.93-4.85,9.64-0.05,16.72c3.73,5.49,3.52,7.32-1.33,11.66
		c-12.86,11.5-13.76,15.63-6.87,31.55c0.35,0.83,0.7,1.67,0.75,2.56c0.02,0.18,0.02,0.35,0,0.53c0,0.13-0.02,0.24-0.03,0.37
		c-10.38,8.5-20.18,17.52-26.22,29.85c-3.52,7.17-7.17,14.27-11.13,21.22c-10.28,18.05-20.64,36.06-31.47,53.79
		c-4.15,6.77-5.33,7.01-11.02,1.06c-12.41-13-24.12-26.63-34.38-41.45c-2.59-3.75-4.92-7.69-8.01-11.08
		c-0.03-0.05-0.08-0.1-0.13-0.13c-0.1-0.13-0.22-0.26-0.34-0.38c-7.62-13.84-14.85-27.91-19.39-43.09
		c-5.12-17.14-18.13-23.96-34.08-27.02c-7.93-1.52-15.6-3.35-22.2-8.26c-1.44-1.09-3.03-2.4-4.82-0.96
		c-1.94,1.57-2.13,3.83-1.28,6.02c1.3,3.33,4,5.36,7.05,7.06c1.39,0.78,3.57,1.38,3.46,3.27c-4.72-1.84-8.25-3.76-10.92-7.17
		c-2.32-2.93-2.53-5.73-1.02-8.87c1.73-3.56,4.26-4.9,7.46-1.84c6.41,6.1,14.48,7.65,22.76,9.19c16.62,3.07,29.85,10.33,35.07,28.12
		c3.59,12.24,9.1,23.78,15.13,35.04c1.51,2.77,3.46,5.41,3.86,8.7c2.42,0.19,3.14,2.34,4.16,3.92
		c11.55,17.84,25.37,33.81,39.96,49.18c3.04,3.2,4.36,3.35,6.76-0.74c14.7-24.93,29.63-49.71,42.93-75.44
		c6.41-12.4,14.59-23.37,27.32-30.12c-3.41-4.6-4.96-9.85-5.7-15.45c-1.02-7.91,1.73-13.82,8.33-18.37
		c8.36-5.75,8.3-5.97,2.29-13.87c-3.94-5.2-2.59-9.94,0.69-14.77c4.55-6.69,10.43-12.68,11.48-21.25c-3.32-8.9-7.27-17.81-3.6-27.53
		c1.62-4.31,5.75-7.7,4.87-12.91c-0.03-0.16-0.06-0.34-0.1-0.5c-1.3-17.02,0.16-33.47,9.54-48.4c2.67-4.24,5.77-8.12,9.34-11.61
		c3.33-3.23,7.85-5.51,7.78-11.31c-0.02-1.3,1.97-3.04,3.43-3.86c24.9-13.8,50.49-19.68,77.4-5.8c6.37,3.3,12.04,7.77,16.24,13.77
		c5.56,5.43,9.35,11.9,11.55,19.33c6.92,16.57,8.38,33.79,6.07,51.45c0.14,1.38-0.22,3.14,0.5,4.07c9,11.69,4.4,22.28-2.4,32.75
		c-0.3,0.46-0.27,1.15-0.38,1.73c1.49,3.89,4.71,6.47,7.27,9.56c1.95,1.31,3.57,2.95,4.74,5c4.74,4.44,7.99,9.88,10.46,15.77
		c2.87,6.9,2.42,13.53-1.99,19.84c-3.7,5.3-2.9,7.88,2.95,10.62c1.44,0.67,2.99,1.1,4.45,1.73c10.76,4.61,11.75,8.89,4.1,17.71
		c12.03,15.29,26.76,27.95,40.61,41.45c22.29,21.72,44.97,43.11,62.79,68.86C593.82,352.05,593.83,366.55,579.23,388.81z"/>
	<path class="st2" d="M481.8,567.57c-3.2,33.84-4.37,67.84-5.91,101.79h-98.44c-5.8-30.16-11.48-60.34-19.73-89.95
		c-0.5,30.04-0.8,60.01-1.89,89.95H254.99c-7.25-29.23-13.39-58.64-17.66-88.51c-5.17-36.3,3.36-69.53,19.95-101.37
		c0.46,0.03,0.91,0.06,1.36,0.13c8.02,0.91,13.92,5.99,19.91,10.84c0.46,0.4,0.18,1.36,0.8,1.75c0.02,0.02,0.03,0.03,0.06,0.03
		c0.18,0.08,0.42,0.13,0.75,0.11c8.31-0.54,15.1,4.76,22.98,6.17c6.5,1.15,7.53,0.66,9.18-5.56c2.29-8.7,2.88-17.68,4.64-26.47
		c1.49-7.49,0.54-15.49,1.23-23.22c0.21-2.34-0.24-4.77,1.2-6.81c0.02,0,0.02-0.02,0.02-0.02c0.05-0.08,0.11-0.14,0.18-0.22
		c0.1-0.11,0.19-0.24,0.3-0.35c0.19-0.13,0.38-0.24,0.58-0.32c0,0,0,0.02,0.02,0c0.34-0.19,0.67-0.32,1.02-0.43
		c0.77-0.21,1.57-0.32,2.37-0.42c15.93,0.8,31.87,1.41,47.8-0.06c0.74-0.03,1.44-0.03,2.11,0.05c0.94,0.08,1.83,0.24,2.66,0.53
		c2.4,0.8,4.29,2.48,5.57,5.27c0.19,0.3,0.37,0.61,0.53,0.91c0.14,0.26,0.27,0.51,0.38,0.77c0.16,0.32,0.29,0.66,0.4,0.99
		c0.06,0.18,0.11,0.35,0.16,0.53c0.06,0.24,0.13,0.48,0.18,0.74c1.02,15.07-0.51,30.22,1.54,45.26c0.29,2.15,0.27,4.36,0.83,6.47
		c0,0.53-0.02,1.01-0.02,1.46v0.14c-0.02,5.96,0.54,5.94,8.01,5.59c8.79-0.43,17.26-2.85,25.9-4.28c6.13-1.02,6.07-1.43,11.82,2.59
		c-2.5-4.21-0.22-6.18,2.85-7.78c6.9-3.62,13.8-7.24,19.38-12.86c1.44-1.46,2.98-1.87,4.55-1.35c0.62,0.19,1.23,0.54,1.86,1.01
		C475.7,507.61,484.78,535.93,481.8,567.57z"/>
	<path class="st0" d="M377.45,669.36h-21.62c1.09-29.95,1.39-59.91,1.89-89.95C365.97,609.02,371.65,639.2,377.45,669.36z"/>
	<path class="st3" d="M579.23,388.8c-12.96,19.76-30.06,35.58-48.38,50.19c-3.22,2.56-5.96,5.96-10.36,6.69
		c-0.4-0.19-0.8-0.38-1.17-0.61c-4.23-2.42-6.81-6.58-10.14-9.94c-3.73-3.76-7.08-7.88-10.73-11.72c-0.05-0.06-0.11-0.11-0.16-0.18
		c-0.02-0.08-0.02-0.18-0.02-0.26c0.18,0.05,0.35,0.08,0.53,0.14c3.03-5.91,7.78-10.54,11.72-15.77
		c8.98-11.95,18.11-23.78,25.14-37.04c4.9-9.22,4.64-10.14-2.91-16.61c-16.8-14.36-33.58-28.76-50.4-43.11
		c-6.65-5.65-13.36-11.21-20.45-17.17c-0.5,2.23-0.86,3.89-1.22,5.48c-0.05,0.26-0.1,0.51-0.16,0.78c-0.32-0.11-0.82-0.46-1.04-0.83
		c0.05-5.75-2.67-9.54-7.8-12.15c-3.38-1.71-4.5-0.78-4.13,2.55c1.46,13.63-6.36,22.4-15.61,30.54c-4.52,3.97-10.07,5.67-15.5,7.53
		c-8.3,2.85-16.77,5.25-25.67,4.98c-3.65-0.11-5.49-0.78-6.31-2.63c0-0.02-0.02-0.03-0.02-0.05c-0.5-1.19-0.59-2.82-0.48-5.09
		c0.3-6.23,0.48-12.46,0.32-18.69v-0.02c-0.08-3.14-0.24-6.25-0.51-9.38c0.1-15.77,2.98-31.21,5.59-46.68
		c0.19-0.8,0.38-1.59,0.59-2.37v-0.02c0.08-0.37,0.18-0.74,0.27-1.1c1.12-4.56,2.29-9.13,3.25-13.74c0,0,0,0,0-0.02
		c0.08-0.42,0.18-0.8,0.26-1.22v-0.02c0.1-0.46,0.18-0.91,0.27-1.38c3.43-9.62,5.93-19.6,10.62-28.78c0.02,0,0.02-0.02,0.02-0.02
		c0.06-0.13,0.13-0.22,0.18-0.35c0.02,0,0.02-0.02,0.02-0.02c0.05-0.11,0.11-0.24,0.18-0.35c5.91-3.68,12.32-1.87,18.59-1.81
		c11.95,0.13,22.95,4.13,34,7.91c0.58,0.21,1.14,0.4,1.71,0.59c0.24,0.21,0.45,0.38,0.7,0.54c0,0.02,0.02,0.02,0.02,0.02l0.02,0.02
		c3.76,3.01,8.01,5.3,11.96,8.06c1.46,1.02,3.25,1.71,3.41,3.7c0.02,0.21,0.02,0.42,0,0.66c12.03,15.29,26.76,27.95,40.61,41.45
		c22.29,21.72,44.97,43.11,62.79,68.86C593.82,352.05,593.84,366.54,579.23,388.8z"/>
	<path class="st3" d="M335.92,210.61c-2.61,4-4.1,8.58-6.71,12.57c-0.37,0.54-0.72,1.09-1.04,1.63c-0.34,0.53-0.66,1.07-0.96,1.6
		c-1.91,3.3-3.48,6.76-4.87,10.31c-0.08,0.19-0.16,0.38-0.22,0.58c-0.19,0.48-0.38,0.96-0.56,1.44c-7.32,16-12.03,32.72-12.04,50.33
		c0,13.93,0.9,27.88,2.63,41.73c0.24,1.97,0.86,3.91,0.94,5.91c1.09,32.7,3.88,65.37,2.45,98.14c0,0.29-0.02,0.58-0.02,0.86v0.1
		c0,0.03-0.02,0.05,0,0.08c-0.02,0.53-0.03,1.07-0.03,1.6c0,0,0,0,0,0.02c-0.03,2.24-0.02,4.5,0.02,6.74
		c-0.51,14.83-2.69,29.45-5.28,44.02c-0.67,3.76-2.48,6.39-6.97,5.36c-14.83-3.33-28.41-9.45-40.72-18.35
		c-0.67-0.48-1.17-1.12-1.6-1.81c-0.21-0.34-0.4-0.67-0.61-1.01c-2.91-3.35-0.16-5.86,1.38-8.42c11.93-19.7,22.13-40.16,28.47-62.44
		c3.49-12.24,3.6-24.39,0.37-36.64c-2.77-10.41-5.48-20.83-8.58-32.64c-0.1-0.37-0.19-0.75-0.29-1.12c-0.21,0.3-0.42,0.62-0.62,0.93
		c-7.17,10.67-13.79,20.11-21.35,28.81c-9.05,10.39-18.46,20.34-29.45,28.84c-9.74,7.54-19.31,7.32-29.5,1.71
		c-13.63-7.49-22.5-19.57-30.51-32.3c-13.47-21.43-22.95-44.7-30.99-68.61c-0.43-1.28-0.43-2.72-0.62-4.1
		c0.37-0.21,0.74-0.4,1.1-0.61c7.82-4.26,15.92-7.82,24.53-10.15c0.24-0.08,0.5-0.14,0.74-0.21c2.42,0.19,3.14,2.34,4.16,3.92
		c11.55,17.84,25.37,33.81,39.96,49.18c3.04,3.2,4.36,3.35,6.76-0.74c14.7-24.93,29.63-49.71,42.93-75.44
		c6.41-12.4,14.59-23.37,27.32-30.12c0.16-0.27,0.32-0.51,0.51-0.75c2.99-4,8.33-3.91,12.17-6.44c0.08-0.05,0.16-0.11,0.24-0.16
		c0.11-0.05,0.24-0.08,0.35-0.13c10.91-3.89,22.02-7,33.25-9.72c1.19-0.29,2.35-0.37,3.49,0.14c0.27,0.26,0.48,0.53,0.64,0.78
		c0.03,0.05,0.05,0.08,0.08,0.13C337.71,207.76,336.78,209.32,335.92,210.61z"/>
	<path class="st4" d="M443.82,138.1c-0.3,0.46-0.27,1.15-0.38,1.73c-0.19,0.4-0.42,0.75-0.67,1.06c-1.51,1.87-3.99,2.16-6.04,3.19
		c-0.14,0.05-0.27,0.11-0.42,0.19c-8.07-3.07-9.93,2.87-12.76,8.31c-6.31,12.2-15.26,22.23-26.76,29.9
		c-0.03,0.03-0.08,0.06-0.11,0.08c-0.46,0.35-0.93,0.69-1.39,1.01c-15.18,10.67-32.67,11.16-48.06,1.33
		c-0.27-0.16-0.53-0.34-0.8-0.51c-0.11-0.08-0.24-0.16-0.35-0.26c-11.88-8.42-20.08-19.89-25.56-33.15
		c-2.07-5.04-4.18-7.85-9.62-6.69c-0.11,0.03-0.24,0.05-0.35,0.08c-0.16-0.06-0.32-0.11-0.46-0.18c-2.32-0.93-4.23-2.37-5.81-4.23
		c-0.37-0.42-0.7-0.86-1.04-1.33c-3.32-8.9-7.27-17.81-3.6-27.53c1.62-4.31,5.75-7.7,4.87-12.91c-0.03-0.16-0.06-0.34-0.1-0.5
		c0.46,0.53,0.94,1.02,1.44,1.52c2.43,2.5,5.12,4.69,8.3,6.44c3.4,1.87,1.35,6.31,2.34,8.22c-0.3-12.62,1.41-25.85,6.33-38.67
		c2.82-7.38,6.33-14.22,12.4-19.52c6.37-5.56,8.3-5.75,15.05-0.66c20.47,15.41,43.85,24.57,68.08,31.9
		c13.95,4.23,13.61,2.03,13.55,17.7c-0.02,2.35,0.06,4.74-0.08,6.89c2.26-4.47,7.46-6.82,12.48-9.43c0.5-0.26,0.99-0.51,1.47-0.78
		c0.14,1.38-0.22,3.14,0.5,4.07C455.23,117.04,450.63,127.63,443.82,138.1z"/>
	<path class="st5" d="M445.73,101.28c-0.4,0.93-0.74,1.86-1.2,2.66c-0.77,1.33-1.91,2.29-4.29,2.34c-3.62,0.08-5.89,2.63-6.79,6.47
		c-0.9,3.83-1.76,7.8-5.19,10.75c2.35-8.62,1.99-17.34,2.05-26.09c0.02-4.05-1.25-5.81-5.41-6.95
		c-24.17-6.57-47.51-15.21-68.59-29.11c-2.67-1.75-5.67-3.3-7.72-5.64c-4.55-5.17-8.15-2.74-11.96,0.72
		c-10.22,9.22-13.88,21.65-16.56,34.45c-1.87,8.95-2.98,18.03-3.36,27.3c-0.53-2.67-1.22-5.33-1.54-8.04
		c-0.27-2.24-1.39-4.48-3.28-4.5c-3.51-0.02-5.24-1.46-6.25-3.57v-0.02c-0.53-1.14-0.86-2.47-1.15-3.86
		c-0.03-0.16-0.06-0.34-0.1-0.5c-1.3-17.02,0.16-33.47,9.54-48.4c2.67-4.24,5.77-8.12,9.34-11.61c3.33-3.23,7.85-5.51,7.78-11.31
		c-0.02-1.3,1.97-3.04,3.43-3.86c24.9-13.8,50.49-19.68,77.4-5.8c6.37,3.3,12.04,7.77,16.24,13.77c-0.14,0.56-0.29,1.1-0.46,1.63
		c-3.43,10.92-12.24,15.55-22.72,18.16c-14.56,3.62-29.26,6.01-44.36,4.69c24.18,9.14,56.68,14.83,77.93-4.1
		c0.4-0.34,0.78-0.69,1.17-1.06C446.58,66.4,448.04,83.62,445.73,101.28z"/>
	<path class="st4" d="M165,275.54c-0.21,0.11-0.4,0.22-0.61,0.34c-7.82,4.36-15.89,8.02-24.57,10.33c-0.4,0.1-0.8,0.21-1.2,0.3
		c-3.49-8.23-7.8-16.24-10.25-24.77c-3.2-11.18-11.08-15.84-21.27-17.15c-18-2.31-35.22-6.44-50.21-17.22
		c-2.98-2.15-6.25-2.47-9.66-2.48c-9.85-0.05-18.66-6.15-28.87-4.68c-2.99,0.43-5.11-3.28-8.39-4.1c-2-0.51-1.19-3.41,0.34-5.03
		c2.4-2.53,5.49-2.87,8.79-2.98c15.26-0.54,30.16,2.27,45.16,4.29c9.05,1.22,18.26,3.35,28.39,0.03c0.02,0,0.05-0.02,0.06-0.02
		c-0.02-0.02-0.03-0.02-0.05-0.02c0-0.02-0.02-0.02-0.02-0.02c-4.72-1.84-8.25-3.76-10.92-7.17c-2.32-2.93-2.53-5.73-1.02-8.87
		c1.73-3.56,4.26-4.9,7.46-1.84c6.41,6.1,14.48,7.65,22.76,9.19c16.62,3.07,29.85,10.33,35.07,28.12
		c3.59,12.24,9.1,23.78,15.13,35.04C162.64,269.61,164.6,272.25,165,275.54z"/>
	<path class="st6" d="M520.49,445.69c-14.01,10.36-29.21,18.03-46.22,22.42c-5.14,1.33-9.99,2.02-15.15,1.81
		c-0.37-0.14-0.72-0.32-1.07-0.5c-6.2-3.07-8.92-9.53-12.86-14.61c-3.35-4.31-6.17-5.91-11.79-5.25c-5.99,0.72-11.91,0.88-17.31,3.7
		h-0.02c-0.02,0.02-0.02,0.02-0.03,0c-0.35,0.18-0.66,0.37-0.99,0.59c-0.16,0.08-0.3,0.18-0.46,0.27c-1.14,0.42-2.32,0.59-3.51,0.67
		c-0.74,0.02-1.47,0.03-2.21,0.03c-0.64,0-1.28-0.02-1.92-0.08c-0.42-0.03-0.82-0.08-1.22-0.14c-3.32-0.54-4.48-2.13-2.26-5.32
		c-2.16,0.43-4.31,0.67-6.44,0.72c-0.02,0-0.03,0-0.03,0c-1.65,0.06-3.25,0.02-4.88-0.14c-0.56-0.05-1.14-0.1-1.68-0.19
		c-0.02-0.02-0.02-0.02-0.03,0c-0.02,0-0.02,0-0.03,0c-1.54-0.29-2.75-1.06-2.69-3.3v-0.06c0.05-0.13,0.11-0.24,0.16-0.37v-0.02
		c0.94-1.97,2.82-2.74,4.77-3.4c0.8-0.03,1.6-0.1,2.37-0.22H395c2.31-0.35,4.4-1.12,6.15-2.75c0.02,0,0.02-0.02,0.02-0.02
		c0.43-0.4,0.82-0.83,1.2-1.35c1.02-0.48,1.99-1.14,2.82-1.67c-3.76,1.84-8.18,3.49-12.62,5.09c-3.22,1.17-6.45,1.73-9.62,0.53
		c-0.62-0.22-1.25-0.54-1.87-0.93c-2.35-2.35-3.56-6.57-8.26-5.12l0.02-0.02c0.26-0.62,0.59-1.07,0.98-1.41
		c1.94-1.84,5.06-0.66,7.27-1.81c0.1-0.02,0.16-0.03,0.26-0.05h0.02c0.14-0.03,0.29-0.06,0.43-0.1h0.02
		c5.11-1.12,9.53-3.88,14.14-6.17c6.23-3.09,12.62-5.8,19.49-7.33c-11.31-1.83-22.93,2.21-33.79-2.98h-0.02
		c-0.19-0.08-0.37-0.18-0.56-0.27c-0.02-0.02-0.05-0.02-0.06-0.03c-2.64-1.76-2.02-3.81-0.54-5.96c0.26-0.26,0.51-0.45,0.8-0.62
		c0-0.02,0.02-0.02,0.02-0.02c0.18-0.11,0.34-0.21,0.51-0.27h0.02c0.11-0.06,0.22-0.11,0.34-0.16c0.05-0.02,0.08-0.03,0.13-0.03
		c0.59-0.21,1.2-0.32,1.83-0.38c4.42-0.61,9.06,1.01,13.32-1.35c2.56-1.35,5.35-1.14,8.1-1.22c6.04,0.02,12.06,0,18.1,0
		c1.81,0.02,3.6,0.05,5.41,0.02h0.02c0.22,0.02,0.46,0,0.69,0h0.24c1.44-0.03,2.88,0.06,4.29,0.37c0.08,0.02,0.18,0.03,0.26,0.05
		c0.29,0.06,0.58,0.14,0.86,0.21c0.03,0.38,0.06,0.77,0.11,1.15c6.45,2.43,10.75,7.3,14.81,12.6c4.1,5.35,7.73,11.05,12.56,15.85
		c6.31,6.28,8.89,6.65,16.61,1.91c6.85-4.23,12.73-9.67,18.99-14.67c-0.05-0.06-0.11-0.11-0.16-0.18c-0.02-0.08-0.02-0.18-0.02-0.26
		c0.18,0.05,0.35,0.08,0.53,0.14c8.02,6.26,14.48,14,20.96,21.72C520.01,445.12,520.25,445.4,520.49,445.69z"/>
	<path class="st7" d="M310.54,148.91c-4.71,8.04-3.46,16.56-1.91,24.93c1.12,6.02,0.16,11.29-2.64,16.62
		c-4,7.62-6.42,15.74-6.58,24.39c-0.02,0.54-0.02,1.07-0.02,1.62c-4.24,1.87-8.5,3.76-12.75,5.64c-0.18,0.08-0.34,0.14-0.51,0.22
		c-3.41-4.6-4.96-9.85-5.7-15.45c-1.02-7.91,1.73-13.82,8.33-18.37c8.36-5.75,8.3-5.97,2.29-13.87c-3.94-5.2-2.59-9.94,0.69-14.77
		c4.55-6.69,10.43-12.68,11.48-21.25c0.38,0.08,0.75,0.18,1.11,0.32c2.34,0.88,3.89,2.99,5.93,4.34c0.27,0.32,0.48,0.66,0.64,0.99
		C311.64,145.85,311.35,147.53,310.54,148.91z"/>
	<path class="st8" d="M439.66,49.83c-0.22,0.78-0.5,1.49-0.83,2.15c-1.06,2-2.71,3.46-4.98,4.69c-12.2,6.57-24.66,9.66-38.85,7.96
		c-13.13-1.55-25.8-4.04-38.08-8.74c-0.7-0.26-1.57-0.37-1.51-1.92c2.02-1.07,4.44-0.66,6.68-0.51c14.67,0.91,28.97-1.23,43.09-4.92
		c5.91-1.54,11.8-3.35,16.03-8.28c1.91-2.23,4.4-4,3.65-7.65c-0.35-1.63,0.43-1.92,1.41-1.97c0.62-0.03,1.33,0.03,1.84-0.13
		C433.67,35.93,437.47,42.4,439.66,49.83z"/>
	<path class="st9" d="M475.42,220.06c-0.06-0.06-0.11-0.11-0.18-0.18c-4.52-4.4-11.16-5.96-15.07-11.23
		c-0.7-0.98-1.59-1.65-2.58-2.18c-1.07-0.58-2.26-1.01-3.38-1.52c-6.5-2.98-9.03-8.18-6.34-14.62c6.13-14.62,2.5-27.21-7.4-38.66
		c-1.92-2.21-3.35-4.66-4.16-7.41c-0.1-0.3-0.18-0.62-0.26-0.94c1.91-1.63,4.26-2.35,6.55-3.19c0.27-0.1,0.56-0.19,0.83-0.3
		c1.49,3.89,4.71,6.47,7.27,9.56c0.8,2.42,2.82,3.65,4.74,5c4.74,4.44,7.99,9.88,10.46,15.77c2.87,6.9,2.42,13.53-1.99,19.84
		c-3.7,5.3-2.9,7.88,2.95,10.62c1.44,0.67,2.99,1.1,4.45,1.73C482.08,206.96,483.08,211.24,475.42,220.06z"/>
	<path class="st10" d="M319.84,436.48c-0.42,10.62,0.16,21.38-1.52,31.79c-1.51,9.27-2.66,18.66-4.64,27.87
		c-0.86,3.97-3.35,6.05-7.33,5c-6.04-1.6-11.85-4.18-17.95-5.46c-3.27-0.69-6.21-1.92-8.98-3.44c-0.03,0-0.05-0.02-0.06-0.03
		c-5.25-2.87-9.93-6.74-15.09-9.75c-1.87-1.11-4.21-0.94-5.97-2.08c-0.37-0.22-0.7-0.51-1.01-0.88c0.11-2.72,2.19-4.6,3.04-7
		c0.22,0.14,0.46,0.27,0.69,0.42c10.19,6.1,20.18,12.56,31.68,16.06c18.78,5.73,14.41,6.21,17.39-10.47
		c1.99-11.11,2.64-22.45,3.89-33.69c0.88-1.86,0.42-3.83,0.43-5.73c0.02-1.36,0.22-2.51,1.12-3.15c0.03-0.03,0.06-0.05,0.1-0.06
		c0.03-0.03,0.06-0.05,0.1-0.06c0.35-0.21,0.82-0.35,1.39-0.42c0.94-0.02,1.81,0.19,2.48,0.85
		C319.68,436.29,319.76,436.39,319.84,436.48z"/>
	<path class="st11" d="M460.38,480.67c-0.53-0.14-1.01-0.21-1.47-0.22c-2.32-0.05-3.99,1.39-5.65,3.17
		c-4.72,5.01-10.97,7.77-16.88,11.02c-2.91,1.6-8.07,2.69-2.11,7.06c0.72,0.53,0.83,1.44,0.37,2.13c-0.75,1.15-1.83,0.58-2.59,0.05
		c-1.47-1.01-2.95-2.07-4.21-3.3c-1.68-1.62-3.22-1.41-5.4-0.9c-11.15,2.69-22.29,5.56-33.9,5.14c-1.57-0.06-3.97,1.14-4.53-1.43
		c-0.45-2.03-0.53-4.37,1.89-5.64c0.05-0.06,0.1-0.11,0.14-0.16c1.51-1.76,3.72-2.05,5.78-2.34c21.68-3.01,42.05-9.64,60.52-21.62
		c0.48-0.3,1.04-0.48,1.6-0.66c0.02,0,0.05-0.02,0.06-0.02c0.24-0.05,0.46-0.08,0.69-0.08c0.43,0,0.83,0.06,1.22,0.22
		c0.29,0.11,0.56,0.26,0.82,0.45C458.37,475.72,459.61,478.07,460.38,480.67z"/>
	<path class="st12" d="M459.12,469.92c-1.1,1.01-2.45,1.86-2.4,3.64c-0.26,0-0.5,0.02-0.75,0.02c-0.56,0-1.14,0-1.7,0.02
		c-0.11-0.21-0.21-0.4-0.34-0.61c-3.6-6.66-9.62-11.61-13.04-18.45c-0.86-1.73-2.93-2.05-4.74-2.05c-4.96,0.02-9.95-0.77-14.77,1.43
		c-2.05,0.93-4.36,1.36-6.34-0.05c-0.3-0.21-0.59-0.46-0.86-0.75c4.37-4.1,10.04-3.72,15.39-4.93c9.21-2.1,14.72,1.09,19.2,8.9
		c2.55,4.44,6.37,8.14,9.72,12.11C458.72,469.42,458.91,469.68,459.12,469.92z"/>
	<path class="st13" d="M455.45,154.39c-0.58-0.14-1.19-0.27-1.75-0.45h-0.02c-1.62-0.46-2.98-1.19-3.09-3.09
		c-0.03-0.42,0-0.9,0.11-1.46C452.66,150.7,454.28,152.34,455.45,154.39z"/>
	<path class="st14" d="M381.34,433.96c-2.38,2.58-6.04,0.05-8.55,2.14c-16.46,1.58-32.92,1.38-49.39,0.13
		c-4.16-0.09-5.32-2.68-5.37-6.32c-0.12-8.59,0.15-17.19-0.09-25.78c-0.71-24.95-2.64-49.81-5.37-74.63
		c-3.2-29.07-2.8-57.86,7.9-85.67c0.5-1.31,0.93-2.64,1.8-3.76c0.44-0.56,1.02-0.91,1.72-1.06c3.03,0.3,4.85,2.54,6.84,4.44
		c13.33,12.68,30.42,15.44,47.26,7.63c3.07-1.42,6.01-3.12,9.11-4.44c2.28-0.98,4.53-1.01,3.51,2.71
		c-0.99,7.81-1.58,15.7-3.09,23.41c-1.61,8.21-1.86,16.46-2.29,24.73c-1.22,18.31-0.38,36.68-1.76,54.99
		c-1.31,4.07-0.81,8.26-0.82,12.41c-0.06,12.5,0.01,24.99-0.05,37.49c-0.01,2.53,0.43,5.21-1.46,7.4c0.19,1.7-2.27,3.29-0.22,5.07
		C383.97,421.18,383.68,427.55,381.34,433.96z"/>
	<path class="st3" d="M414.18,453.1c6.36,1.04,11.9-3.08,18.43-2.52c5.27,0.45,9.32,0.77,11.73,6.32c1.95,4.5,5.47,8.14,9.01,11.56
		c1.66,1.6,2.36,3.1,0.92,5.13c-15.56,11.89-33.67,17.64-52.49,21.58c-5.25,1.1-10.6,1.73-15.9,2.58c-2.01-0.25-2.45-1.56-2.54-3.36
		c-0.83-16.9-1.68-33.8-0.89-50.73c2.21-1.55,3.5-0.67,4.28,1.59c-0.19,2.82,0.69,4.56,3.97,4.41c4.34-0.2,8.29-0.28,11.64,3.98
		c1.7,2.16,5.96,1.13,8.97-0.28C412.26,453.27,413.22,453.19,414.18,453.1z"/>
	<path class="st15" d="M323.42,239.5c-3.93,14.12-8.45,28.08-10.17,42.77c-0.96,8.18-0.84,16.33-0.48,24.45
		c0.9,20.2,3.41,40.29,4.97,60.45c1.64,21.28,2.15,42.51,1.98,63.79c-0.02,3.06,1.48,4.19,3.68,5.26c-1.19,0.09-2.38,0.17-3.57,0.26
		c-0.77-0.08-1.54-0.15-2.31-0.23c-1.03-0.84-2.51,0.05-3.5-0.93c-0.13-18.2,0.43-36.43-0.53-54.59
		c-1.52-28.64-4.62-57.21-5.95-85.86c-0.69-15.05,1.56-30.12,7.44-44.31c1.88-4.55,2.77-9.54,6-13.48
		C323.49,236.17,324.35,236.93,323.42,239.5z"/>
	<path class="st16" d="M385.93,445.58c-0.41-1.99-1.97-1.92-3.48-1.92c-0.46-0.81-0.92-1.63-1.38-2.44
		c8.48,1.16,15.7-2.75,23.01-5.98c2.47-1.09,4.68-1.62,8.41-0.65c-3.85,1.74-6.81,3.08-9.77,4.42c-2.66,2.7-6.25,3.48-9.66,4.63
		c-1.59,0.79-3.17,1.59-4.76,2.38C387.35,446.73,386.54,446.68,385.93,445.58z"/>
	<path class="st0" d="M535.67,370.31c-7.03,13.26-16.16,25.09-25.14,37.04c-3.94,5.24-8.7,9.86-11.72,15.77
		c-0.18-0.06-0.35-0.1-0.53-0.14c0,0.08,0,0.18,0.02,0.26c0.05,0.06,0.11,0.11,0.16,0.18c-6.26,5-12.14,10.44-18.99,14.67
		c-7.72,4.74-10.3,4.37-16.61-1.91c-4.82-4.8-8.46-10.51-12.56-15.85c-4.07-5.3-8.36-10.17-14.81-12.6
		c-0.05-0.38-0.08-0.77-0.11-1.15c-0.78-8.18,0.34-16.24,1.86-24.26c0.19-1.36,0.1-2.83,0.59-4.07c4.13-10.3,8.28-20.59,12.59-30.83
		c6.39-15.23,9.58-31.12,10.09-47.58c0.02-0.05,0.02-0.08,0.03-0.13v-0.02c0.06-0.27,0.11-0.53,0.16-0.78
		c0.35-1.59,0.72-3.25,1.22-5.48c7.09,5.96,13.8,11.51,20.45,17.17c16.82,14.35,33.6,28.75,50.4,43.11
		C540.32,360.17,540.57,361.08,535.67,370.31z"/>
	<path class="st1" d="M460.5,299.83c-0.51,16.46-3.7,32.35-10.09,47.58c-4.31,10.23-8.46,20.53-12.59,30.83
		c-0.5,1.23-0.4,2.71-0.59,4.07c-1.52,8.02-2.64,16.08-1.86,24.26c0.03,0.38,0.06,0.77,0.11,1.15c-0.51-0.45-0.93-0.91-1.23-1.41
		c-1.68-2.61-0.78-5.8-0.91-8.71c-0.26-5.04,1.12-9.91,2.08-14.81c0.11-0.5,0.24-0.99,0.35-1.49c0.14-0.56,0.29-1.1,0.43-1.67
		c2.4-9.19,5.96-18.02,10.03-26.57c7.16-15.01,10.31-30.92,12.36-47.21C458.85,303.73,458.42,301.38,460.5,299.83z"/>
	<path class="st1" d="M498.81,423.12c-0.11,0.1-0.24,0.19-0.35,0.29c-0.05-0.06-0.11-0.11-0.16-0.18c-0.02-0.08-0.02-0.18-0.02-0.26
		C498.45,423.03,498.63,423.06,498.81,423.12z"/>
	<path class="st17" d="M460.69,298.9c-0.05,0.26-0.1,0.51-0.16,0.78v0.02c-0.02,0.05-0.02,0.08-0.03,0.13
		c-0.51,16.46-3.7,32.35-10.09,47.58c-4.31,10.23-8.46,20.53-12.59,30.83c-0.5,1.23-0.4,2.71-0.59,4.07
		c-0.48-0.35-0.96-0.69-1.46-1.01c-13.2-9.14-27.77-15.07-43.56-18.03c-6.13-1.15-6.95-0.34-7.01,6.04
		c-0.1,9.42-0.05,18.82-0.02,28.22c0.02,8.22,1.46,9.66,9.66,7.67c9.7-2.35,19.49-1.6,29.26-1.57c2.21,0,4.95-0.19,5.86,2.32
		c0.16,0.43,0.27,0.96,0.3,1.59c-2.03-0.06-4.07-0.13-6.09-0.18c-6.34-0.62-12.67-0.51-19.01-0.08c-2.64,0.5-5.28,0.99-7.94,1.49
		h-0.02c-0.02,0-0.05,0.02-0.06,0.02c-4.44,1.54-9.1-0.13-13.58,0.93c-0.43-0.06-0.86-0.11-1.31-0.18
		c-0.05-0.21-0.08-0.42-0.13-0.62c-0.02-0.11-0.03-0.21-0.06-0.32c-1.02-5.78-0.4-11.64-0.32-17.44c0.14-12.84-0.82-25.72,0.5-38.55
		c0-0.06,0.02-0.11,0.02-0.18c0.4-15.53,0.37-31.1,2.03-46.59v-0.02c0.29-2.77,0.64-5.54,1.06-8.31c0.91,9.34,1.14,18.7-0.11,27.96
		c-0.61,4.55,1.06,5.2,4.63,5.3c8.89,0.29,17.38-1.97,25.59-4.8c6.26-2.16,12.52-4.37,17.74-9.27c8.82-8.26,14.52-17.33,12.75-29.91
		c-0.21-1.46-0.8-3.51,0.78-4.42c1.84-1.06,2.58,1.27,3.88,1.99c0.35,0.19,0.66,0.48,1.01,0.62
		C457.81,287.72,462.04,291.63,460.69,298.9z"/>
	<path class="st18" d="M328.1,222.95c2.17-5.93,5.62-11.2,8.58-16.72c1.86-2.88,5.86-3.47,7.24-6.85
		c2.07-10.16,1.89-9.78,11.37-5.43c7.86,3.61,16.32,2.36,24.52,0.73c3.68-0.73,7.15-2.33,10.59-3.92c2.77-1.28,5.41-1.63,6.9,1.92
		c1.27,4.14,5.46,5.55,7.96,8.54c-3.29,9.58-6.58,19.16-9.87,28.74c-6.6,9.87-16.78,13.9-27.7,15.72
		c-17.1,2.85-30.23-4.29-40.17-18.02C326.88,225.99,327.18,224.43,328.1,222.95z"/>
	<path class="st13" d="M405.25,201.22c-4.44-0.65-7.41-3.06-8.78-7.37c-0.73-4.4-3.01-8.83,0.24-13.15
		c13.13-8.56,22.14-20.58,28.49-34.65c1.72-3.81,2.69-7.04,7.35-3.02c0.72,0.62,2.32,0.22,3.51,0.29
		c8.01,8.73,15.14,18.29,16.61,30.2c0.62,5-0.06,10.93-2.77,16.12c-3.6,6.87-1.5,11.16,5.99,13.97c2.29,0.86,4.13,2.31,4.3,5.07
		c-7.36-0.51-13.55-4.84-20.77-6.1C428.03,200.57,416.76,198.62,405.25,201.22z"/>
	<path class="st19" d="M328.24,227.42c1.05,0.9,2.27,1.66,3.12,2.71c17.21,21.28,43.18,17.03,61.24,2.05
		c0.91-0.76,1.85-1.48,2.77-2.22c-0.92,6.62-2.25,13.14-4.66,19.4c-0.35-3.06-1.68-2.32-3.55-1.11c-8.95,5.79-18.5,8.52-29.47,8.38
		c-11.29-0.14-20.28-3.58-27.72-11.8c-1.72-1.9-3.62-3.62-5.44-5.42C322.98,234.55,324.06,230.51,328.24,227.42z"/>
	<path class="st20" d="M344.85,201.03c-2.13,2.67-4.67,4.7-8.18,5.2c-12.8,2.05-24.98,6.39-37.28,10.25
		c-4.16-8.56,0.19-16.31,3.73-23.21c4.09-7.99,5.48-15.71,3.38-24.05c-1.8-7.16-1.18-13.71,2.38-20.16
		c0.92-1.67,0.94-3.83,1.37-5.76c8.13-3.88,9.52,1.7,11.76,7.64c4.89,12.96,13.81,23.14,24.14,32.15c0.65,0.77,1.4,1.79,1.01,2.62
		C344.84,190.6,346.45,196.06,344.85,201.03z"/>
	<path class="st21" d="M328.24,227.42c-1.57,3.89-3.7,7.61-3.71,11.99c-0.37,0.04-0.74,0.07-1.12,0.09
		c-0.03-1.6-0.87-2.37-2.44-2.41c1.11-5.35,3.51-10.05,7.12-14.14C328.15,224.44,328.2,225.93,328.24,227.42z"/>
	<path class="st2" d="M314.03,435.33c1.17,0.31,2.33,0.62,3.5,0.93c-4.93,1.28-0.75,6.37-3.57,8.53
		C313.98,441.64,314,438.48,314.03,435.33z"/>
	<path class="st22" d="M417.31,96.58c4.12,4.18,4.03,8.65,0.92,13.33c-1.57,0.53-2.81-0.31-3.75-1.29
		c-7.6-7.94-20.22-4.8-27.37,4.94c-1.33,1.81-1.72,4.66-4.76,4.83c-5.63-6.27-4.27-13.41-2.55-20.59
		C392.04,89.32,404.57,89.79,417.31,96.58z"/>
	<path class="st23" d="M359.78,97.78c-0.19,8.54,0.72,17.38-6.46,24.04c-1.4-0.84-2.16-2.01-1.94-3.69
		c0.53-13.23-9.7-19.64-21.79-13.79c-2.23,1.08-4.45,4.56-7.42,0.99c0.95-4.08-2.08-8.9,2.32-12.33
		C337.42,86,349.05,88.54,359.78,97.78z"/>
	<path class="st24" d="M344.85,201.03c0.43-5.98,0.87-11.97,1.3-17.95c0.58,0.1,1.29,0.03,1.74,0.34
		c16.99,11.85,33.09,7.88,48.82-2.72c-0.08,4.39-0.16,8.77-0.24,13.16c-0.94-3.09-3.1-3.26-5.37-1.85
		c-9.72,6.04-20.49,5.79-31.28,5.44c-5.11-0.17-8.18-4.6-12.7-6.49C344.9,194.14,348.04,198.34,344.85,201.03z"/>
	<path class="st25" d="M390.56,152.88c-1.29,9.83-11.58,19.54-21.78,20.55c-8.8,0.87-17.75-5.3-21.29-14.96
		c-0.81-2.2-2.5-4.15-2.25-6.71c0.54-0.27,1.09-0.29,1.66-0.07c2.92,1.6,4.28,4.65,6.44,6.96c8.39,8.94,18.84,9.29,27.98,1.12
		C384.17,157.23,385.97,153.14,390.56,152.88z"/>
	<path class="st26" d="M390.56,152.88c-2.55,2.5-5.01,5.09-7.65,7.49c-10.82,9.79-21.42,9.3-31.24-1.47c-2-2.19-3.66-4.69-5.48-7.05
		c-0.13-2.54,1.46-1.71,2.7-1.31c1.97,0.63,3,2.48,4.5,3.71c10.26,8.48,21.39,7.76,31.82-2.06c4.08-2.61,4.08-2.61,5.74-0.25
		C390.75,152.22,390.62,152.54,390.56,152.88z"/>
	<path class="st27" d="M382.35,118.4c2.9-5.02,5.98-9.86,11.2-12.89c8.2-4.76,14.55-3.67,24.68,4.4c0.58,1.3,3.45,0.4,2.83,1.87
		c-0.76,1.82-3.21,1.66-5.14,1.57c-3.54,0.03-5.78-3.02-8.99-3.76c-4.87-1.91-8.81,1.01-13.02,2.52c-4.45,2.02-6.55,7.28-11.61,8.44
		C382.32,119.83,382.34,119.11,382.35,118.4z"/>
	<path class="st28" d="M352.24,155.32c-2.36-0.56-2.05-5.77-6.05-3.48c-0.32-0.01-0.64-0.04-0.96-0.08
		c-0.42-1.75-0.72-3.13,2.09-2.61c4.08,0.76,8.3,0.82,12.35,1.7c9.19,2,18.15,0.28,27.14-1.14c3.51-0.55,3.73-0.52,4.14,2.21
		c-2.46-2.84-3.33,0.86-5.01,1.21C375.11,160.13,363.77,159.21,352.24,155.32z"/>
	<path class="st29" d="M301.8,120.29c0.16-6.36,4.3-9.24,9.22-6.25c2.06,1.25,4.09,2.93,1.33,5.67c-2.19,2.17-2.67,4.7-1.23,7.66
		c0.74,1.53,2.94,3.72-0.1,4.97c-2.35,0.97-4.77,0.12-6.46-1.93C302.64,128.08,301.69,124.37,301.8,120.29z"/>
	<path class="st30" d="M447.28,119.75c-0.51,6.48-1.96,11.56-8.72,13.1c-1.56,0.35-3.11,1.33-4.08-0.69
		c-0.8-1.66,0.55-2.69,1.64-3.39c2.94-1.88,3.24-4.22,1.67-7.08c-0.85-1.54-3.79-2.64-1.57-4.87c2.43-2.43,5.67-2.84,8.86-1.8
		C447.67,115.87,447.96,117.98,447.28,119.75z"/>
	<path class="st31" d="M417.31,96.58c-0.84,1.84-1.97,0.59-2.87,0.17c-10.95-5.04-21.7-5.25-32.23,1.18
		c-0.79,0.48-1.68,1.23-2.41-0.13C390.29,84.19,402.74,83.78,417.31,96.58z"/>
	<path class="st32" d="M322.17,105.33c3.09,1.83,4.68-1.17,6.74-2.26c11.82-6.24,23.23-0.4,24.43,12.64c0.09,1.01,0.12,2-0.98,2.55
		c-2.13-1.14-2.59-3.52-3.94-5.23c-4.15-4.39-8.64-7.84-15.22-5.74c-2.91,0.9-5.58,2.81-8.86,2.23c-1.3-0.72-2.98-1.14-3.81-2.22
		C318.9,105.18,320.09,104.72,322.17,105.33z"/>
	<path class="st33" d="M359.78,97.78c-0.48,0.89-1.1,0.97-1.85,0.32c-9.61-8.22-20.29-9.35-31.86-4.89
		c-0.43,0.17-1.05-0.13-1.58-0.22c5.23-5.02,11.34-7.72,18.72-7.39C351.49,85.97,356.77,90.29,359.78,97.78z"/>
	<path class="st34" d="M393.05,110.95c4.67-1.73,9.02-5.26,14.47-2.55c0.64,6.4,1.12,12.73-6.44,15.79
		c-1.54,0.06-3.08,0.11-4.61,0.17c-2.38-0.14-3.62-1.66-3.6-3.79c0.02-2.49,2.18-2.89,4.14-3.26c1.8-0.06,4.24-0.66,3.5-2.55
		c-1.07-2.71-2.53,0.72-3.98,0.6C392.73,115.98,391.79,114.33,393.05,110.95z"/>
	<path class="st35" d="M324.34,109.51c2.9-1.13,5.8-2.27,8.7-3.4c4.79-2.17,4.36,3.25,6.73,4.62c1.12,1.64,0.99,3.11-0.55,4.41
		c-2.25,0.73-2.71,2.83-3.56,4.64c-5.19,1.25-6.97-3.01-9.43-5.99C325.27,112.62,324.95,110.95,324.34,109.51z"/>
	<path class="st36" d="M339.05,110.98c-1.1-0.75-3.58-0.19-2.9-2.64c1.08-3.89-2.19-1.34-3.12-2.23c7.44-2.96,12.17,1.3,16.63,6.26
		c-1.34,4.4-2.18,9.23-8.19,9.68c-2.3,0.16-4.15-0.85-5.83-2.27c-1.77-3.49-1.4-5.69,3.22-5.33c1.64,0.32,3.35,0.27,3.5-1.77
		C342.56,110.04,340.33,111.24,339.05,110.98z"/>
	<path class="st37" d="M393.05,110.95c0.91,1.51,0.01,4.83,3.64,3.62c2.55,0.53,2.14,1.96,1.1,3.58c-5.38,1.03-4.5,3.38-1.31,6.21
		c-5.06-0.02-10.47,1.26-14.17-3.81C385.84,117.3,388.8,113.4,393.05,110.95z"/>
	<path class="st38" d="M401.09,124.19c5.91-3.73,4.66-10.38,6.44-15.79c3.21,0.94,6.08,2.48,8.39,4.95
		C413.77,120.79,408.71,124.24,401.09,124.19z"/>
	<path class="st39" d="M341.48,122.04c4.81-1.46,4.97-6.87,8.19-9.68c0.89,1.96,1.79,3.93,2.69,5.89c-0.46,1.4,0.45,2.43,0.97,3.56
		C349.38,121.94,345.48,124.55,341.48,122.04z"/>
	<path class="st3" d="M435.37,406.56c0.03,0.38,0.06,0.77,0.11,1.15c-1.75-0.06-3.49-0.13-5.22-0.19c-0.34-0.62-0.74-1.17-1.23-1.59
		h-0.02c-0.56-0.45-1.23-0.7-2.03-0.67c-9.53,0.42-19.14-1.28-28.6,1.07c-1.15,0.29-2.31,0.59-3.48,0.85
		c-9.88,2.21-11.45,0.98-11.45-9.02c0-10.78,0.14-21.57-0.08-32.37c-0.08-3.96,1.33-5.78,5.17-4.98c10.01,2.1,20.34,3.03,29.15,9.29
		c2.93,2.1,6.98,2.66,10.55,3.8c3.46,1.09,6.33,2.72,7.96,5.72c0.43,0.78,0.78,1.68,1.02,2.67
		C435.71,390.32,434.59,398.38,435.37,406.56z"/>
	<path class="st40" d="M381.34,433.96c-0.1-6.37-0.21-12.73-0.31-19.09c12.16,4.72,25.28-0.13,37.9,3.47
		c-3.17,4.03-7.77,3.38-11.5,4.8c-6.89,2.62-13.26,6.26-19.85,9.48C385.56,433.61,383.65,434.54,381.34,433.96z"/>
	<path class="st41" d="M385.93,445.58c0.79,0.15,1.58,0.29,2.37,0.44c4.14,4.95,9.35,1.83,14.12,1.77c1.28-0.02,2.55-0.99,3.99-1.59
		c1.8,3.66-2.26,3.99-3.35,6.32c2.78,1.34,5.63,0.29,8.26,0.84c-4.26,2.9-8.39,4.28-12.15-0.82c-2.37-3.22-5.81-1.14-8.74-1.51
		C387,450.6,383.7,450.48,385.93,445.58z"/>
	<path class="st3" d="M382.24,352.43c0,19.04,0.01,38.07,0.01,57.11c-0.31,0.2-0.64,0.28-1,0.26c0.04-17.2,0.05-34.4,0.14-51.6
		C381.41,356.26,380.79,354.17,382.24,352.43z"/>
	<path class="st3" d="M405.17,407.27c6.34-1.34,12.68-1.5,19,0.08C417.84,407.32,411.5,407.3,405.17,407.27z"/>
	<path class="st41" d="M393.06,443.63c2.88-2.25,6.26-3.46,9.66-4.63C401.06,443.81,397.15,443.92,393.06,443.63z"/>
	<path class="st3" d="M383.56,409.7c4.44-1.95,9.12-0.39,13.65-0.93C392.77,410.7,388.14,409.77,383.56,409.7z"/>
	<path class="st42" d="M352.24,155.32c0.27-0.26,0.62-0.79,0.8-0.74c11.13,3.14,22.07,2.13,32.9-1.44
		C376.22,163.69,363.23,164.53,352.24,155.32z"/>
	<path class="st43" d="M397.79,118.15c0.57-1.48,0.26-2.69-1.1-3.58c1.2-1.77,2.18-4.16,4.93-3.08c1.55,0.61,1.36,2.55,0.87,3.69
		C401.68,117.04,401.36,120.39,397.79,118.15z"/>
	<path class="st44" d="M339.05,110.98c1.07-2.12,2.8-3.26,4.67-1.41c2.19,2.17,0.4,4.66-0.97,6.29c-1.73,2.06-3.04,0.38-3.88-1.43
		C339.9,113.33,340.14,112.19,339.05,110.98z"/>
</g>
</svg>
