<?xml version="1.0" encoding="utf-8"?>
<!-- Generator: Adobe Illustrator 26.0.0, SVG Export Plug-In . SVG Version: 6.00 Build 0)  -->
<svg version="1.1" id="Capa_1" xmlns="http://www.w3.org/2000/svg" xmlns:xlink="http://www.w3.org/1999/xlink" x="0px" y="0px"
	 viewBox="0 0 618.65 394.76" style="enable-background:new 0 0 618.65 394.76;" xml:space="preserve">
<style type="text/css">
	.st0{fill:none;}
	.st1{fill:#FFFFFF;}
	.st2{fill:#D5A0A6;}
	.st3{fill:#7AAC5D;}
	.st4{fill:#8A5858;}
	.st5{fill:#CA9198;}
	.st6{fill:#DCA09D;}
	.st7{fill:#DCA09E;}
	.st8{fill:#E3B8B8;}
	.st9{fill:#955458;}
	.st10{fill:#638A49;}
	.st11{fill:#DC9F9D;}
	.st12{fill:#638A48;}
	.st13{fill:#B6C7DB;}
	.st14{fill:#B1656B;}
	.st15{fill:#C85E6E;}
	.st16{fill:#D7A1A8;}
	.st17{fill:#85474D;}
	.st18{fill:#A97576;}
	.st19{fill:#DB9E9B;}
	.st20{fill:#B8C9DC;}
	.st21{fill:#E4E9ED;}
	.st22{fill:#D58884;}
	.st23{fill:#D48785;}
	.st24{fill:#CF919A;}
	.st25{fill:#813E47;}
	.st26{fill:#7A3F47;}
	.st27{fill:#96A8C2;}
	.st28{fill:#B8C8D9;}
	.st29{fill:#D38483;}
	.st30{fill:#E4B9B7;}
	.st31{fill:#E2B4B7;}
	.st32{fill:#F3E1CB;}
	.st33{fill:#CF8683;}
	.st34{fill:#D1817F;}
	.st35{fill:#7E464A;}
	.st36{fill:#B32A20;}
	.st37{fill:#F2EEEF;}
	.st38{fill:#8C342F;}
	.st39{fill:#CC6F7D;}
	.st40{fill:#D48784;}
	.st41{fill:#C55A5D;}
	.st42{fill:#88484D;}
	.st43{fill:#824249;}
	.st44{fill:#E4BABB;}
	.st45{fill:#E4B8BA;}
	.st46{fill:#ECD1D1;}
	.st47{fill:#E3B7B7;}
	.st48{fill:#EDD4D4;}
	.st49{fill:#3C3745;}
	.st50{fill:#303241;}
	.st51{fill:#45404A;}
	.st52{fill:#733F40;}
	.st53{fill:#78403D;}
</style>
<g>
	<path class="st0" d="M618.65-72.72c0.01-6.37-1.25-7.63-7.63-7.62c-253.85,0.21-507.7,0.21-761.55,0
		c-6.37-0.01-7.63,1.25-7.62,7.62c0.22,156.37,0.22,312.73,0,469.09c-0.01,6.38,1.25,7.64,7.62,7.63
		c126.93-0.24,253.85-0.18,380.78-0.18c126.92,0,253.85-0.06,380.77,0.18c6.38,0.01,7.64-1.26,7.63-7.63
		C618.42,240.01,618.42,83.64,618.65-72.72z M601.93,353.74c-2.69-0.52-5.41-0.06-7.69,1.76c0.02,9.3-0.55,18.65,0.24,27.88
		c0.75,8.77-1.71,11.42-10.98,11.38c-90.5-0.38-181.01-0.22-271.52-0.22c-94.22,0-188.45-0.13-282.67,0.2
		c-8.66,0.03-11.55-2.37-10.52-10.79c1.16-9.45-1.69-19.18,1.85-28.5c-3.15-1.07-6.32-2.44-9.72-1.73
		c-10.02,2.1-12.14-2.83-10.34-11.38c0.39-3.75,3.25-2.96,5.57-2.94c21.51,0.22,43.02,0.48,64.54,0.73
		c1.29-0.58,2.59-1.17,3.89-1.75c-2.25-4.45-2.65-7.47,4.09-7.28c10.78,0.32,21.57,0.18,32.36,0.03c2.92-0.04,6.25,1.18,8.62-1.78
		c-0.8-16.76-0.8-16.72-18.23-16.76c-22.49-0.06-44.97-0.18-67.45-0.27c-5.37,1.14-7.79-0.32-7.77-6.5
		c0.19-55.38,0.11-110.75,0.1-166.13c0-7.53,3.59-11.46,11.28-11.39c11.75,0.1,23.51,0.18,35.26,0.26h0.01
		c50.31,0,100.63-0.01,150.94-0.02c10.68-0.08,21.38,0.19,32.03-0.36c7.51-0.38,12.39,2.02,14.2,9.55
		c-0.05,55.14-0.09,110.28-0.13,165.42c-1.86,7.86-7.81,9.23-14.63,9.18c-22.87,0-45.74,0-68.62,0.01h-4.01
		c-3.43,0.05-5.73,0.97-5.44,5.22c0.27,3.9-0.1,7.85-0.19,11.78c12.46,4,25.26,1.31,37.89,1.64c5.84,0.15,7.69,2.1,7.16,7.41
		c21.07,0.01,42.13,0.03,63.19,0.04h0.01c0.53-3.62-1.74-7.69,1.7-10.86c3.08-0.03,6.17-0.05,9.25-0.08
		c0.07-0.76,0.14-1.52,0.2-2.28c-0.11-0.42-0.21-0.84-0.32-1.26c-3.6-2.91,0.55-4.99,0.81-7.48c1.19-11.77,1.71-23.56,1.05-35.38
		c0.41-25.9,13.27-45.31,32.12-61.6c10.45-8.28,21.82-14.62,35.27-16.48c3.22-2.12,6.78-2.45,10.49-1.92
		c0.3-3.84,0.6-7.67,0.9-11.51c-0.06-5.51-0.12-11.01-0.18-16.52c-0.49-4.75-5.28-4.58-7.93-6.84
		c-12.93-11.04-21.18-24.18-20.2-41.94c0.41-7.35,0.25-14.73,0.35-22.1c-3.31-5.44-1.83-11.03-0.51-16.62
		c-0.54-0.53-1.08-1.06-1.62-1.6C338,72.5,341.31,59.34,341.6,46.7c0.09-3.83,1.97-7.62,3.03-11.43c-3.66-1.9-7.32-3.8-11.45-5.94
		c5.18-6.21,11.23-9.62,18.35-11.32c15.3-8.03,31.91-6.86,48.38-7.27c1.82-0.04,9.76,5.17,6.75-4.35c-0.29-0.92,2.56-1.05,3.98-0.5
		c10.66,4.17,22.25,6.36,31.16,14.36c3.7,2.48,7.41,4.97,11.11,7.46c4.09-0.47,2.51-5.14,5.48-7.27c2.34,2.81-1.25,5.91,0.86,8.79
		c2.22-0.97,4.6-2.01,6.98-3.05c-5.16,2.76,2.83,6.25-0.94,10.86c-2.82,3.45,0.65,11.55,0.07,17.46c-0.6,6.11-1.23,12.19-1.54,18.33
		c-0.31,6.11-1.24,12.19-1.9,18.28c7.66,3.09,13.31,7.37,10.48,16.97c-2.74,9.32-5.13,10.38-19.69,7.84
		c2.98,26.65-8.35,45.46-31.89,57.23c-0.01,3-0.01,6-0.02,9c0.32,6.36,0.64,12.72,0.96,19.08c3.42-0.11,6.84-0.23,10.26-0.34
		c13.74-0.91,25.41,3.99,35.73,12.7c11.75,6.4,17.92,17.31,22.12,29.17c4.35,12.27,7.38,24.99,10.99,37.52
		c1.61,13.06,5.74,25.52,9.27,38.11c2.69,3.38,5.1,0.56,7.6-0.34c10.49-5.23,20.97-10.33,33.22-5.88c2.93,1.06,6.27,1.31,5.96,5.63
		c1.94,0.83,3.88,1.66,5.81,2.49c1.17,0,2.33,0,3.5-0.01c5.14,0.16,8.68,2.88,11.32,7.05c1.45,0.24,3.3-0.24,3.61,2.03
		c0.13,3.1,2.7,5.72,1.81,9.03c0.38,0.07,0.77,0.12,1.15,0.17c2.34,0.08,4.69,0.18,7.03,0.3c7.19-0.16,14.45-1.2,21.41,1.73
		c0.1,0.59,0.18,1.19,0.29,1.78C614.67,351.41,611.59,355.62,601.93,353.74z"/>
	<path class="st1" d="M612.84,342.37c-0.11-0.59-0.19-1.19-0.29-1.78c-6.96-2.93-14.22-1.89-21.41-1.73
		c-2.34-0.12-4.69-0.22-7.03-0.3c-0.38-0.05-0.77-0.1-1.15-0.17c0.89-3.31-1.68-5.93-1.81-9.03c-0.31-2.27-2.16-1.79-3.61-2.03
		c-2.64-4.17-6.18-6.89-11.32-7.05c-1.17,0.01-2.33,0.01-3.5,0.01c-1.93-0.83-3.87-1.66-5.81-2.49c0.31-4.32-3.03-4.57-5.96-5.63
		c-12.25-4.45-22.73,0.65-33.22,5.88c-2.5,0.9-4.91,3.72-7.6,0.34c-3.53-12.59-7.66-25.05-9.27-38.11
		c-3.61-12.53-6.64-25.25-10.99-37.52c-4.2-11.86-10.37-22.77-22.12-29.17c-10.32-8.71-21.99-13.61-35.73-12.7
		c-3.42,0.11-6.84,0.23-10.26,0.34c-0.32-6.36-0.64-12.72-0.96-19.08c0.01-3,0.01-6,0.02-9c23.54-11.77,34.87-30.58,31.89-57.23
		c14.56,2.54,16.95,1.48,19.69-7.84c2.83-9.6-2.82-13.88-10.48-16.97c0.66-6.09,1.59-12.17,1.9-18.28
		c0.31-6.14,0.94-12.22,1.54-18.33c0.58-5.91-2.89-14.01-0.07-17.46c3.77-4.61-4.22-8.1,0.94-10.86c-2.38,1.04-4.76,2.08-6.98,3.05
		c-2.11-2.88,1.48-5.98-0.86-8.79c-2.97,2.13-1.39,6.8-5.48,7.27c-3.7-2.49-7.41-4.98-11.11-7.46c-8.91-8-20.5-10.19-31.16-14.36
		c-1.42-0.55-4.27-0.42-3.98,0.5c3.01,9.52-4.93,4.31-6.75,4.35c-16.47,0.41-33.08-0.76-48.38,7.27
		c-7.12,1.7-13.17,5.11-18.35,11.32c4.13,2.14,7.79,4.04,11.45,5.94c-1.06,3.81-2.94,7.6-3.03,11.43
		c-0.29,12.64-3.6,25.8,5.03,37.26c0.54,0.54,1.08,1.07,1.62,1.6c-1.32,5.59-2.8,11.18,0.51,16.62c-0.1,7.37,0.06,14.75-0.35,22.1
		c-0.98,17.76,7.27,30.9,20.2,41.94c2.65,2.26,7.44,2.09,7.93,6.84c0.06,5.51,0.12,11.01,0.18,16.52c-0.3,3.84-0.6,7.67-0.9,11.51
		c-3.71-0.53-7.27-0.2-10.49,1.92c-13.45,1.86-24.82,8.2-35.27,16.48c-18.85,16.29-31.71,35.7-32.12,61.6
		c0.66,11.82,0.14,23.61-1.05,35.38c-0.26,2.49-4.41,4.57-0.81,7.48c0.11,0.42,0.21,0.84,0.32,1.26c-0.06,0.76-0.13,1.52-0.2,2.28
		c-3.08,0.03-6.17,0.05-9.25,0.08c-3.44,3.17-1.17,7.24-1.7,10.86h-0.01c-21.06-0.01-42.12-0.03-63.19-0.04
		c0.53-5.31-1.32-7.26-7.16-7.41c-12.63-0.33-25.43,2.36-37.89-1.64c0.09-3.93,0.46-7.88,0.19-11.78c-0.29-4.25,2.01-5.17,5.44-5.22
		h4.01c22.88-0.01,45.75-0.01,68.62-0.01c6.82,0.05,12.77-1.32,14.63-9.18c0.04-55.14,0.08-110.28,0.13-165.42
		c-1.81-7.53-6.69-9.93-14.2-9.55c-10.65,0.55-21.35,0.28-32.03,0.36c-50.31,0.01-100.63,0.02-150.94,0.02h-0.01
		c-11.75-0.08-23.51-0.16-35.26-0.26c-7.69-0.07-11.28,3.86-11.28,11.39c0.01,55.38,0.09,110.75-0.1,166.13
		c-0.02,6.18,2.4,7.64,7.77,6.5c22.48,0.09,44.96,0.21,67.45,0.27c17.43,0.04,17.43,0,18.23,16.76c-2.37,2.96-5.7,1.74-8.62,1.78
		c-10.79,0.15-21.58,0.29-32.36-0.03c-6.74-0.19-6.34,2.83-4.09,7.28c-1.3,0.58-2.6,1.17-3.89,1.75
		c-21.52-0.25-43.03-0.51-64.54-0.73c-2.32-0.02-5.18-0.81-5.57,2.94c-1.8,8.55,0.32,13.48,10.34,11.38
		c3.4-0.71,6.57,0.66,9.72,1.73c-3.54,9.32-0.69,19.05-1.85,28.5c-1.03,8.42,1.86,10.82,10.52,10.79
		c94.22-0.33,188.45-0.2,282.67-0.2c90.51,0,181.02-0.16,271.52,0.22c9.27,0.04,11.73-2.61,10.98-11.38
		c-0.79-9.23-0.22-18.58-0.24-27.88c2.28-1.82,5-2.28,7.69-1.76C611.59,355.62,614.67,351.41,612.84,342.37z M466.61,338.27
		c0.03-0.05,0.05-0.1,0.06-0.15c0.02-0.03,0.03-0.07,0.04-0.1v-0.03c0.03-0.07,0.04-0.15,0.06-0.22s0.03-0.15,0.04-0.22
		c0.01-0.08,0.02-0.15,0.05-0.22c0.01-0.01,0.01-0.02,0.01-0.04c0,0,0.01-0.14,0.02-0.14h0.01c0-0.01,0-0.01,0-0.01
		c0-0.05,0.01-0.09,0.03-0.14c0.01-0.03,0.02-0.07,0.03-0.11c0-0.03,0.01-0.06,0.02-0.1c0.01-0.05,0.01-0.1,0.02-0.15
		c0-0.05,0.02-0.1,0.03-0.15c0.02-0.09,0.02-0.18,0.04-0.27c0.01-0.02,0.02-0.05,0.03-0.08c0.01-0.08,0.02-0.16,0.02-0.23
		c0.01-0.03,0.02-0.06,0.03-0.09c0-0.02-0.01-0.05,0-0.07c0.01-0.05,0.02-0.09,0.03-0.14c0.02-0.12,0.02-0.24,0.03-0.36
		c0-0.13,0.04-0.26,0.04-0.39c0-0.02,0.01-0.03,0.01-0.05c0-0.06,0-0.11,0.01-0.17c0.01-0.02,0.01-0.05,0.02-0.08
		c0-0.01,0-0.01,0-0.02c0,0,0,0,0-0.01c0-0.02,0-0.03,0-0.03c0-0.05,0.01-0.1,0.02-0.14c0-0.01-0.01-0.03-0.01-0.04
		c0.01-0.07,0.03-0.14,0.04-0.22V334c0-0.04-0.01-0.08,0-0.13c0-0.03,0-0.08,0.01-0.08c-0.02-0.25-0.01-0.52,0.01-0.77
		c0-0.03,0.01-0.06,0.01-0.09c0,0,0-0.01,0-0.02c-0.01-0.04-0.01-0.09-0.01-0.13c-0.02-0.13,0-0.26,0.02-0.39
		c0-0.03,0-0.07-0.01-0.1c-0.01-0.13-0.01-0.26-0.01-0.39c0-0.06,0.01-0.11,0.01-0.16c0-0.02,0.01-0.04,0.01-0.05
		c0-0.01,0-0.01,0-0.01c0-0.01,0-0.01,0-0.01c-0.01-0.03-0.02-0.07-0.03-0.11v-0.14c-0.01-0.09-0.02-0.17-0.02-0.26
		c0-0.07,0.01-0.13,0.02-0.18c0-0.02-0.01-0.03-0.01-0.05c0-0.13-0.02-0.26-0.03-0.38c-0.01-0.16-0.02-0.31-0.01-0.47
		c0-0.03,0-0.06-0.01-0.1c0-0.05,0-0.11-0.01-0.16c0-0.04,0.01-0.07,0.01-0.11c-0.01-0.05-0.03-0.09-0.03-0.14v-0.1c0,0,0,0,0-0.01
		c0-0.03,0-0.06-0.01-0.09c-0.01-0.14-0.03-0.27-0.05-0.41c-0.02-0.16-0.03-0.33-0.01-0.49h0.01c-0.01-0.05-0.02-0.09-0.03-0.14
		c-0.01-0.13-0.03-0.25-0.05-0.38c-0.03-0.26-0.04-0.52-0.05-0.79c0-0.04,0.01-0.08,0.01-0.12c-0.01-0.12-0.02-0.23-0.04-0.35
		c-0.01-0.08-0.02-0.15-0.03-0.23c-0.01-0.07-0.01-0.15-0.02-0.23c-0.01-0.14-0.05-0.29-0.06-0.44c0-0.17-0.02-0.36,0.01-0.53
		c-0.01-0.05-0.02-0.1-0.03-0.15v-0.16c-0.02-0.12-0.04-0.23-0.04-0.34c-0.01-0.12-0.01-0.23-0.02-0.35
		c-0.01-0.08-0.01-0.17-0.01-0.26c0-0.03,0.01-0.06,0.01-0.08v-0.05c-0.01-0.02,0-0.03,0-0.05c-0.01-0.03-0.02-0.05-0.02-0.08
		c-0.01-0.03,0-0.06,0-0.09c0-0.01,0-0.01,0-0.02c0-0.03-0.01-0.07-0.02-0.1v-0.05c-0.01-0.05-0.01-0.09,0-0.14
		c0-0.02,0-0.04,0.01-0.06c-0.01-0.06-0.02-0.11-0.02-0.17c0.01-0.05,0.01-0.1,0.01-0.15c0-0.07-0.02-0.15-0.02-0.23
		c0-0.04,0.01-0.08,0.02-0.12c-0.01-0.02-0.02-0.03-0.02-0.05c0-0.21-0.03-0.41-0.02-0.62c0.01-0.09,0.02-0.18,0.02-0.27
		c0-0.04,0.01-0.09,0.01-0.13v-0.08c0,0,0-0.01,0-0.02c0-0.01,0-0.02,0-0.02v-0.21c-0.01-0.13-0.01-0.25-0.01-0.38
		c0.01-0.18,0.02-0.36,0.04-0.53c0-0.01,0-0.02,0.01-0.02c0-0.03,0-0.05,0.01-0.08v-0.06c0-0.07,0-0.14,0.01-0.21
		c0.01-0.08,0.02-0.16,0.03-0.25v-0.01c0-0.03-0.01-0.06,0-0.1c0.01-0.07,0.01-0.14,0.02-0.21s0.02-0.14,0.02-0.21
		c0,0,0,0,0.01-0.01c-0.01-0.04-0.01-0.09,0-0.13c0-0.03,0.01-0.05,0.01-0.07c0-0.05,0.01-0.1,0.02-0.15
		c0.01-0.04,0.01-0.08,0.01-0.13c0.01-0.07,0.03-0.13,0.04-0.2v-0.04c0-0.03,0.01-0.07,0.02-0.11c0.02-0.17,0.07-0.34,0.09-0.51
		c0-0.02,0.01-0.04,0.01-0.06v-0.03c0.02-0.23,0.09-0.45,0.14-0.67c0,0.04-0.01,0.08-0.02,0.12c0.01-0.06,0.03-0.12,0.04-0.17
		c0-0.03,0.01-0.07,0.01-0.1c0,0,0,0,0-0.01c0.01-0.04,0.02-0.09,0.03-0.13c0.01-0.01,0.01-0.02,0.01-0.03
		c0.01-0.04,0.02-0.08,0.03-0.12c0-0.02,0.01-0.04,0.02-0.06v-0.01c0.01-0.03,0.02-0.06,0.02-0.09c0.01-0.03,0.03-0.06,0.03-0.1
		c0.01-0.04,0.01-0.07,0.03-0.1c0-0.03,0.01-0.06,0.02-0.1c0-0.03,0.01-0.06,0.03-0.08c0,0,0,0-0.01,0
		c0.01-0.02,0.02-0.04,0.02-0.06c0-0.02,0.01-0.04,0.01-0.05c0.01-0.04,0.02-0.07,0.03-0.1v-0.01c0.01,0,0.01-0.02,0.02-0.03
		c0-0.01,0-0.03,0.01-0.05c0-0.01,0.01-0.02,0.01-0.03v-0.01c0,0,0-0.01,0.01-0.01v-0.05c0.01,0,0.01-0.01,0.01-0.02
		c0.01,0,0.01-0.01,0.01-0.01c0.01,0.01,0.02,0.02,0.03,0.03c0,0.01,0.01,0.02,0.01,0.02c0.01,0.01,0.01,0.01,0.01,0.01
		c0.01,0.01,0.01,0.02,0.02,0.03c0.03,0.03,0.05,0.07,0.08,0.1c0.03,0.03,0.05,0.06,0.08,0.09c0.02,0.04,0.05,0.07,0.08,0.1
		c0,0.03,0.03,0.04,0.04,0.06c0.01,0.01,0.01,0.02,0.02,0.04c0.01,0.01,0.02,0.02,0.03,0.03c0.05,0.04,0.07,0.1,0.11,0.15
		c0.03,0.04,0.07,0.09,0.1,0.13c0.02,0.01,0.04,0.03,0.05,0.05c0.01,0,0,0.01,0.01,0.02c0.02,0.03,0.03,0.05,0.04,0.07
		c0.01,0.02,0.02,0.04,0.04,0.06c0.01,0.01,0.02,0.03,0.03,0.04c0.02,0.03,0.04,0.06,0.05,0.09c0.01,0.01,0.01,0.01,0.01,0.02
		c0.01,0.02,0.03,0.03,0.03,0.04c0.02,0.04,0.04,0.07,0.06,0.1c0.01,0.01,0.02,0.03,0.03,0.05c0.02,0.03,0.03,0.05,0.05,0.08h0.01
		c0.01,0.01,0.01,0.02,0.01,0.03c0.01,0.01,0.02,0.02,0.02,0.03c0.01,0.02,0.01,0.04,0.01,0.06c0.07,0.19,0.13,0.39,0.2,0.57
		c0.09,0.23,0.21,0.45,0.33,0.66c0.07,0.11,0.13,0.22,0.18,0.34c0.06,0.09,0.12,0.19,0.17,0.29c0.12,0.24,0.23,0.48,0.33,0.73
		c0,0-0.01,0-0.02,0c0.07,0.16,0.11,0.32,0.17,0.48c0.06,0.18,0.09,0.36,0.15,0.53c0.06,0.17,0.08,0.35,0.14,0.53
		c0.02,0.08,0.04,0.16,0.06,0.24c0.02,0.09,0.05,0.17,0.06,0.27c0,0-0.01,0-0.02,0c0.05,0.17,0.1,0.34,0.14,0.52
		c0.02,0.09,0.05,0.18,0.07,0.27c0.02,0.1,0.02,0.2,0.04,0.29v0.01h-0.01c0.04,0.11,0.06,0.23,0.08,0.34
		c0.02,0.12,0.04,0.24,0.06,0.37c0.02,0.12,0.05,0.24,0.08,0.37c0.01,0.06,0.01,0.12,0.02,0.19c0.01,0.04,0.02,0.08,0.02,0.12h0.01
		v0.01h-0.01c0,0.01,0,0.01,0,0.02h0.01c0,0.08,0.02,0.15,0.04,0.23c0.02,0.08,0.03,0.16,0.04,0.24c0.01,0.08,0.03,0.16,0.04,0.24
		c0.02,0.07,0.04,0.14,0.04,0.22c0,0-0.02,0-0.02,0.01c0.02,0.05,0.04,0.11,0.04,0.17c0.02,0.12,0.03,0.24,0.05,0.36
		s0.04,0.24,0.06,0.36c0.01,0.06,0.02,0.12,0.04,0.18c0.01,0.04,0.01,0.08,0.01,0.12c0.01,0.03,0.02,0.07,0.03,0.1h-0.01
		c0,0.04,0.01,0.07,0.02,0.1c0.01,0.08,0.04,0.16,0.05,0.25c0,0,0,0.01,0.01,0.01c0.03,0.12,0.04,0.23,0.05,0.35
		s0.04,0.24,0.06,0.35c0.03,0.12,0.04,0.24,0.07,0.36c0.02,0.11,0.06,0.22,0.08,0.33h-0.01c0,0,0,0.01,0.01,0.01
		c0.02,0.06,0.02,0.12,0.04,0.18c0.01,0.04,0.03,0.08,0.03,0.12c0.01,0.04,0.02,0.07,0.03,0.11v0.01c0.01,0.01,0.01,0.02,0.01,0.03
		c0,0,0,0-0.01,0c0.01,0.01,0,0.02,0,0.04c0.04,0.08,0.05,0.17,0.07,0.26c0.03,0.12,0.07,0.24,0.1,0.36
		c0.04,0.13,0.08,0.25,0.13,0.37c0.03,0.08,0.07,0.17,0.06,0.25l-0.01,0.01c0.02,0.06,0.05,0.12,0.07,0.19
		c0.06,0.15,0.11,0.3,0.16,0.46c0.09,0.28,0.19,0.59,0.36,0.84c0,0-0.01,0-0.02,0c0.02,0.05,0.04,0.1,0.05,0.15
		c0.01,0.02,0.02,0.04,0.03,0.06c0.02,0.06,0.06,0.11,0.09,0.17c0.03,0.05,0.05,0.11,0.08,0.16c0.03,0.08,0.09,0.16,0.1,0.25
		c0.03,0.03,0.05,0.07,0.07,0.11c0.07,0.16,0.17,0.29,0.26,0.44l-0.01,0.01c0.07,0.1,0.15,0.2,0.21,0.31l-0.01,0.01
		c0.04,0.04,0.06,0.1,0.1,0.15c0.05,0.06,0.09,0.12,0.13,0.17c0.04,0.06,0.08,0.12,0.12,0.17c0.03,0.04,0.05,0.09,0.08,0.13
		c0.06,0.04,0.12,0.09,0.13,0.17c0.01,0.02,0.03,0.04,0.05,0.06c0.03,0.04,0.06,0.07,0.1,0.11h-0.01c0.01,0.01,0.03,0.02,0.03,0.03
		c0.07,0.1,0.15,0.18,0.23,0.27c0.08,0.09,0.16,0.18,0.25,0.28c0.03,0.04,0.08,0.07,0.12,0.11c0.03,0.04,0.05,0.08,0.09,0.11
		c0,0,0,0,0,0.01h0.01c0,0.01,0,0.01,0,0.02H475c-0.02,0.1,0,0.19-0.01,0.3v0.09c0.01,0.15,0.02,0.3,0.03,0.45H475v0.07
		c0,0.03,0,0.06-0.01,0.1c0.01,0.03,0.01,0.07,0.01,0.11c0.03,0.11,0.03,0.22,0.02,0.33c0,0.1,0.01,0.2-0.02,0.3
		c0.01,0.03,0.01,0.06,0.02,0.09c0,0.02,0.01,0.05,0.01,0.07v0.03c0,0.01,0,0.03-0.01,0.04c0.01,0.01,0,0.02,0,0.03v0.01
		c0,0.03,0.01,0.06,0.01,0.09c0.01,0.15,0.01,0.3,0,0.45c0,0.15,0.02,0.3,0.01,0.45c0,0.07-0.01,0.15,0,0.22v0.03
		c0,0.07,0.01,0.13,0,0.19c0,0.01-0.13,0.01-0.15,0.01h-0.35c-0.02,0-0.1,0-0.18-0.01c0,0,0,0,0,0.01c0,0.02-1-0.01-1,0
		c0-0.01,0-0.01,0-0.02c-0.14,0.01-0.35,0-0.37,0c-0.04,0-0.5,0-0.5,0s0,0,0-0.01h-0.04c-0.11,0.01-0.23,0.01-0.35,0.01
		c-0.08,0-0.16-0.01-0.24-0.01c-0.02,0-0.12,0.01-0.14,0.01h-0.71c0,0-0.14,0-0.14-0.01c0,0,0,0,0-0.01h-0.54
		c0.02,0-0.15,0.01-0.15,0c0,0,0,0,0-0.01c-0.22,0-0.42,0-0.42,0h-0.32c-0.27,0-0.58,0-0.58-0.01c-0.11,0.01-0.22,0.01-0.33,0.01
		c-0.12,0-0.24,0-0.35-0.01h-0.68c0,0-0.14,0-0.14-0.01h-0.28c0,0-0.03,0-0.07,0c-0.08,0-0.17,0.01-0.26,0c-0.03,0-0.06,0-0.09-0.01
		c-0.01,0-0.01,0-0.01,0c-0.01,0-0.01-0.01-0.01-0.01c-0.01,0.01-0.03,0.01-0.04,0.01s-0.01,0-0.01,0S466.61,338.31,466.61,338.27
		L466.61,338.27z"/>
	<path class="st0" d="M475.04,338c0,0.07-0.01,0.15,0,0.22v0.03c0,0.07,0.01,0.13,0,0.19c0,0.01-0.13,0.01-0.15,0.01h-0.35
		c-0.02,0-0.1,0-0.18-0.01c0,0,0,0,0,0.01c0,0.02-1-0.01-1,0c0-0.01,0-0.01,0-0.02c-0.14,0.01-0.35,0-0.37,0c-0.04,0-0.5,0-0.5,0
		s0,0,0-0.01h-0.04c-0.11,0.01-0.23,0.01-0.35,0.01c-0.08,0-0.16-0.01-0.24-0.01c-0.02,0-0.12,0.01-0.14,0.01h-0.71
		c0,0-0.14,0-0.14-0.01c0,0,0,0,0-0.01h-0.54c0.02,0-0.15,0.01-0.15,0c0,0,0,0,0-0.01c-0.22,0-0.42,0-0.42,0h-0.32
		c-0.27,0-0.58,0-0.58-0.01c-0.11,0.01-0.22,0.01-0.33,0.01c-0.12,0-0.24,0-0.35-0.01h-0.68c0,0-0.14,0-0.14-0.01h-0.28
		c0,0-0.03,0-0.07,0c-0.08,0-0.17,0.01-0.26,0c-0.03,0-0.06,0-0.09-0.01c-0.01,0-0.01,0-0.01,0c-0.01,0-0.01-0.01-0.01-0.01
		c-0.01,0.01-0.03,0.01-0.04,0.01s-0.01,0-0.01,0s0.02-0.06,0.03-0.1h-0.01c0.03-0.05,0.05-0.1,0.06-0.15
		c0.02-0.03,0.03-0.07,0.04-0.1v-0.03c0.03-0.07,0.04-0.15,0.06-0.22s0.03-0.15,0.04-0.22c0.01-0.08,0.02-0.15,0.05-0.22
		c0.01-0.01,0.01-0.02,0.01-0.04c0,0,0.01-0.14,0.02-0.14h0.01c0-0.01,0-0.01,0-0.01c0-0.05,0.01-0.09,0.03-0.14
		c0.01-0.03,0.02-0.07,0.03-0.11c0-0.03,0.01-0.06,0.02-0.1c0.01-0.05,0.01-0.1,0.02-0.15c0-0.05,0.02-0.1,0.03-0.15
		c0.02-0.09,0.02-0.18,0.04-0.27c0.01-0.02,0.02-0.05,0.03-0.08c0.01-0.08,0.02-0.16,0.02-0.23c0.01-0.03,0.02-0.06,0.03-0.09
		c0-0.02-0.01-0.05,0-0.07c0.01-0.05,0.02-0.09,0.03-0.14c0.02-0.12,0.02-0.24,0.03-0.36c0-0.13,0.04-0.26,0.04-0.39
		c0-0.02,0.01-0.03,0.01-0.05c0-0.06,0-0.11,0.01-0.17c0.01-0.02,0.01-0.05,0.02-0.08c0-0.01,0-0.01,0-0.02c0,0,0,0,0-0.01
		c0-0.02,0-0.03,0-0.03c0-0.05,0.01-0.1,0.02-0.14c0-0.01-0.01-0.03-0.01-0.04c0.01-0.07,0.03-0.14,0.04-0.22V334
		c0-0.04-0.01-0.08,0-0.13c0-0.03,0-0.08,0.01-0.08c-0.02-0.25-0.01-0.52,0.01-0.77c0-0.03,0.01-0.06,0.01-0.09c0,0,0-0.01,0-0.02
		c-0.01-0.04-0.01-0.09-0.01-0.13c-0.02-0.13,0-0.26,0.02-0.39c0-0.03,0-0.07-0.01-0.1c-0.01-0.13-0.01-0.26-0.01-0.39
		c0-0.06,0.01-0.11,0.01-0.16c0-0.02,0.01-0.04,0.01-0.05c0-0.01,0-0.01,0-0.01c0-0.01,0-0.01,0-0.01
		c-0.01-0.03-0.02-0.07-0.03-0.11v-0.14c-0.01-0.09-0.02-0.17-0.02-0.26c0-0.07,0.01-0.13,0.02-0.18c0-0.02-0.01-0.03-0.01-0.05
		c0-0.13-0.02-0.26-0.03-0.38c-0.01-0.16-0.02-0.31-0.01-0.47c0-0.03,0-0.06-0.01-0.1c0-0.05,0-0.11-0.01-0.16
		c0-0.04,0.01-0.07,0.01-0.11c-0.01-0.05-0.03-0.09-0.03-0.14v-0.1c0,0,0,0,0-0.01c0-0.03,0-0.06-0.01-0.09
		c-0.01-0.14-0.03-0.27-0.05-0.41c-0.02-0.16-0.03-0.33-0.01-0.49h0.01c-0.01-0.05-0.02-0.09-0.03-0.14
		c-0.01-0.13-0.03-0.25-0.05-0.38c-0.03-0.26-0.04-0.52-0.05-0.79c0-0.04,0.01-0.08,0.01-0.12c-0.01-0.12-0.02-0.23-0.04-0.35
		c-0.01-0.08-0.02-0.15-0.03-0.23c-0.01-0.07-0.01-0.15-0.02-0.23c-0.01-0.14-0.05-0.29-0.06-0.44c0-0.17-0.02-0.36,0.01-0.53
		c-0.01-0.05-0.02-0.1-0.03-0.15v-0.16c-0.02-0.12-0.04-0.23-0.04-0.34c-0.01-0.12-0.01-0.23-0.02-0.35
		c-0.01-0.08-0.01-0.17-0.01-0.26c0-0.03,0.01-0.06,0.01-0.08v-0.05c-0.01-0.02,0-0.03,0-0.05c-0.01-0.03-0.02-0.05-0.02-0.08
		c-0.01-0.03,0-0.06,0-0.09c0-0.01,0-0.01,0-0.02c0-0.03-0.01-0.07-0.02-0.1v-0.05c-0.01-0.05-0.01-0.09,0-0.14
		c0-0.02,0-0.04,0.01-0.06c-0.01-0.06-0.02-0.11-0.02-0.17c0.01-0.05,0.01-0.1,0.01-0.15c0-0.07-0.02-0.15-0.02-0.23
		c0-0.04,0.01-0.08,0.02-0.12c-0.01-0.02-0.02-0.03-0.02-0.05c0-0.21-0.03-0.41-0.02-0.62c0.01-0.09,0.02-0.18,0.02-0.27
		c0-0.04,0.01-0.09,0.01-0.13v-0.08c0,0,0-0.01,0-0.02c0-0.01,0-0.02,0-0.02v-0.21c-0.01-0.13-0.01-0.25-0.01-0.38
		c0.01-0.18,0.02-0.36,0.04-0.53c0-0.01,0-0.02,0.01-0.02c0-0.03,0-0.05,0.01-0.08v-0.06c0-0.07,0-0.14,0.01-0.21
		c0.01-0.08,0.02-0.16,0.03-0.25v-0.01c0-0.03-0.01-0.06,0-0.1c0.01-0.07,0.01-0.14,0.02-0.21s0.02-0.14,0.02-0.21
		c0,0,0,0,0.01-0.01c-0.01-0.04-0.01-0.09,0-0.13c0-0.03,0.01-0.05,0.01-0.07c0-0.05,0.01-0.1,0.02-0.15
		c0.01-0.04,0.01-0.08,0.01-0.13c0.01-0.07,0.03-0.13,0.04-0.2v-0.04c0-0.03,0.01-0.07,0.02-0.11c0.02-0.17,0.07-0.34,0.09-0.51
		c0-0.02,0.01-0.04,0.01-0.06v-0.03c0.02-0.23,0.09-0.45,0.14-0.67c0,0.04-0.01,0.08-0.02,0.12c0.01-0.06,0.03-0.12,0.04-0.17
		c0-0.03,0.01-0.07,0.01-0.1c0,0,0,0,0-0.01c0.01-0.04,0.02-0.09,0.03-0.13c0.01-0.01,0.01-0.02,0.01-0.03
		c0.01-0.04,0.02-0.08,0.03-0.12c0-0.02,0.01-0.04,0.02-0.06v-0.01c0.01-0.03,0.02-0.06,0.02-0.09c0.01-0.03,0.03-0.06,0.03-0.1
		c0.01-0.04,0.01-0.07,0.03-0.1c0-0.03,0.01-0.06,0.02-0.1c0-0.03,0.01-0.06,0.03-0.08c0,0,0,0-0.01,0
		c0.01-0.02,0.02-0.04,0.02-0.06c0-0.02,0.01-0.04,0.01-0.05c0.01-0.04,0.02-0.07,0.03-0.1v-0.01c0.01,0,0.01-0.02,0.02-0.03
		c0-0.01,0-0.03,0.01-0.05c0-0.01,0.01-0.02,0.01-0.03v-0.01c0,0,0-0.01,0.01-0.01v-0.05c0.01,0,0.01-0.01,0.01-0.02
		c0.01,0,0.01-0.01,0.01-0.01c0.01,0.01,0.02,0.02,0.03,0.03c0,0.01,0.01,0.02,0.01,0.02c0.01,0.01,0.01,0.01,0.01,0.01
		c0.01,0.01,0.01,0.02,0.02,0.03c0.03,0.03,0.05,0.07,0.08,0.1c0.03,0.03,0.05,0.06,0.08,0.09c0.02,0.04,0.05,0.07,0.08,0.1
		c0,0.03,0.03,0.04,0.04,0.06c0.01,0.01,0.01,0.02,0.02,0.04c0.01,0.01,0.02,0.02,0.03,0.03c0.05,0.04,0.07,0.1,0.11,0.15
		c0.03,0.04,0.07,0.09,0.1,0.13c0.02,0.01,0.04,0.03,0.05,0.05c0.01,0,0,0.01,0.01,0.02c0.02,0.03,0.03,0.05,0.04,0.07
		c0.01,0.02,0.02,0.04,0.04,0.06c0.01,0.01,0.02,0.03,0.03,0.04c0.02,0.03,0.04,0.06,0.05,0.09c0.01,0.01,0.01,0.01,0.01,0.02
		c0.01,0.02,0.03,0.03,0.03,0.04c0.02,0.04,0.04,0.07,0.06,0.1c0.01,0.01,0.02,0.03,0.03,0.05c0.02,0.03,0.03,0.05,0.05,0.08h0.01
		c0.01,0.01,0.01,0.02,0.01,0.03c0.01,0.01,0.02,0.02,0.02,0.03c0.01,0.02,0.01,0.04,0.01,0.06c0.07,0.19,0.13,0.39,0.2,0.57
		c0.09,0.23,0.21,0.45,0.33,0.66c0.07,0.11,0.13,0.22,0.18,0.34c0.05,0.12,0.11,0.23,0.17,0.35v-0.06c0.12,0.24,0.23,0.48,0.33,0.73
		c0,0-0.01,0-0.02,0c0.07,0.16,0.11,0.32,0.17,0.48c0.06,0.18,0.09,0.36,0.15,0.53c0.06,0.17,0.08,0.35,0.14,0.53
		c0.02,0.08,0.04,0.16,0.06,0.24c0.02,0.09,0.05,0.17,0.06,0.27c0,0-0.01,0-0.02,0c0.05,0.17,0.1,0.34,0.14,0.52
		c0.02,0.09,0.05,0.18,0.07,0.27c0.02,0.1,0.02,0.2,0.04,0.29v0.01h-0.01c0.04,0.11,0.06,0.23,0.08,0.34
		c0.02,0.12,0.04,0.24,0.06,0.37c0.02,0.12,0.05,0.24,0.08,0.37c0.01,0.06,0.01,0.12,0.02,0.19c0.01,0.04,0.02,0.08,0.02,0.12h0.01
		v0.01h-0.01c0,0.01,0,0.01,0,0.02h0.01c0,0.08,0.02,0.15,0.04,0.23c0.02,0.08,0.03,0.16,0.04,0.24c0.01,0.08,0.03,0.16,0.04,0.24
		c0.02,0.07,0.04,0.14,0.04,0.22c0,0-0.02,0-0.02,0.01c0.02,0.05,0.04,0.11,0.04,0.17c0.02,0.12,0.03,0.24,0.05,0.36
		s0.04,0.24,0.06,0.36c0.01,0.06,0.02,0.12,0.04,0.18c0.01,0.04,0.01,0.08,0.01,0.12c0.01,0.03,0.02,0.07,0.03,0.1h-0.01
		c0,0.04,0.01,0.07,0.02,0.1c0.01,0.08,0.04,0.16,0.05,0.25c0,0,0,0.01,0.01,0.01c0.03,0.12,0.04,0.23,0.05,0.35
		s0.04,0.24,0.06,0.35c0.03,0.12,0.04,0.24,0.07,0.36c0.02,0.11,0.06,0.22,0.08,0.33h-0.01c0,0,0,0.01,0.01,0.01
		c0.02,0.06,0.02,0.12,0.04,0.18c0.01,0.04,0.03,0.08,0.03,0.12c0.01,0.04,0.02,0.07,0.03,0.11v0.01c0.01,0.01,0.01,0.02,0.01,0.03
		c0,0,0,0-0.01,0c0.01,0.01,0,0.02,0,0.04c0.04,0.08,0.05,0.17,0.07,0.26c0.03,0.12,0.07,0.24,0.1,0.36
		c0.04,0.13,0.08,0.25,0.13,0.37c0.03,0.08,0.07,0.17,0.06,0.25l-0.01,0.01c0.02,0.06,0.05,0.12,0.07,0.19
		c0.06,0.15,0.11,0.3,0.16,0.46c0.09,0.28,0.19,0.59,0.36,0.84c0,0-0.01,0-0.02,0c0.02,0.05,0.04,0.1,0.05,0.15
		c0.01,0.02,0.02,0.04,0.03,0.06c0.02,0.06,0.06,0.11,0.09,0.17c0.03,0.05,0.05,0.11,0.08,0.16c0.03,0.08,0.09,0.16,0.1,0.25
		c0.03,0.03,0.05,0.07,0.07,0.11c0.07,0.16,0.17,0.29,0.26,0.44l-0.01,0.01c0.07,0.1,0.15,0.2,0.21,0.31l-0.01,0.01
		c0.04,0.04,0.06,0.1,0.1,0.15c0.05,0.06,0.09,0.12,0.13,0.17c0.04,0.06,0.08,0.12,0.12,0.17c0.03,0.04,0.05,0.09,0.08,0.13
		c0.06,0.04,0.12,0.09,0.13,0.17c0.01,0.02,0.03,0.04,0.05,0.06c0.03,0.04,0.06,0.07,0.1,0.11h-0.01c0.01,0.01,0.03,0.02,0.03,0.03
		c0.07,0.1,0.15,0.18,0.23,0.27c0.08,0.09,0.16,0.18,0.25,0.28c0.03,0.04,0.08,0.07,0.12,0.11c0.03,0.04,0.05,0.08,0.09,0.11
		c0,0,0,0,0,0.01h0.01c0,0.01,0,0.01,0,0.02H475c-0.02,0.1,0,0.19-0.01,0.3v0.09c0.01,0.15,0.02,0.3,0.03,0.45H475v0.07
		c0,0.03,0,0.06-0.01,0.1c0.01,0.03,0.01,0.07,0.01,0.11v0.22c0,0.01,0,0.03,0.01,0.04c0,0.03,0,0.05,0.01,0.07
		c0,0.1,0.01,0.2-0.02,0.3c0.01,0.03,0.01,0.06,0.01,0.09h0.01c0,0.02,0.01,0.05,0.01,0.07h-0.01v0.07c0.01,0.01,0,0.02,0,0.03v0.01
		c0,0.03,0.01,0.06,0.01,0.09c0.01,0.15,0.01,0.3,0,0.45C475.03,337.7,475.05,337.85,475.04,338z"/>
	<path class="st2" d="M268.37,299.84c0.52,1.1,1.07,2.18,1.52,3.31c-1.86,7.86-7.81,9.23-14.63,9.18c-2.78-1.65-5.87-1.66-8.94-1.58
		c-19.89,0.55-39.85-1.43-59.68,1.59h-4.01c-5.34-1.07-8.02-4.44-8.02-9.77c0-15.14-1.3-30.31,0.76-45.4
		c0.43-0.78,1.15-1.91,1.86-2.37c0.04-0.03,0.08-0.06,0.12-0.08c0.41-0.23,0.82-0.2,1.14,0.31c5.06,8.13,7.62,1.57,10.22-1.68
		c16.98-21.29,13.08-53.67-7.72-70.83c-24.11-19.9-56.21-13.2-72.12,6.57c-17.73,22.05-16.47,50.18,3.71,70.34
		c1.22,1.22,2.56,2.34,3.77,3.57c0.43,0.44,0.85,0.9,1.23,1.38c1.02,1.27,1.83,2.7,2.21,4.48c1.37,11.45,0.72,22.93,0.52,34.39
		c-0.11,5.89-2.55,8.67-9.21,8.55c-22.64-0.4-45.29-0.18-67.93-0.12c-3.07,0-6.21-0.59-9.2,0.64c-5.37,1.14-7.79-0.32-7.77-6.5
		c0.19-55.38,0.11-110.75,0.1-166.13c0-7.53,3.59-11.46,11.28-11.39c11.75,0.1,23.51,0.18,35.26,0.26h0.01v0.01
		c2.53,1.84,5.01,3.76,6.46,6.58c5.34,10.45,13.86,13.3,25.32,13.12c31.6-0.5,63.21-0.14,94.8-1.63c5.61-0.27,10.14-1.97,13.73-6.5
		c3.25-4.11,6.07-8.67,10.63-11.6c10.68-0.08,21.38,0.19,32.03-0.36c7.51-0.38,12.39,2.02,14.2,9.55c-0.53,1.11-1.1,2.19-1.64,3.3
		c-0.17,0.35-0.33,0.7-0.49,1.06c-1.31,13.27-0.57,26.57-0.55,39.86c0.07,38.94-0.57,77.89,0.53,116.82
		C268.03,299.13,268.2,299.49,268.37,299.84z"/>
	<path class="st2" d="M583.5,394.76c-90.5-0.38-181.01-0.22-271.52-0.22c-94.22,0-188.45-0.13-282.67,0.2
		c-8.66,0.03-11.55-2.37-10.52-10.79c1.16-9.45-1.69-19.18,1.85-28.5c5.03-4.41,11.2-2.99,16.93-3
		c107.65-0.09,215.29-0.06,322.93-0.06c72.59,0,145.18-0.03,217.76,0.06c5.44,0.01,11.29-1.26,15.98,3.05
		c0.02,9.3-0.55,18.65,0.24,27.88C595.23,392.15,592.77,394.8,583.5,394.76z"/>
	<path class="st3" d="M470.39,288.46c0.11,8.92,0.35,17.84-0.26,26.75c-0.33,1.17-0.49,2.34-0.54,3.51v0.01c-0.01,0.1,0,0.19,0,0.29
		v0.06c-0.06-0.12-0.12-0.23-0.17-0.35c-0.05-0.12-0.11-0.23-0.18-0.34c-0.12-0.21-0.24-0.43-0.33-0.66
		c-0.07-0.18-0.13-0.38-0.2-0.57c0-0.02,0-0.04-0.01-0.06c0-0.01-0.01-0.02-0.02-0.03c0-0.01,0-0.02-0.01-0.03h-0.01
		c-0.02-0.03-0.03-0.05-0.05-0.08c-0.01-0.02-0.02-0.04-0.03-0.05c-0.02-0.03-0.04-0.06-0.06-0.1c0-0.01-0.02-0.02-0.03-0.04
		c0-0.01,0-0.01-0.01-0.02c-0.01-0.03-0.03-0.06-0.05-0.09c-0.01-0.01-0.02-0.03-0.03-0.04c-0.02-0.02-0.03-0.04-0.04-0.06
		c-0.01-0.02-0.02-0.04-0.04-0.07c-0.01-0.01,0-0.02-0.01-0.02c-0.01-0.02-0.03-0.04-0.05-0.05c-0.03-0.04-0.07-0.09-0.1-0.13
		c-0.04-0.05-0.06-0.11-0.11-0.15c-0.01-0.01-0.02-0.02-0.03-0.03c-0.01-0.02-0.01-0.03-0.02-0.04c-0.01-0.02-0.04-0.03-0.04-0.06
		c-0.03-0.03-0.06-0.06-0.08-0.1c-0.03-0.03-0.05-0.06-0.08-0.09c-0.03-0.03-0.05-0.07-0.08-0.1c-0.01-0.01-0.01-0.02-0.02-0.03
		c0,0,0,0-0.01-0.01c0,0-0.01-0.01-0.01-0.02c-0.01-0.01-0.02-0.02-0.03-0.03c0,0,0,0.01-0.01,0.01c0,0.01,0,0.02-0.01,0.02v0.05
		c-0.01,0-0.01,0.01-0.01,0.01v0.01c0,0.01-0.01,0.02-0.01,0.03c-0.01,0.02-0.01,0.04-0.01,0.05c-0.01,0.01-0.01,0.03-0.02,0.03
		v0.01c-0.01,0.03-0.02,0.06-0.03,0.1c0,0.01-0.01,0.03-0.01,0.05c0,0.02-0.01,0.04-0.02,0.06c0.01,0,0.01,0,0.01,0
		c-0.02,0.02-0.03,0.05-0.03,0.08c-0.01,0.04-0.02,0.07-0.02,0.1c-0.02,0.03-0.02,0.06-0.03,0.1c0,0.04-0.02,0.07-0.03,0.1
		c0,0.03-0.01,0.06-0.02,0.09v0.01c-0.01,0.02-0.02,0.04-0.02,0.06c-0.01,0.04-0.02,0.08-0.03,0.12c0,0.01,0,0.02-0.01,0.03
		c-0.01,0.04-0.02,0.09-0.03,0.13c0,0.01,0,0.01,0,0.01c0,0.03-0.01,0.07-0.01,0.1c-0.01,0.05-0.03,0.11-0.04,0.17
		c0.01-0.04,0.02-0.08,0.02-0.12c-0.05,0.22-0.12,0.44-0.14,0.67v0.03c0,0.02-0.01,0.04-0.01,0.06c-0.02,0.17-0.07,0.34-0.09,0.51
		c-0.01,0.04-0.02,0.08-0.02,0.11v0.04c-0.01,0.07-0.03,0.13-0.04,0.2c0,0.05,0,0.09-0.01,0.13c-0.01,0.05-0.02,0.1-0.02,0.15
		c0,0.02-0.01,0.04-0.01,0.07c-0.01,0.04-0.01,0.09,0,0.13c-0.01,0.01-0.01,0.01-0.01,0.01c0,0.07-0.01,0.14-0.02,0.21
		s-0.01,0.14-0.02,0.21c-0.01,0.04,0,0.07,0,0.1v0.01c-0.01,0.09-0.02,0.17-0.03,0.25c-0.01,0.07-0.01,0.14-0.01,0.21v0.06
		c-0.01,0.03-0.01,0.05-0.01,0.08c-0.01,0-0.01,0.01-0.01,0.02c-0.02,0.17-0.03,0.35-0.04,0.53c0,0.13,0,0.25,0.01,0.38v0.21
		c0,0,0,0.01,0,0.02c0,0.01,0,0.02,0,0.02v0.08c0,0.04-0.01,0.09-0.01,0.13c0,0.09-0.01,0.18-0.02,0.27
		c-0.01,0.21,0.02,0.41,0.02,0.62c0,0.02,0.01,0.03,0.02,0.05c-0.01,0.04-0.02,0.08-0.02,0.12c0,0.08,0.02,0.16,0.02,0.23
		c0,0.05,0,0.1-0.01,0.15c0,0.06,0.01,0.11,0.02,0.17c-0.01,0.02-0.01,0.04-0.01,0.06c-0.01,0.05-0.01,0.09,0,0.14v0.05
		c0.01,0.03,0.02,0.07,0.02,0.1c0,0.01,0,0.01,0,0.02c0,0.03-0.01,0.06,0,0.09c0,0.03,0.01,0.05,0.02,0.08c0,0.02-0.01,0.03,0,0.05
		v0.05c0,0.02-0.01,0.05-0.01,0.08c0,0.09,0,0.18,0.01,0.26c0.01,0.12,0.01,0.23,0.02,0.35c0,0.11,0.02,0.22,0.04,0.34v0.16
		c0.01,0.05,0.02,0.1,0.03,0.15c-0.03,0.17-0.01,0.36-0.01,0.53c0.01,0.15,0.05,0.3,0.06,0.44c0.01,0.08,0.01,0.16,0.02,0.23
		c0.01,0.08,0.02,0.15,0.03,0.23c0.02,0.12,0.03,0.23,0.04,0.35c0,0.04-0.01,0.08-0.01,0.12c0.01,0.27,0.02,0.53,0.05,0.79
		c0.02,0.13,0.04,0.25,0.05,0.38c0.01,0.05,0.02,0.09,0.03,0.14h-0.01c-0.02,0.16-0.01,0.33,0.01,0.49
		c0.02,0.14,0.04,0.27,0.05,0.41c0.01,0.03,0.01,0.06,0.01,0.09c0,0.01,0,0.01,0,0.01v0.1c0,0.05,0.02,0.09,0.03,0.14
		c0,0.04-0.01,0.07-0.01,0.11c0.01,0.05,0.01,0.11,0.01,0.16c0.01,0.04,0.01,0.07,0.01,0.1c-0.01,0.16,0,0.31,0.01,0.47
		c0.01,0.12,0.03,0.25,0.03,0.38c0,0.02,0.01,0.03,0.01,0.05c-0.01,0.05-0.02,0.11-0.02,0.18c0,0.09,0.01,0.17,0.02,0.26v0.14
		c0.01,0.04,0.02,0.08,0.03,0.11c0,0,0,0,0,0.01c0,0,0,0,0,0.01c0,0.01-0.01,0.03-0.01,0.05c0,0.05-0.01,0.1-0.01,0.16
		c0,0.13,0,0.26,0.01,0.39c0.01,0.03,0.01,0.07,0.01,0.1c-0.02,0.13-0.04,0.26-0.02,0.39c0,0.04,0,0.09,0.01,0.13
		c0,0.01,0,0.02,0,0.02c0,0.03-0.01,0.06-0.01,0.09c-0.02,0.25-0.03,0.52-0.01,0.77c-0.01,0-0.01,0.05-0.01,0.08
		c-0.01,0.05,0,0.09,0,0.13v0.1c-0.01,0.08-0.03,0.15-0.04,0.22c0,0.01,0.01,0.03,0.01,0.04c-0.01,0.04-0.02,0.09-0.02,0.14
		c0,0,0,0.01,0,0.03c0,0.01,0,0.01,0,0.01c0,0.01,0,0.01,0,0.02c-0.01,0.03-0.01,0.06-0.02,0.08c-0.01,0.06-0.01,0.11-0.01,0.17
		c0,0.02-0.01,0.03-0.01,0.05c0,0.13-0.04,0.26-0.04,0.39c-0.01,0.12-0.01,0.24-0.03,0.36c-0.01,0.05-0.02,0.09-0.03,0.14
		c-0.01,0.02,0,0.05,0,0.07c-0.01,0.03-0.02,0.06-0.03,0.09c0,0.07-0.01,0.15-0.02,0.23c-0.01,0.03-0.02,0.06-0.03,0.08
		c-0.02,0.09-0.02,0.18-0.04,0.27c-0.01,0.05-0.03,0.1-0.03,0.15c-0.01,0.05-0.01,0.1-0.02,0.15c-0.01,0.04-0.02,0.07-0.02,0.1
		c-0.01,0.04-0.02,0.08-0.03,0.11c-0.02,0.05-0.03,0.09-0.03,0.14c0,0,0,0,0,0.01h-0.01c-0.01,0-0.02,0.14-0.02,0.14
		c0,0.02,0,0.03-0.01,0.04c-0.03,0.07-0.04,0.14-0.05,0.22c-0.01,0.07-0.02,0.15-0.04,0.22s-0.03,0.15-0.06,0.22v0.03
		c-0.01,0.03-0.02,0.07-0.04,0.1c-0.01,0.05-0.03,0.1-0.06,0.15h0.01c-0.01,0.04-0.03,0.1-0.03,0.1s0,0,0.01,0s0.03,0,0.04-0.01
		c0,0,0,0.01,0.01,0.01c0,0,0,0,0.01,0c0.03,0.01,0.06,0.01,0.09,0.01c0.09,0.01,0.18,0,0.26,0c0.04,0,0.07,0,0.07,0h0.28
		c0,0,0.01,0.01,0.03,0.01c-0.03,0.03-0.06,0.06-0.09,0.09c-0.63,0.63-1.39,1.2-2.32,1.7c-1.16,0.15-2.32,0.31-3.48,0.46
		c-6.48,0.83-12.95,1.47-19.34,0.01c-1.14-0.26-2.28-0.59-3.41-0.99c-0.43-0.15-0.85-0.32-1.28-0.49c-0.02-0.1-0.03-0.2-0.05-0.29
		c-0.03-0.18-0.07-0.36-0.1-0.54c-0.89-4.24-2.72-6.81-5.29-8.31c-3.05-1.79-7.13-2.1-11.85-1.97c-21.57,0.56-43.15,0.22-64.73,0.14
		c-3.32-0.01-6.76,0.42-9.93-0.71c-0.89-0.31-1.76-0.75-2.59-1.35c-0.63-0.64-1.12-1.34-1.5-2.08c-0.01-0.02-0.02-0.04-0.03-0.06
		c-0.76-1.5-1.09-3.17-1.26-4.9c0-0.06,0-0.12,0.01-0.17c0-0.3,0.03-0.58,0.07-0.84c0.66-4.24,5.47-4.4,8.63-7.51
		c-3.37-1.52-6.98-1.13-10.33-1.4c-0.57-0.05-1.14-0.12-1.7-0.22h-0.01c-1.37-0.24-2.67-0.69-3.88-1.53
		c-6.66-7.9-3.19-17.24-3.81-26.01c-0.03-0.33-0.05-0.65-0.09-0.98v-0.13c0.26-20.28-1.49-40.58,1.03-60.82
		c10.45-8.28,21.82-14.62,35.27-16.48c12.36,16.72,27.36,22.12,46.83,16.57c7.66-2.18,14.68-5.39,16.44-14.45
		c0.38-1.98,1.94-3.1,3.42-4.24c13.74-0.91,25.41,3.99,35.73,12.7c2.41,3.09,2.83,6.72,2.82,10.45
		c-0.05,21.17,0.37,42.34-0.19,63.49c0,0.01,0,0.01,0,0.02C470.38,287.85,470.39,288.16,470.39,288.46z"/>
	<path class="st4" d="M601.93,353.74c-2.69-0.52-5.41-0.06-7.69,1.76c-3.09-0.15-6.18-0.43-9.27-0.43
		c-185.33-0.02-370.65-0.02-555.98,0c-2.78,0-5.56,0.25-8.35,0.38c-3.15-1.07-6.32-2.44-9.72-1.73
		c-10.02,2.1-12.14-2.83-10.34-11.38c4.52-2.85,9.6-1.95,14.41-1.7c16.53,0.86,33.1-1.25,49.62,0.79c2.23,0.28,4.58,0.44,6.72-0.41
		c0.33-0.13,0.65-0.28,0.97-0.47c0.39-0.21,0.76-0.47,1.13-0.77c0.68-0.27,1.37-0.51,2.07-0.71c1.02-0.3,2.05-0.52,3.09-0.69
		c2.79-0.45,5.64-0.5,8.51-0.5c40.82,0.04,81.64,0.04,122.46,0c2.89,0,5.75,0.07,8.57,0.51c1.03,0.16,2.06,0.38,3.07,0.66
		c0.69,0.18,1.37,0.4,2.04,0.65c4.73,0.47,9.46,0.78,14.19,0.97h0.36c10.35,0.4,20.7,0.27,31.04,0c0.01-0.01,0.01,0,0.01,0
		c0.02-0.01,0.03-0.01,0.04,0c0.02-0.01,0.04-0.01,0.06,0c0.01-0.01,0.02,0,0.02,0c0.01-0.01,0.02-0.01,0.03,0
		c0.02-0.01,0.03-0.01,0.04,0c0.01-0.01,0.01,0,0.01,0c0.01-0.01,0.01-0.01,0.02,0c0.01-0.01,0.02,0,0.02,0c0.01-0.01,0.02,0,0.02,0
		c0.01-0.01,0.02,0,0.02,0c0.01-0.01,0.01,0,0.01,0c0.01-0.01,0.02,0,0.02,0c0.03-0.01,0.05-0.01,0.07,0c0.01-0.01,0.02,0,0.02,0
		c0.01-0.01,0.01,0,0.01,0c0.01-0.01,0.02,0,0.02,0c0.02-0.01,0.03-0.01,0.04,0c0.01-0.01,0.02,0,0.02,0c0.02-0.01,0.04-0.01,0.05,0
		c0.01-0.01,0.02,0,0.02,0c0.01-0.01,0.02-0.01,0.03,0c0.01-0.01,0.02,0,0.02,0c0.01-0.01,0.02-0.01,0.03,0
		c0.01-0.01,0.01-0.01,0.02,0c0.01-0.01,0.02,0,0.02,0c0.01-0.01,0.02-0.01,0.03,0c0.01-0.01,0.02,0,0.02,0
		c0.02-0.01,0.03-0.01,0.04,0c0.01-0.01,0.02,0,0.02,0c0.01-0.01,0.02-0.01,0.03,0c0.02-0.01,0.04-0.01,0.05,0
		c0.02-0.01,0.04-0.01,0.06,0c0.02-0.01,0.04-0.01,0.05,0c0.01-0.01,0.02,0,0.02,0c0.04-0.01,0.07-0.01,0.1,0
		c0.01-0.01,0.02,0,0.02,0c0.02-0.01,0.03-0.01,0.04,0c0.01-0.01,0.02,0,0.02,0c0.01-0.01,0.02,0,0.02,0c0.01-0.01,0.02,0,0.02,0
		c0.01-0.01,0.01,0,0.01,0c0.02-0.01,0.03-0.01,0.04,0c0.01-0.01,0.02,0,0.02,0c0.02-0.01,0.03-0.01,0.04,0
		c0.01-0.01,0.02-0.01,0.03,0c0.02-0.01,0.04-0.01,0.06,0c0.02-0.01,0.04-0.01,0.06,0c0.04-0.01,0.07-0.01,0.1,0
		c0.06-0.01,0.12-0.01,0.18,0c3.35-0.1,6.72-0.22,10.06-0.34c2.4-0.07,4.81-0.13,7.21-0.18c24.8-0.55,49.58-0.14,74.37-0.35
		c24.65-0.2,49.29,0.04,73.94-0.11c0.7,0,1.41-0.01,2.11-0.01c0.15-0.01,0.31-0.02,0.46-0.02c9.52-0.51,19.03-0.9,28.55-1.18
		c0.72-0.03,1.43-0.06,2.14-0.08h0.32c0,0,0.2,0,0.42,0c0,0.01,0,0.01,0,0.01c0,0.01,0.17,0,0.15,0h0.54c0,0.01,0,0.01,0,0.01
		c0,0.01,0.14,0.01,0.14,0.01h0.71c0.02,0,0.12-0.01,0.14-0.01c0.08,0,0.16,0.01,0.24,0.01c0.12,0,0.24,0,0.35-0.01h0.04
		c0,0.01,0,0.01,0,0.01s0.46,0,0.5,0c0.02,0,0.23,0.01,0.37,0c0,0.01,0,0.01,0,0.02c0-0.01,1,0.02,1,0c0-0.01,0-0.01,0-0.01
		c0.08,0.01,0.16,0.01,0.18,0.01h0.35c0.02,0,0.15,0,0.15-0.01c0.01-0.06,0-0.12,0-0.19c12.46-0.31,24.91-0.46,37.37-0.51h0.29
		c6.68-0.02,13.36-0.01,20.04,0.02c0.09,0.01,0.19,0.01,0.28,0.01c12.08,0.06,24.16,0.21,36.24,0.41c3.45,0.06,6.91,0.13,10.37,0.23
		c1.49,0.05,2.98,0.09,4.48,0.15c2.34,0.08,4.69,0.18,7.03,0.3c7.14,0.37,14.3,0.91,21.41,1.73c0.1,0.59,0.18,1.19,0.29,1.78
		C614.67,351.41,611.59,355.62,601.93,353.74z"/>
	<path class="st5" d="M177.19,317.56c0.27,3.9-0.1,7.85-0.19,11.78c-0.83,0.93-1.81,1.86-3.02,1.98c-17.1,1.62-34.21,1.62-51.31,0
		c-1.21-0.12-2.19-1.04-3.02-1.97c-0.8-16.76-0.8-16.72-18.23-16.76c-22.49-0.06-44.97-0.18-67.45-0.27c2.89-2.7,6.48-1.5,9.74-1.52
		c21.02-0.11,42.04-0.39,63.04,0.11c8.13,0.2,11.72-1.53,11.05-10.58c-0.84-11.36-0.2-22.84-0.21-34.27
		c-0.49-1.03-0.91-2.05-1.24-3.06c-3.54-10.54,0.96-19.77,7.81-27.39c7.87-8.75,18.41-13.76,30.79-9.89
		c9.36,2.93,17.13,8.35,22,17.2c2.11,3.83,3.69,7.78,0.4,11.8c-0.04,0.05-0.08,0.1-0.12,0.15c-0.01,15.32,0.18,30.65-0.15,45.97
		c-0.11,5.1,1.18,8.88,5.55,11.5C179.2,312.39,176.9,313.31,177.19,317.56z"/>
	<path class="st6" d="M472.4,108.08c-2.74,9.32-5.13,10.38-19.69,7.84c2.98,26.65-8.35,45.46-31.89,57.23
		c-0.76,1.32-1.32,2.84-2.59,3.76c-7.49,5.4-34.58,2.87-41.69-3.85c-0.49-4.75-5.28-4.58-7.93-6.84
		c-12.93-11.04-21.18-24.18-20.2-41.94c0.41-7.35,0.25-14.73,0.35-22.1c6.16,2.78,9.71,9.3,18.01,9.6
		c12.18,0.44,16.28-0.81,20.8-12.29c1.71-4.36,5.03-5.08,8.91-5.08c4.15-0.01,7.79,0.51,9.82,5.22
		c5.68,13.18,15.99,16.62,29.05,10.18c2.39-1.17,4.54-2.9,4.74-5.35c0.47-6.01,3.5-8.66,7.53-10.1c1.86-0.66,3.94-1.06,6.07-1.41
		h0.04v-0.01c0,0,0,0,0.01,0h0.01c0.19-0.03,0.39-0.06,0.59-0.09c0.05-0.02,0.1-0.04,0.15-0.07h0.01c0.15-0.07,0.31-0.14,0.46-0.22
		c2.19-1.07,4.26-2.62,6.96-1.45C469.58,94.2,475.23,98.48,472.4,108.08z"/>
	<path class="st7" d="M454.96,92.56c-0.03,0.09-0.07,0.18-0.11,0.27c-0.11,0.21-0.23,0.42-0.37,0.63c-0.02,0.04-0.04,0.07-0.07,0.11
		c-2.57,0.81-4.85,1.11-6.79,0.79c-3.5-0.57-5.88-3.14-6.83-8.32c-0.35-1.91-1.24-3.9-3.01-4.41c-6.32-1.85-12.88-0.56-19.32-1.02
		c-6.89-0.5-11.87,1.37-14.4,8.56c-1.53,4.35-6.04,5.02-10.15,4.95c-4.06-0.07-6.09-3.04-6.66-6.58c-0.87-5.49-4.18-6.84-9.15-6.86
		c-10.24-0.04-20.63-1.26-29.85,4.88c-0.54-0.53-1.08-1.06-1.62-1.6c-3.31-15.05-5.91-30.08,1.85-44.67
		c0.16-0.15,0.32-0.29,0.49-0.42c0.19-0.16,0.39-0.3,0.59-0.42c2.58-1.73,5.54-1.59,8.5-0.81c7.77,2.04,15.33,4.8,23.07,7
		c2.08,0.59,3.65,1.52,4.29,2.82c0.09,0.17,0.16,0.33,0.2,0.51c0.44,1.47-0.21,3.36-2.44,5.72c16.71-3.22,32.69-6.42,47.93-12.48
		c4.62-1.84,8.2-1.85,10.44,1.38c0.45,0.64,0.84,1.41,1.18,2.33c0.17,0.44,0.32,0.92,0.46,1.44c2.78,13.01,7.65,25.44,10.63,38.38
		C454.41,87.31,456.1,89.85,454.96,92.56z"/>
	<path class="st8" d="M223.79,128.54c-6.35,14.19-15.28,20.99-32.82,21.02c-27.99,0.05-56.16-0.54-84.05,1.58
		c-18.92,1.44-27.7-7.55-34.07-22.57v-0.01C123.16,128.56,173.48,128.55,223.79,128.54z"/>
	<path class="st9" d="M451.7,36.95c-3.79,1.95-6.53,4.77-8.97,7.97c-0.44,0.57-0.86,1.14-1.28,1.73c-1.55-4.33-3.44-5.68-8.57-3.59
		c-16.82,6.85-34.44,10.91-54.01,13.24c2.47-3.05,4.15-5.13,6.75-8.33c0.12-0.15,0.25-0.31,0.38-0.47c-0.2-0.01-0.39-0.03-0.58-0.04
		c-12.99-0.99-23.17-7.86-35.08-8.51c-0.49,0.02-0.94,0-1.37-0.08c-2-0.34-3.34-1.7-4.34-3.6c-3.66-1.9-7.32-3.8-11.45-5.94
		c5.18-6.21,11.23-9.62,18.35-11.32c11.63,0.19,22.11,5.58,33.46,7.38c17,2.69,33.3,0.15,49.59-4.05c2.38-0.61,4.66-1.73,7.22-1.09
		c3.7,2.48,7.41,4.97,11.11,7.46C456.88,31.36,455.97,34.74,451.7,36.95z"/>
	<path class="st6" d="M510.13,318.39c-0.22,2.65-1.38,4.72-3.76,5.99c-7.98,4.24-15.96,8.52-24.26,12.11
		c-0.2,0.09-0.41,0.18-0.62,0.27c-2.11,0.91-4.22,0.99-6.24,0.17c-0.07-0.03-0.15-0.06-0.23-0.1h-0.01c0-0.03,0-0.06-0.01-0.09
		c0.03-0.1,0.02-0.2,0.02-0.3c-0.01-0.02-0.01-0.04-0.01-0.07c0-0.05,0-0.11-0.01-0.16v-0.1c0-0.04,0-0.08-0.01-0.11
		c0.01-0.04,0.01-0.07,0.01-0.1v-0.07h0.02c-0.01-0.15-0.02-0.3-0.03-0.45v-0.09c0.01-0.11-0.01-0.2,0.01-0.3h-0.01
		c0-0.01,0-0.01,0-0.02h-0.01c0-0.01,0-0.01,0-0.01c-0.04-0.03-0.06-0.07-0.09-0.11c-0.04-0.04-0.09-0.07-0.12-0.11
		c-0.09-0.1-0.17-0.19-0.25-0.28c-0.08-0.09-0.16-0.17-0.23-0.27c0-0.01-0.02-0.02-0.03-0.03h0.01c-0.04-0.04-0.07-0.07-0.1-0.11
		c-0.02-0.02-0.04-0.04-0.05-0.06c-0.01-0.08-0.07-0.13-0.13-0.17c-0.03-0.04-0.05-0.09-0.08-0.13c-0.04-0.05-0.08-0.11-0.12-0.17
		c-0.04-0.05-0.08-0.11-0.13-0.17c-0.04-0.05-0.06-0.11-0.1-0.15l0.01-0.01c-0.06-0.11-0.14-0.21-0.21-0.31l0.01-0.01
		c-0.09-0.15-0.19-0.28-0.26-0.44c-0.02-0.04-0.04-0.08-0.07-0.11c-0.01-0.09-0.07-0.17-0.1-0.25c-0.03-0.05-0.05-0.11-0.08-0.16
		c-0.03-0.06-0.07-0.11-0.09-0.17c-0.01-0.02-0.02-0.04-0.03-0.06c-0.01-0.05-0.03-0.1-0.05-0.15c0.01,0,0.02,0,0.02,0
		c-0.17-0.25-0.27-0.56-0.36-0.84c-0.05-0.16-0.1-0.31-0.16-0.46c-0.02-0.07-0.05-0.13-0.07-0.19l0.01-0.01
		c0.01-0.08-0.03-0.17-0.06-0.25c-0.05-0.12-0.09-0.24-0.13-0.37c-0.03-0.12-0.07-0.24-0.1-0.36c-0.02-0.09-0.03-0.18-0.07-0.26
		c0-0.02,0.01-0.03,0-0.04c0.01,0,0.01,0,0.01,0c0-0.01,0-0.02-0.01-0.03v-0.01c-0.01-0.04-0.02-0.07-0.03-0.11
		c0-0.04-0.02-0.08-0.03-0.12c-0.02-0.06-0.02-0.12-0.04-0.18c-0.01,0-0.01-0.01-0.01-0.01h0.01c-0.02-0.11-0.06-0.22-0.08-0.33
		c-0.03-0.12-0.04-0.24-0.07-0.36c-0.02-0.11-0.05-0.23-0.06-0.35s-0.02-0.23-0.05-0.35c-0.01,0-0.01-0.01-0.01-0.01
		c-0.01-0.09-0.04-0.17-0.05-0.25c-0.01-0.03-0.02-0.06-0.02-0.1h0.01c-0.01-0.03-0.02-0.07-0.03-0.1c0-0.04,0-0.08-0.01-0.12
		c-0.02-0.06-0.03-0.12-0.04-0.18c-0.02-0.12-0.04-0.24-0.06-0.36s-0.03-0.24-0.05-0.36c0-0.06-0.02-0.12-0.04-0.17
		c0-0.01,0.02-0.01,0.02-0.01c0-0.08-0.02-0.15-0.04-0.22c-0.01-0.08-0.03-0.16-0.04-0.24c-0.01-0.08-0.02-0.16-0.04-0.24
		c-0.02-0.08-0.04-0.15-0.04-0.23h-0.01c0-0.01,0-0.01,0-0.02h0.01v-0.01h-0.01c0-0.04-0.01-0.08-0.02-0.12
		c-0.01-0.07-0.01-0.13-0.02-0.19c-0.03-0.13-0.06-0.25-0.08-0.37c-0.02-0.13-0.04-0.25-0.06-0.37c-0.02-0.11-0.04-0.23-0.08-0.34
		h0.01v-0.01c-0.02-0.09-0.02-0.19-0.04-0.29c-0.02-0.09-0.05-0.18-0.07-0.27c-0.04-0.18-0.09-0.35-0.14-0.52c0.01,0,0.02,0,0.02,0
		c-0.01-0.1-0.04-0.18-0.06-0.27c-0.02-0.08-0.04-0.16-0.06-0.24c-0.06-0.18-0.08-0.36-0.14-0.53c-0.06-0.17-0.09-0.35-0.15-0.53
		c-0.06-0.16-0.1-0.32-0.17-0.48c0.01,0,0.02,0,0.02,0c-0.1-0.25-0.21-0.49-0.33-0.73c-0.05-0.1-0.11-0.2-0.17-0.29
		c-0.05-0.12-0.11-0.23-0.18-0.34c-0.12-0.21-0.24-0.43-0.33-0.66c-0.07-0.18-0.13-0.38-0.2-0.57c0-0.02,0-0.04-0.01-0.06
		c0-0.01-0.01-0.02-0.02-0.03c0-0.01,0-0.02-0.01-0.03h-0.01c-0.02-0.03-0.03-0.05-0.05-0.08c-0.01-0.02-0.02-0.04-0.03-0.05
		c-0.02-0.03-0.04-0.06-0.06-0.1c0-0.01-0.02-0.02-0.03-0.04c0-0.01,0-0.01-0.01-0.02c-0.01-0.03-0.03-0.06-0.05-0.09
		c-0.01-0.01-0.02-0.03-0.03-0.04c-0.02-0.02-0.03-0.04-0.04-0.06c-0.01-0.02-0.02-0.04-0.04-0.07c-0.01-0.01,0-0.02-0.01-0.02
		c-0.01-0.02-0.03-0.04-0.05-0.05c-0.03-0.04-0.07-0.09-0.1-0.13c-0.04-0.05-0.06-0.11-0.11-0.15c-0.01-0.01-0.02-0.02-0.03-0.03
		c-0.01-0.02-0.01-0.03-0.02-0.04c-0.01-0.02-0.04-0.03-0.04-0.06c-0.03-0.03-0.06-0.06-0.08-0.1c-0.03-0.03-0.05-0.06-0.08-0.09
		c-0.03-0.03-0.05-0.07-0.08-0.1c-0.01-0.01-0.01-0.02-0.02-0.03c0,0,0,0-0.01-0.01c0,0-0.01-0.01-0.01-0.02
		c-0.01-0.01-0.02-0.02-0.03-0.03v-0.01c-0.01-8.81-0.02-17.61-0.03-26.42c0.91-0.58,1.83-1.13,2.76-1.65
		c9.38-5.32,19.47-8.01,30.48-7.27C502.47,293.34,506.6,305.8,510.13,318.39z"/>
	<path class="st10" d="M500.86,280.28c-10.16,2.72-20.31,5.44-30.47,8.18c-0.92,0.24-1.85,0.49-2.77,0.74
		c0.04-25.2,0.09-50.41,0.13-75.61c11.75,6.4,17.92,17.31,22.12,29.17C494.22,255.03,497.25,267.75,500.86,280.28z"/>
	<path class="st11" d="M339.38,327.04c-0.89,0.17-1.77,0.32-2.66,0.45c-11.56,1.74-23.17,0.45-34.75,0.48
		c-0.9,0-1.75-0.16-2.53-0.48c-1.16-0.46-2.18-1.24-3.04-2.28c-0.11-0.42-0.21-0.84-0.32-1.26c2.51-2.26,4.98-4.51,0.81-7.48
		c1.19-11.77,1.71-23.56,1.05-35.38c10.4-4.27,20.77-5.03,31.09-0.78c0.85,0.34,1.7,0.72,2.55,1.14
		c-0.03,5.81,0.11,11.63-0.15,17.44c-0.17,3.72,0.93,6.55,4.08,8.56c1.25,0.52,2.24,1.09,3.01,1.73c2.84,2.32,2.54,5.37,0.01,8.94
		c-0.12,0.18-0.25,0.36-0.39,0.54c-0.2,0.24-0.33,0.47-0.39,0.69c-0.59,1.8,2.51,3.05,3.31,4.66c0.01,0.02,0.02,0.04,0.03,0.07
		C341.47,324.92,341.19,325.87,339.38,327.04z"/>
	<path class="st12" d="M331.63,232.75c0.2,16.23,0,32.46-0.05,48.7c-0.82-0.01-1.64-0.02-2.46-0.03
		c-10.39-0.11-20.79-0.22-31.18-0.33c0.41-25.9,13.27-45.31,32.12-61.6C333.35,223.56,331.57,228.34,331.63,232.75z"/>
	<path class="st13" d="M423.89,324.99c-11.1-0.03-22.21,0.18-33.3-0.08c-16.3-0.37-32.63,1.21-48.89-0.87
		c-0.09,0.01-0.18,0.01-0.27,0.02c-0.11,0-0.22,0.01-0.34,0.02c-0.13,0-0.26,0.01-0.39,0.02h-0.01c-14.7,2.57-29.53,0.56-44.29,1.11
		c-0.06,0.76-0.13,1.52-0.2,2.28c1.18,1.08,2.46,1.6,3.8,1.83h-1.38c-3.94,0-8.11,0.98-11.67-1.75c-3.44,3.17-1.17,7.24-1.7,10.86
		c0.81,0.87,1.69,1.4,2.62,1.72c2.21,0.76,4.67,0.32,6.99,0.33c44.51,0.06,89.01,0.06,133.52,0.01c2.63,0,5.4,0.4,7.8-0.8
		c0.42-0.21,0.84-0.48,1.24-0.81c0.2-0.17,0.4-0.34,0.59-0.54C437.35,325.05,437.35,325.03,423.89,324.99z M404.59,329.36
		c-32.97,0.01-65.93,0.02-98.89-0.03c0.39-0.02,0.77-0.03,1.15-0.03C339.43,329.38,372.01,329.36,404.59,329.36z"/>
	<path class="st14" d="M441.8,20.25c-12.6,8.6-27.48,8.51-41.53,8.94c-16.82,0.52-33.35-3.7-48.74-11.18
		c15.3-8.03,31.91-6.86,48.38-7.27c1.82-0.04,9.76,5.17,6.75-4.35c-0.29-0.92,2.56-1.05,3.98-0.5
		C421.3,10.06,432.89,12.25,441.8,20.25z"/>
	<path class="st15" d="M456.13,94.6c-1.43,3.44-4.37,0.9-6.54,1.47c-3.48,0.91-5.8,1.26-6.47,5.94c-1.38,9.53-8.44,13.43-23.02,12.9
		c-7.95-0.28-14.9-3.69-15.73-12.64c-0.58-6.28-4.3-5.4-8.31-5.68c-4.83-0.34-6.71,1.67-6.62,6.39c0.11,5.58-3.88,8.22-8.32,9.95
		c-12.45,4.85-25.35,0.46-32.36-10.75c-3.31-5.44-1.83-11.03-0.51-16.62c3.84-6.13,9.35-8.16,16.47-7.41
		c4.89,0.51,9.89,0.14,14.84,0.04c5.75-0.11,9.64,1.95,10.04,8.26c0.18,2.91,0.54,6.41,4.29,5.59c3.07-0.68,7.87,1.03,8.82-4.61
		c1.28-7.63,6.6-9.65,13.63-9.26c4.93,0.28,9.9,0.25,14.85,0.04c6.97-0.3,12.18,0.9,12.54,9.61c0.27,6.66,6.01,4.57,9.96,5.13h0.04
		c0-0.01,0.01-0.01,0.01-0.01h0.01c0.28-0.1,0.53-0.16,0.74-0.16h0.01c0.13,0,0.24,0.02,0.35,0.05
		C455.54,93.03,455.81,93.85,456.13,94.6z"/>
	<path class="st6" d="M414.72,215.18c-10.59,2.65-21.5,2.69-32.08-0.05c-7.48-1.93-8.92-5.75-6.82-14.04
		c0.3-3.84,0.6-7.67,0.9-11.51c1.11-2.49,3.23-3.57,5.74-4.08c10.47-2.15,21.24-2.8,31.46-6.36c2.82-0.99,5.46,0.02,6.88,3.01
		c0.32,6.36,0.64,12.72,0.96,19.08C423.72,209.54,422.23,213.3,414.72,215.18z"/>
	<path class="st16" d="M222.05,338.39c-0.27,0.27-0.55,0.48-0.85,0.66c-1.63,0.94-3.53,0.49-5.3,0.49
		c-45.06,0.04-90.11,0.04-135.17,0c-1.75,0-3.63,0.43-5.23-0.47c-0.32-0.17-0.63-0.4-0.92-0.69c-2.25-4.45-2.65-7.47,4.09-7.28
		c10.78,0.32,21.57,0.18,32.36,0.03c2.92-0.04,6.25,1.18,8.62-1.78c19.11,0,38.23-0.01,57.35-0.01c12.46,4,25.26,1.31,37.89,1.64
		C220.73,331.13,222.58,333.08,222.05,338.39z"/>
	<path class="st17" d="M465.36,54.5c-0.6,6.11-1.23,12.19-1.54,18.33c-0.31,6.11-1.24,12.19-1.9,18.28
		c-1.93,1.17-3.86,2.33-5.79,3.49l-1.65-1.14c-0.25-0.17-0.5-0.34-0.75-0.51v-0.01c-4.26-15.39-9.83-30.42-12.28-46.29
		c-0.26-1.55-0.21-2.89,0.1-4.06c0.78-3.03,3.32-4.88,6.79-6.03c4.45-1.49,6.62-4.06,4.57-8.85c4.09-0.47,2.51-5.14,5.48-7.27
		c2.34,2.81-1.25,5.91,0.86,8.79c2.22-0.97,4.6-2.01,6.98-3.05c-5.16,2.76,2.83,6.25-0.94,10.86
		C462.47,40.49,465.94,48.59,465.36,54.5z"/>
	<path class="st18" d="M612.55,340.59c-50.35,0.02-100.7,0.03-151.05,0.05c-6.45,0-12.89,0.01-19.34,0.01h-4.43
		c-2.33,1.27-4.86,0.76-7.31,0.76c-66.41,0.03-132.82,0.02-199.23,0c-2.45,0-4.98,0.5-7.32-0.74H72.74
		c-0.56,0.46-1.03,0.57-1.41,0.35c-0.26-0.15-0.47-0.44-0.64-0.89c1.29-0.58,2.59-1.17,3.89-1.75h4.01
		c46.52,0,93.02,0.01,139.54,0.01h3.92c21.07,0.01,42.13,0.03,63.19,0.04h0.01c50.7-0.03,101.38-0.06,152.07-0.09h0.69
		c9.53,0.01,19.05,0.02,28.58,0.03c0,0,0,0,0.01,0s0.03,0,0.04-0.01c0,0,0,0.01,0.01,0.01c0,0,0,0,0.01,0
		c0.03,0.01,0.06,0.01,0.09,0.01c0.09,0.01,0.18,0,0.26,0c0.04,0,0.07,0,0.07,0h0.28c0,0.01,0.14,0.01,0.14,0.01h0.68
		c0.11,0.01,0.23,0.01,0.35,0.01c0.11,0,0.22,0,0.33-0.01c0,0.01,0.31,0.01,0.58,0.01h0.32c0,0,0.2,0,0.42,0c0,0.01,0,0.01,0,0.01
		c0,0.01,0.17,0,0.15,0h0.54c0,0.01,0,0.01,0,0.01c0,0.01,0.14,0.01,0.14,0.01h0.71c0.02,0,0.12-0.01,0.14-0.01
		c0.08,0,0.16,0.01,0.24,0.01c0.12,0,0.24,0,0.35-0.01h0.04c0,0.01,0,0.01,0,0.01s0.46,0,0.5,0c0.02,0,0.23,0.01,0.37,0
		c0,0.01,0,0.01,0,0.02c0-0.01,1,0.02,1,0c0-0.01,0-0.01,0-0.01c0.08,0.01,0.16,0.01,0.18,0.01h0.35c0.02,0,0.15,0,0.15-0.01
		c0.01-0.06,0-0.12,0-0.19v-0.03c-0.01-0.07,0-0.15,0-0.22c0.01-0.15-0.01-0.3-0.01-0.45c0.01-0.15,0.01-0.3,0-0.45
		c0-0.03-0.01-0.06-0.01-0.09V337c0-0.01,0.01-0.02,0-0.03v-0.07h0.01c0.08,0.01,0.14,0.02,0.22,0.03c0.37,0.07,0.74,0.14,1.11,0.21
		c1.91-0.27,3.83-0.48,5.75-0.65c10.01-0.93,20.06-0.77,30.12-0.6h0.03c0.34,0,0.67,0,1.01,0.01c6.51,0.01,13.02-0.25,19.54,0.03
		c0.14,0.01,0.27,0.01,0.41,0.02c0.15-0.01,0.31-0.01,0.46-0.01c13.57-0.48,27.13,0.23,40.7-0.07c3.07-0.07,6.12,0.33,8.58,2.52
		c0.38,0.07,0.77,0.12,1.15,0.17c2.33,0.31,4.68,0.35,7.03,0.3C598.33,338.7,605.59,337.66,612.55,340.59z"/>
	<path class="st10" d="M432.02,200.89c-5.94,21.81-31.7,30.03-55.58,17.75c-6.41-3.3-11.08-7.81-11.11-15.63
		c3.22-2.12,6.78-2.45,10.49-1.92c-1.61,8.4,2.77,11.79,10.42,12.57c8.6,0.89,17.16,0.74,25.76-0.24
		c7.49-0.86,11.19-4.37,9.76-12.19C425.18,201.12,428.6,201,432.02,200.89z"/>
	<path class="st19" d="M556.91,317.8c-0.3,0.54-0.67,1.28-1.17,1.31c-11.55,0.7-18.3,7.01-22.06,16.83
		c-0.23,0.6-0.45,1.21-0.66,1.83c-0.1,0.3-0.2,0.6-0.29,0.9c-6.73-0.08-13.47-0.16-20.2-0.25c-0.05-0.23-0.09-0.45-0.12-0.68
		c-0.11-0.63-0.17-1.24-0.18-1.85c-0.26-6.48,3.7-11.89,5.5-17.84c10.49-5.23,20.97-10.33,33.22-5.88
		C553.88,313.23,557.22,313.48,556.91,317.8z"/>
	<path class="st20" d="M581.15,329.36c-3.4-0.46-6.68,0.42-10.02,0.79c-3.36,0.38-6.6,1.43-9.93,1.84c0.92-0.23,1.44-0.71,1.96-1.46
		c2.31-3.38,2.2-6.93-0.44-10.24c-1.93-0.83-3.87-1.66-5.81-2.49c-16.79,0.64-23.37,5.41-24.1,18.13c-0.04,0.59-0.06,1.2-0.07,1.83
		c-0.01,0.29-0.01,0.6-0.01,0.91c15.63-0.08,31.26-0.18,46.9-0.26c1.11-0.01,2.22-0.01,3.33-0.02
		C583.85,335.08,581.28,332.46,581.15,329.36z M553.48,331.52c2.54,0.38,4.34,0.6,5.67,0.63
		C557.22,332.2,555.34,331.88,553.48,331.52z"/>
	<path class="st21" d="M434.78,327.49c-0.96,1.16-1.88,1.97-2.75,2.54c-2.88,1.9-5.31,1.12-7.46,1.13
		c-42.82,0.09-85.65,0.09-128.47-0.04c-3.27-0.01-7.85,2.08-9.15-3.55c3.08-0.03,6.17-0.05,9.25-0.08H434.78z"/>
	<path class="st22" d="M513.27,335.9c-0.21,0.61-0.4,1.22-0.57,1.84c-0.06,0.23-0.12,0.45-0.17,0.68
		c-12.5,0.01-24.99,0.02-37.48,0.03l-0.01-0.01c0.01-0.06,0-0.12,0-0.19v-0.03c-0.01-0.07,0-0.15,0-0.22
		c0.01-0.15-0.01-0.3-0.01-0.45c0.01-0.15,0.01-0.3,0-0.45c0-0.03-0.01-0.06-0.01-0.09V337c0-0.01,0.01-0.02,0-0.03
		c0.01-0.01,0.01-0.03,0.01-0.04v-0.03c0-0.02-0.01-0.05-0.01-0.07c-0.01-0.03-0.01-0.06-0.02-0.09c0.03-0.1,0.02-0.2,0.02-0.3
		c-0.01-0.02-0.01-0.04-0.01-0.07c-0.01-0.01-0.01-0.03-0.01-0.04v-0.22c0-0.04,0-0.08-0.01-0.11c0.01-0.04,0.01-0.07,0.01-0.1
		v-0.07h0.02c-0.01-0.15-0.02-0.3-0.03-0.45v-0.09c0.01-0.11-0.01-0.2,0.01-0.3h-0.01c0-0.01,0-0.01,0-0.02h-0.01
		c0-0.01,0-0.01,0-0.01s0.01,0,0.01-0.01c4.41,2.4,7.64-0.89,10.85-2.69c8.13-4.57,17.65-6.73,24.29-13.87
		c2.69,3.38,5.1,0.56,7.6-0.34C518.96,324.69,515.27,330.09,513.27,335.9z"/>
	<path class="st23" d="M420.82,173.15c-0.01,3-0.01,6-0.02,9c-1.42-0.5-3.2-1.82-4.22-1.38c-12.73,5.56-26.88,4.56-39.86,8.81
		c-0.06-5.51-0.12-11.01-0.18-16.52C391.29,177.51,406.05,179.88,420.82,173.15z"/>
	<path class="st24" d="M270.02,137.73c-0.05,55.14-0.09,110.28-0.13,165.42c-0.5-0.59-1-1.17-1.52-1.76v-0.01
		c-4.19-10.49-1.44-21.42-1.58-32.08c-0.56-40.28-0.23-80.57-0.21-120.86c0.01-3.07-0.38-6.25,1.8-8.9
		C268.92,138.94,269.47,138.33,270.02,137.73z"/>
	<path class="st25" d="M346.78,72.1c-0.24,3.94-0.11,7.91-0.15,11.86C338,72.5,341.31,59.34,341.6,46.7
		c0.09-3.83,1.97-7.62,3.03-11.43c1.64,1.06,3.28,2.12,4.93,3.18c0.26,0.16,0.52,0.33,0.78,0.5C344.49,49.5,347.45,61,346.78,72.1z"
		/>
	<path class="st5" d="M255.26,312.33c-22.87,0-45.74,0-68.62,0.01c17.41-6.27,35.47-2.58,53.23-3.24
		C244.98,308.91,251.21,306.29,255.26,312.33z"/>
	<path class="st26" d="M72.74,340.67c-2.45,2.78-5.73,1.66-8.66,1.67c-21.17,0.08-42.33,0.02-63.5,0c0.39-3.75,3.25-2.96,5.57-2.94
		c21.51,0.22,43.02,0.48,64.54,0.73c0.53,0.14,1.07,0.28,1.61,0.42C72.45,340.59,72.59,340.63,72.74,340.67z"/>
	<path class="st27" d="M581.15,329.36c-13.26,5.7-26.43,5.36-41.44-0.14c5.45-2.66,9.18-0.45,11.95,0.53
		c10.06,3.54,11.95-0.98,11.06-9.46c1.17,0,2.33,0,3.5-0.01c2.46,4.47,5.63,7.79,11.32,7.05
		C578.99,327.57,580.84,327.09,581.15,329.36z"/>
	<path class="st28" d="M577.54,327.33c-9.71,3.94-10.76,3.29-11.32-7.05C571.36,320.44,574.9,323.16,577.54,327.33z"/>
	<path class="st29" d="M303.35,320.83c-0.32,4.56-4.71,2.28-7.27,3.12c-3.6-2.91,0.55-4.99,0.81-7.48
		C300.13,316.36,303.63,316.83,303.35,320.83z"/>
	<path class="st30" d="M177.23,254.87c-0.42-14.51-13.98-27.53-29.01-27.85c-15.15-0.32-29.3,12.99-30.53,28.86
		c-0.26,3.38-0.09,6.79-0.11,10.19c-20.45-13.33-28.3-36.68-21.12-59.72c7.41-23.78,25.94-37.55,51.08-38.55
		c21.58-0.86,43.61,12.54,51.41,36.69c6.84,21.17,3.32,44.12-18.71,60.28C177.31,262.05,180.81,257.29,177.23,254.87z"/>
	<path class="st31" d="M268.38,139.54c0,53.95,0,107.9,0,161.85c-4.68-0.63-3.64-4.29-3.64-7.19c-0.05-49.16-0.05-98.32,0-147.48
		C264.73,143.82,263.69,140.16,268.38,139.54z"/>
	<path class="st32" d="M405.75,245.84c9.52,0.21,21.47,4.3,30.33,15.18c6.87,8.43,6.85,19.54,0.23,28.24
		c-15.35,20.18-53.03,21.04-69.24,1.58c-8.19-9.83-7.96-22.61,0.98-32C377.14,249.28,388.72,245.71,405.75,245.84z"/>
	<path class="st33" d="M335.46,318.19c5.35-3.56,3.4-7.14,0.05-10.73c4.26-0.17,8.52-0.44,12.77-0.46c2.45-0.01,5.3,0.39,5.57,3.41
		c0.27,3.02-2.57,3.54-4.85,4.48c-2.56,1.05-6.49-1.12-7.67,3.18C339.4,319.85,337.45,319.84,335.46,318.19z"/>
	<path class="st34" d="M335.46,318.19c1.95-0.04,3.91-0.08,5.86-0.11c2.9,1.81,1.17,3.92,0.38,5.96c0,0-0.51-0.05-0.51-0.05
		s-0.49,0.11-0.5,0.12C337.99,322.98,331.18,325.48,335.46,318.19z"/>
	<path class="st35" d="M223.87,340.67c71.29-0.01,142.57-0.01,213.86-0.02c-2.49,2.78-5.8,1.68-8.77,1.68
		c-65.45,0.07-130.89,0.08-196.34,0.03C229.67,342.36,226.35,343.47,223.87,340.67z"/>
	<path class="st36" d="M387.79,150.72c-9.28-7.19-11.23-13.31-7.72-24.23c5.89,3.05,12.7,2.5,18.78,4.84
		c2.38,2.62,3.33,5.67,2.8,9.18c-2.74,4.12-6.92,6.87-10.1,10.59C390.24,151.59,388.96,151.74,387.79,150.72z"/>
	<path class="st37" d="M398.91,132.39c-6.35-1.72-14.63,2.67-18.84-5.9c10.3-6.12,21.11-3.59,31.87-1.86
		C411.48,133.4,408.39,135.24,398.91,132.39z"/>
	<path class="st38" d="M398.91,132.39c5.6-0.48,11.75-0.03,13.03-7.76c6.64,4.29,2.79,9.89,1.88,15.12
		c-4.29,2.24-8.62,3.85-13.3,1.02C399.98,137.98,399.44,135.18,398.91,132.39z"/>
	<path class="st39" d="M400.51,140.77c4.38-1.07,8.77-2,13.3-1.02c-0.47,1.18-0.94,2.35-1.4,3.53c-5.92,6.21-13.05,8.88-21.6,7.36
		C391.89,145.23,396.21,143.01,400.51,140.77z"/>
	<path class="st40" d="M365.08,117.08c2.42,0.91,7.33-1.62,6.79,3.28c-0.45,4.01-5.02,2.21-7.77,2.26c-2.43,0.05-6.86,1.5-6.93-1.91
		C357.07,115.86,362.01,117.71,365.08,117.08z"/>
	<path class="st41" d="M390.81,150.64c7.55-1.42,14.77-3.8,21.6-7.36c-5.94,9.58-12.58,11.58-24.61,7.44
		C388.8,150.7,389.8,150.67,390.81,150.64z"/>
	<path class="st42" d="M358.35,73.03c-0.26-2.57,1.44-3.14,2.69-3.79c2.73-1.43,5.48-3.08,8.43-3.72c2.61-0.56,6.49-3.71,8.03,0.54
		c1.69,4.67-3.49,3.87-5.84,5.14c-2.71,1.46-5.64,2.49-8.41,3.86C360.32,76.49,359.59,74.06,358.35,73.03z"/>
	<path class="st43" d="M419.8,65.04c3.05,1.03,6.87,2.27,10.65,3.62c1.65,0.59,3.92,1.03,2.65,3.67c-0.92,1.92-2.58,2.49-4.66,1.84
		c-3.54-1.12-7.06-2.3-10.65-3.25c-2.13-0.56-4.58-0.64-4.02-3.78C414.36,63.89,416.93,65.03,419.8,65.04z"/>
	<path class="st29" d="M312.39,323.7c-1.77-0.19-4.07,0.23-4.35-2.29c-0.35-3.23,2.24-3.11,4.37-3.15c1.92-0.04,3.98,0.33,3.99,2.73
		C316.4,323.42,314.29,323.6,312.39,323.7z"/>
	<path class="st44" d="M384.21,85.11c2.63,5.26,2,11.06,0.94,16.22c-2.17,10.56-11.34,8.09-18.72,8.46
		c-6.92,0.35-11.16-2.94-12.11-9.8c-0.46-3.32,0.06-6.76-0.16-10.12c-0.32-4.83,1.87-6.7,6.55-6.36c3.36,0.24,6.75,0.21,10.13,0.29
		c0.91,1.71,0.27,3.35-0.17,5c-0.37,3.48-3.65,7.36,1.45,10.02C377.01,95.01,376.17,86.13,384.21,85.11z"/>
	<path class="st45" d="M424.81,109.49c-14.61,0.72-21.3-8.42-16.69-22.56c1.01-3.11,3.19-3.38,5.71-3.36
		c4.92,0.03,9.84,0.15,14.76,0.23c0.85,6.74-0.57,12.98-4.2,18.71c-4.06-0.25-2.74-3.83-3.77-5.99c-1.42,1.61,0.1,3.51-0.4,5.22
		C417.43,106.88,425.63,105.53,424.81,109.49z"/>
	<path class="st46" d="M424.81,109.49c0.36-4.15-13.2,2.55-5.64-7.23c1.17-1.16,2.39-1.11,3.65-0.15c3.61-5.57,1.34-13,5.77-18.31
		c4.16,0.67,11-3.94,10.72,5.45c-2.32,7.91-6.09,14.91-12.64,20.18C426.05,109.45,425.43,109.47,424.81,109.49z"/>
	<path class="st47" d="M426.67,109.43c4.21-6.73,8.43-13.45,12.64-20.18c0.15,5.1,1.85,10.44-0.96,15.18
		C435.81,108.69,431.81,110.68,426.67,109.43z"/>
	<path class="st48" d="M369.11,88.04c0.57-1.41,1.15-2.82,1.72-4.22c4.49,0.11,9.18-1.85,13.38,1.3
		c-6.63,3.81-5.27,13.31-12.1,16.97C369.31,97.79,370.9,92.55,369.11,88.04z"/>
	<path class="st49" d="M422.5,276.2c-4.49-2.07-8.11-3.63-11.61-5.41c-1.44-0.73-2.48-2.32-1.71-3.86c0.79-1.58,2.53-1.45,4.08-0.74
		c0.28,0.13,0.62,0.17,0.86,0.35c4.96,3.85,15.35,2.72,15.2,9.81c-0.12,5.71-9.7,6.1-15.04,8.91c-1.58,0.84-3.57,2.3-4.79,0.03
		c-1.36-2.54,0.86-4.01,2.79-4.94C415.27,278.92,418.42,277.83,422.5,276.2z"/>
	<path class="st50" d="M379.79,276.07c4.68,2.01,8.38,3.47,11.94,5.2c1.45,0.71,2.19,2.31,1.44,3.91c-0.89,1.89-2.47,1.19-3.9,0.59
		c-0.28-0.12-0.53-0.31-0.8-0.47c-5.26-3.14-15.22-2.79-14.87-9.68c0.33-6.4,10.5-5.75,15.69-9.35c1.24-0.86,3.12-1.22,3.97,0.53
		c0.72,1.49,0.01,3.23-1.46,3.95C388.28,272.5,384.61,273.97,379.79,276.07z"/>
	<path class="st51" d="M406.97,260.92c-2.23,9.42-4.41,18.85-6.78,28.24c-0.23,0.92-1.54,2.05-2.49,2.2
		c-1.51,0.24-2.28-1.45-1.9-2.5c3.39-9.3,2.92-19.83,8.28-28.49C405.05,260.55,406.01,260.74,406.97,260.92z"/>
	<path class="st52" d="M369.11,88.04c6.85,3.44,2.71,9.22,3,14.05C362.4,99.26,367.54,93.27,369.11,88.04z"/>
	<path class="st53" d="M422.81,102.11c-1.22,0.05-2.43,0.1-3.65,0.15c-1.93-4.13-2.23-8.32-0.04-12.4c0.66-1.22,2.67-1.34,3.16-0.4
		C424.43,93.51,423.46,97.85,422.81,102.11z"/>
</g>
</svg>
